<?xml version="1.0" encoding="utf-8" standalone="no"?>
<!DOCTYPE svg PUBLIC "-//W3C//DTD SVG 1.1//EN"
  "http://www.w3.org/Graphics/SVG/1.1/DTD/svg11.dtd">
<svg xmlns:xlink="http://www.w3.org/1999/xlink" width="372.103125pt" height="248.518125pt" viewBox="0 0 372.103125 248.518125" xmlns="http://www.w3.org/2000/svg" version="1.1">
 <metadata>
  <rdf:RDF xmlns:dc="http://purl.org/dc/elements/1.1/" xmlns:cc="http://creativecommons.org/ns#" xmlns:rdf="http://www.w3.org/1999/02/22-rdf-syntax-ns#">
   <cc:Work>
    <dc:type rdf:resource="http://purl.org/dc/dcmitype/StillImage"/>
    <dc:date>2022-03-16T17:57:34.351174</dc:date>
    <dc:format>image/svg+xml</dc:format>
    <dc:creator>
     <cc:Agent>
      <dc:title>Matplotlib v3.5.1, https://matplotlib.org/</dc:title>
     </cc:Agent>
    </dc:creator>
   </cc:Work>
  </rdf:RDF>
 </metadata>
 <defs>
  <style type="text/css">*{stroke-linejoin: round; stroke-linecap: butt}</style>
 </defs>
 <g id="figure_1">
  <g id="patch_1">
   <path d="M 0 248.518125 
L 372.103125 248.518125 
L 372.103125 0 
L 0 0 
L 0 248.518125 
z
" style="fill: none"/>
  </g>
  <g id="axes_1">
   <g id="patch_2">
    <path d="M 30.103125 224.64 
L 364.903125 224.64 
L 364.903125 7.2 
L 30.103125 7.2 
z
" style="fill: #ffffff"/>
   </g>
   <g id="matplotlib.axis_1">
    <g id="xtick_1">
     <g id="line2d_1">
      <defs>
       <path id="mdc5f1eef45" d="M 0 0 
L 0 3.5 
" style="stroke: #000000; stroke-width: 0.8"/>
      </defs>
      <g>
       <use xlink:href="#mdc5f1eef45" x="45.321307" y="224.64" style="stroke: #000000; stroke-width: 0.8"/>
      </g>
     </g>
     <g id="text_1">
      <!-- 0 -->
      <g transform="translate(42.140057 239.238437)scale(0.1 -0.1)">
       <defs>
        <path id="DejaVuSans-30" d="M 2034 4250 
Q 1547 4250 1301 3770 
Q 1056 3291 1056 2328 
Q 1056 1369 1301 889 
Q 1547 409 2034 409 
Q 2525 409 2770 889 
Q 3016 1369 3016 2328 
Q 3016 3291 2770 3770 
Q 2525 4250 2034 4250 
z
M 2034 4750 
Q 2819 4750 3233 4129 
Q 3647 3509 3647 2328 
Q 3647 1150 3233 529 
Q 2819 -91 2034 -91 
Q 1250 -91 836 529 
Q 422 1150 422 2328 
Q 422 3509 836 4129 
Q 1250 4750 2034 4750 
z
" transform="scale(0.015625)"/>
       </defs>
       <use xlink:href="#DejaVuSans-30"/>
      </g>
     </g>
    </g>
    <g id="xtick_2">
     <g id="line2d_2">
      <g>
       <use xlink:href="#mdc5f1eef45" x="105.272655" y="224.64" style="stroke: #000000; stroke-width: 0.8"/>
      </g>
     </g>
     <g id="text_2">
      <!-- 1 -->
      <g transform="translate(102.091405 239.238437)scale(0.1 -0.1)">
       <defs>
        <path id="DejaVuSans-31" d="M 794 531 
L 1825 531 
L 1825 4091 
L 703 3866 
L 703 4441 
L 1819 4666 
L 2450 4666 
L 2450 531 
L 3481 531 
L 3481 0 
L 794 0 
L 794 531 
z
" transform="scale(0.015625)"/>
       </defs>
       <use xlink:href="#DejaVuSans-31"/>
      </g>
     </g>
    </g>
    <g id="xtick_3">
     <g id="line2d_3">
      <g>
       <use xlink:href="#mdc5f1eef45" x="165.224004" y="224.64" style="stroke: #000000; stroke-width: 0.8"/>
      </g>
     </g>
     <g id="text_3">
      <!-- 2 -->
      <g transform="translate(162.042754 239.238437)scale(0.1 -0.1)">
       <defs>
        <path id="DejaVuSans-32" d="M 1228 531 
L 3431 531 
L 3431 0 
L 469 0 
L 469 531 
Q 828 903 1448 1529 
Q 2069 2156 2228 2338 
Q 2531 2678 2651 2914 
Q 2772 3150 2772 3378 
Q 2772 3750 2511 3984 
Q 2250 4219 1831 4219 
Q 1534 4219 1204 4116 
Q 875 4013 500 3803 
L 500 4441 
Q 881 4594 1212 4672 
Q 1544 4750 1819 4750 
Q 2544 4750 2975 4387 
Q 3406 4025 3406 3419 
Q 3406 3131 3298 2873 
Q 3191 2616 2906 2266 
Q 2828 2175 2409 1742 
Q 1991 1309 1228 531 
z
" transform="scale(0.015625)"/>
       </defs>
       <use xlink:href="#DejaVuSans-32"/>
      </g>
     </g>
    </g>
    <g id="xtick_4">
     <g id="line2d_4">
      <g>
       <use xlink:href="#mdc5f1eef45" x="225.175352" y="224.64" style="stroke: #000000; stroke-width: 0.8"/>
      </g>
     </g>
     <g id="text_4">
      <!-- 3 -->
      <g transform="translate(221.994102 239.238437)scale(0.1 -0.1)">
       <defs>
        <path id="DejaVuSans-33" d="M 2597 2516 
Q 3050 2419 3304 2112 
Q 3559 1806 3559 1356 
Q 3559 666 3084 287 
Q 2609 -91 1734 -91 
Q 1441 -91 1130 -33 
Q 819 25 488 141 
L 488 750 
Q 750 597 1062 519 
Q 1375 441 1716 441 
Q 2309 441 2620 675 
Q 2931 909 2931 1356 
Q 2931 1769 2642 2001 
Q 2353 2234 1838 2234 
L 1294 2234 
L 1294 2753 
L 1863 2753 
Q 2328 2753 2575 2939 
Q 2822 3125 2822 3475 
Q 2822 3834 2567 4026 
Q 2313 4219 1838 4219 
Q 1578 4219 1281 4162 
Q 984 4106 628 3988 
L 628 4550 
Q 988 4650 1302 4700 
Q 1616 4750 1894 4750 
Q 2613 4750 3031 4423 
Q 3450 4097 3450 3541 
Q 3450 3153 3228 2886 
Q 3006 2619 2597 2516 
z
" transform="scale(0.015625)"/>
       </defs>
       <use xlink:href="#DejaVuSans-33"/>
      </g>
     </g>
    </g>
    <g id="xtick_5">
     <g id="line2d_5">
      <g>
       <use xlink:href="#mdc5f1eef45" x="285.126701" y="224.64" style="stroke: #000000; stroke-width: 0.8"/>
      </g>
     </g>
     <g id="text_5">
      <!-- 4 -->
      <g transform="translate(281.945451 239.238437)scale(0.1 -0.1)">
       <defs>
        <path id="DejaVuSans-34" d="M 2419 4116 
L 825 1625 
L 2419 1625 
L 2419 4116 
z
M 2253 4666 
L 3047 4666 
L 3047 1625 
L 3713 1625 
L 3713 1100 
L 3047 1100 
L 3047 0 
L 2419 0 
L 2419 1100 
L 313 1100 
L 313 1709 
L 2253 4666 
z
" transform="scale(0.015625)"/>
       </defs>
       <use xlink:href="#DejaVuSans-34"/>
      </g>
     </g>
    </g>
    <g id="xtick_6">
     <g id="line2d_6">
      <g>
       <use xlink:href="#mdc5f1eef45" x="345.078049" y="224.64" style="stroke: #000000; stroke-width: 0.8"/>
      </g>
     </g>
     <g id="text_6">
      <!-- 5 -->
      <g transform="translate(341.896799 239.238437)scale(0.1 -0.1)">
       <defs>
        <path id="DejaVuSans-35" d="M 691 4666 
L 3169 4666 
L 3169 4134 
L 1269 4134 
L 1269 2991 
Q 1406 3038 1543 3061 
Q 1681 3084 1819 3084 
Q 2600 3084 3056 2656 
Q 3513 2228 3513 1497 
Q 3513 744 3044 326 
Q 2575 -91 1722 -91 
Q 1428 -91 1123 -41 
Q 819 9 494 109 
L 494 744 
Q 775 591 1075 516 
Q 1375 441 1709 441 
Q 2250 441 2565 725 
Q 2881 1009 2881 1497 
Q 2881 1984 2565 2268 
Q 2250 2553 1709 2553 
Q 1456 2553 1204 2497 
Q 953 2441 691 2322 
L 691 4666 
z
" transform="scale(0.015625)"/>
       </defs>
       <use xlink:href="#DejaVuSans-35"/>
      </g>
     </g>
    </g>
   </g>
   <g id="matplotlib.axis_2">
    <g id="ytick_1">
     <g id="line2d_7">
      <defs>
       <path id="me3c7ac3067" d="M 0 0 
L -3.5 0 
" style="stroke: #000000; stroke-width: 0.8"/>
      </defs>
      <g>
       <use xlink:href="#me3c7ac3067" x="30.103125" y="214.756364" style="stroke: #000000; stroke-width: 0.8"/>
      </g>
     </g>
     <g id="text_7">
      <!-- 0.0 -->
      <g transform="translate(7.2 218.555582)scale(0.1 -0.1)">
       <defs>
        <path id="DejaVuSans-2e" d="M 684 794 
L 1344 794 
L 1344 0 
L 684 0 
L 684 794 
z
" transform="scale(0.015625)"/>
       </defs>
       <use xlink:href="#DejaVuSans-30"/>
       <use xlink:href="#DejaVuSans-2e" x="63.623047"/>
       <use xlink:href="#DejaVuSans-30" x="95.410156"/>
      </g>
     </g>
    </g>
    <g id="ytick_2">
     <g id="line2d_8">
      <g>
       <use xlink:href="#me3c7ac3067" x="30.103125" y="175.217864" style="stroke: #000000; stroke-width: 0.8"/>
      </g>
     </g>
     <g id="text_8">
      <!-- 0.2 -->
      <g transform="translate(7.2 179.017083)scale(0.1 -0.1)">
       <use xlink:href="#DejaVuSans-30"/>
       <use xlink:href="#DejaVuSans-2e" x="63.623047"/>
       <use xlink:href="#DejaVuSans-32" x="95.410156"/>
      </g>
     </g>
    </g>
    <g id="ytick_3">
     <g id="line2d_9">
      <g>
       <use xlink:href="#me3c7ac3067" x="30.103125" y="135.679365" style="stroke: #000000; stroke-width: 0.8"/>
      </g>
     </g>
     <g id="text_9">
      <!-- 0.4 -->
      <g transform="translate(7.2 139.478584)scale(0.1 -0.1)">
       <use xlink:href="#DejaVuSans-30"/>
       <use xlink:href="#DejaVuSans-2e" x="63.623047"/>
       <use xlink:href="#DejaVuSans-34" x="95.410156"/>
      </g>
     </g>
    </g>
    <g id="ytick_4">
     <g id="line2d_10">
      <g>
       <use xlink:href="#me3c7ac3067" x="30.103125" y="96.140866" style="stroke: #000000; stroke-width: 0.8"/>
      </g>
     </g>
     <g id="text_10">
      <!-- 0.6 -->
      <g transform="translate(7.2 99.940084)scale(0.1 -0.1)">
       <defs>
        <path id="DejaVuSans-36" d="M 2113 2584 
Q 1688 2584 1439 2293 
Q 1191 2003 1191 1497 
Q 1191 994 1439 701 
Q 1688 409 2113 409 
Q 2538 409 2786 701 
Q 3034 994 3034 1497 
Q 3034 2003 2786 2293 
Q 2538 2584 2113 2584 
z
M 3366 4563 
L 3366 3988 
Q 3128 4100 2886 4159 
Q 2644 4219 2406 4219 
Q 1781 4219 1451 3797 
Q 1122 3375 1075 2522 
Q 1259 2794 1537 2939 
Q 1816 3084 2150 3084 
Q 2853 3084 3261 2657 
Q 3669 2231 3669 1497 
Q 3669 778 3244 343 
Q 2819 -91 2113 -91 
Q 1303 -91 875 529 
Q 447 1150 447 2328 
Q 447 3434 972 4092 
Q 1497 4750 2381 4750 
Q 2619 4750 2861 4703 
Q 3103 4656 3366 4563 
z
" transform="scale(0.015625)"/>
       </defs>
       <use xlink:href="#DejaVuSans-30"/>
       <use xlink:href="#DejaVuSans-2e" x="63.623047"/>
       <use xlink:href="#DejaVuSans-36" x="95.410156"/>
      </g>
     </g>
    </g>
    <g id="ytick_5">
     <g id="line2d_11">
      <g>
       <use xlink:href="#me3c7ac3067" x="30.103125" y="56.602366" style="stroke: #000000; stroke-width: 0.8"/>
      </g>
     </g>
     <g id="text_11">
      <!-- 0.8 -->
      <g transform="translate(7.2 60.401585)scale(0.1 -0.1)">
       <defs>
        <path id="DejaVuSans-38" d="M 2034 2216 
Q 1584 2216 1326 1975 
Q 1069 1734 1069 1313 
Q 1069 891 1326 650 
Q 1584 409 2034 409 
Q 2484 409 2743 651 
Q 3003 894 3003 1313 
Q 3003 1734 2745 1975 
Q 2488 2216 2034 2216 
z
M 1403 2484 
Q 997 2584 770 2862 
Q 544 3141 544 3541 
Q 544 4100 942 4425 
Q 1341 4750 2034 4750 
Q 2731 4750 3128 4425 
Q 3525 4100 3525 3541 
Q 3525 3141 3298 2862 
Q 3072 2584 2669 2484 
Q 3125 2378 3379 2068 
Q 3634 1759 3634 1313 
Q 3634 634 3220 271 
Q 2806 -91 2034 -91 
Q 1263 -91 848 271 
Q 434 634 434 1313 
Q 434 1759 690 2068 
Q 947 2378 1403 2484 
z
M 1172 3481 
Q 1172 3119 1398 2916 
Q 1625 2713 2034 2713 
Q 2441 2713 2670 2916 
Q 2900 3119 2900 3481 
Q 2900 3844 2670 4047 
Q 2441 4250 2034 4250 
Q 1625 4250 1398 4047 
Q 1172 3844 1172 3481 
z
" transform="scale(0.015625)"/>
       </defs>
       <use xlink:href="#DejaVuSans-30"/>
       <use xlink:href="#DejaVuSans-2e" x="63.623047"/>
       <use xlink:href="#DejaVuSans-38" x="95.410156"/>
      </g>
     </g>
    </g>
    <g id="ytick_6">
     <g id="line2d_12">
      <g>
       <use xlink:href="#me3c7ac3067" x="30.103125" y="17.063867" style="stroke: #000000; stroke-width: 0.8"/>
      </g>
     </g>
     <g id="text_12">
      <!-- 1.0 -->
      <g transform="translate(7.2 20.863086)scale(0.1 -0.1)">
       <use xlink:href="#DejaVuSans-31"/>
       <use xlink:href="#DejaVuSans-2e" x="63.623047"/>
       <use xlink:href="#DejaVuSans-30" x="95.410156"/>
      </g>
     </g>
    </g>
   </g>
   <g id="line2d_13">
    <path d="M 45.321307 214.756364 
L 45.321307 66.50676 
L 59.691304 66.388145 
L 61.16614 66.052068 
L 61.33756 65.913683 
L 63.67196 64.826374 
L 64.07646 64.66822 
L 64.468316 64.490297 
L 64.604427 64.351912 
L 64.829574 64.173989 
L 64.924262 64.015835 
L 65.198605 63.798373 
L 65.438579 63.62045 
L 65.858645 63.402988 
L 66.178326 63.225065 
L 67.052603 62.790142 
L 67.936241 62.177295 
L 68.405968 61.860987 
L 68.722794 61.623756 
L 68.931206 61.426063 
L 69.235531 61.24814 
L 69.729741 61.070217 
L 70.318946 60.73414 
L 70.448712 60.556216 
L 72.389861 59.014215 
L 72.635403 58.836292 
L 73.068619 58.519984 
L 73.244546 58.36183 
L 73.524577 58.104829 
L 73.773232 57.926906 
L 73.977257 57.729214 
L 74.566506 57.472213 
L 74.673893 57.353598 
L 75.085739 57.017521 
L 75.19303 56.898905 
L 75.415626 56.819828 
L 75.741696 56.661674 
L 75.823894 56.622136 
L 76.40553 56.305828 
L 76.520278 56.147674 
L 76.76698 55.96975 
L 77.12507 55.732519 
L 77.238882 55.613904 
L 77.411 55.475519 
L 77.678104 55.277827 
L 77.840634 55.17898 
L 78.229206 54.92198 
L 78.830179 54.605672 
L 79.357258 54.249826 
L 79.638479 54.052133 
L 80.197564 53.716056 
L 80.290552 53.636979 
L 80.746152 53.300902 
L 80.850571 53.221825 
L 81.415652 52.786901 
L 81.86128 52.628747 
L 82.029187 52.431055 
L 82.553228 52.055439 
L 82.643907 51.996131 
L 83.841161 51.403054 
L 83.966451 51.264669 
L 84.197833 51.086746 
L 85.040496 50.671592 
L 85.182664 50.572745 
L 85.975448 50.157591 
L 87.283297 49.010975 
L 87.862917 48.773744 
L 88.915953 48.160897 
L 89.186614 47.982974 
L 89.995354 47.528281 
L 90.259968 47.271281 
L 93.7453 45.17574 
L 93.910634 45.076894 
L 94.30025 44.780355 
L 94.41046 44.701278 
L 94.94668 44.38497 
L 95.186549 44.167508 
L 95.614741 43.969816 
L 96.071257 43.712816 
L 96.272133 43.574431 
L 96.360963 43.475585 
L 96.756954 43.238354 
L 97.063796 43.06043 
L 98.02454 42.704584 
L 98.213065 42.605738 
L 98.60067 42.467353 
L 98.82939 42.249891 
L 99.093355 42.071968 
L 101.09427 41.123044 
L 101.209358 41.024198 
L 101.720453 40.846274 
L 102.358804 40.411351 
L 102.833868 40.154351 
L 103.690944 39.64035 
L 103.892407 39.541504 
L 105.002102 39.027503 
L 105.159183 38.889119 
L 105.335536 38.691426 
L 105.612735 38.493734 
L 105.914687 38.355349 
L 106.003692 38.296041 
L 106.724848 38.039041 
L 106.916321 37.900656 
L 108.102944 37.347117 
L 108.411096 37.188963 
L 109.536282 36.615655 
L 109.700131 36.536578 
L 110.730252 36.121424 
L 111.525885 35.884193 
L 111.870193 35.666731 
L 112.05204 35.528346 
L 112.371116 35.370192 
L 112.533475 35.251577 
L 112.789216 35.113192 
L 112.945144 34.994577 
L 113.370838 34.796884 
L 113.487386 34.717807 
L 113.830946 34.658499 
L 115.2275 34.025883 
L 116.68 33.33396 
L 117.106395 33.156036 
L 120.22375 31.989651 
L 120.325952 31.890804 
L 122.125354 31.179111 
L 122.175026 31.139573 
L 123.268664 30.823265 
L 123.382337 30.763957 
L 125.27477 29.933649 
L 125.918889 29.775495 
L 129.394495 28.352109 
L 129.405987 28.332339 
L 130.433649 28.114878 
L 130.816747 27.976493 
L 131.326853 27.739262 
L 131.563217 27.600877 
L 132.018873 27.422954 
L 132.186917 27.343877 
L 133.769777 26.770569 
L 134.471811 26.572876 
L 134.479167 26.553107 
L 135.1429 26.394953 
L 136.046642 26.137953 
L 136.721378 25.861183 
L 138.822171 25.070413 
L 139.566413 24.89249 
L 141.529312 24.279643 
L 141.718315 24.121489 
L 142.699244 23.884258 
L 143.243719 23.745873 
L 143.560608 23.587719 
L 144.636427 23.449335 
L 145.465337 23.251642 
L 146.236054 23.093488 
L 148.753897 22.342257 
L 149.394219 22.203872 
L 149.510568 22.164334 
L 150.308099 22.025949 
L 158.269663 20.14787 
L 158.866239 19.989716 
L 158.994169 19.910639 
L 159.69251 19.732716 
L 161.407179 19.475716 
L 165.437855 18.684946 
L 166.60629 18.526792 
L 166.711649 18.487253 
L 167.493889 18.368638 
L 168.987379 18.190714 
L 169.022648 18.151176 
L 170.790442 17.894176 
L 172.064563 17.696483 
L 174.12868 17.538329 
L 179.785436 17.162713 
L 185.291132 17.083636 
L 185.291132 17.083636 
" clip-path="url(#pa131602f4c)" style="fill: none; stroke: #1f77b4; stroke-width: 1.5; stroke-linecap: square"/>
   </g>
   <g id="line2d_14">
    <path d="M 45.321307 214.756364 
L 45.321307 115.929885 
L 49.934422 115.811269 
L 50.409287 115.672884 
L 50.517209 115.633346 
L 50.665886 115.494961 
L 50.703135 115.435653 
L 51.011439 115.277499 
L 51.341757 114.901884 
L 51.685955 114.565806 
L 51.823357 114.348345 
L 52.001005 114.150652 
L 52.573192 113.577344 
L 53.156084 112.509804 
L 53.363311 112.312112 
L 53.489316 112.114419 
L 53.592495 111.976035 
L 53.734236 111.659727 
L 53.85083 111.521342 
L 53.968481 111.363188 
L 54.098306 111.205034 
L 54.212657 110.928264 
L 54.61413 110.315418 
L 54.743062 110.157264 
L 55.054849 109.702571 
L 55.232282 109.46534 
L 55.426636 109.18857 
L 55.804152 108.832724 
L 55.99003 108.378031 
L 56.10459 108.180339 
L 56.352423 107.824492 
L 56.561774 107.527954 
L 56.725229 107.330261 
L 56.857181 107.191876 
L 57.166631 106.697645 
L 57.348464 106.401106 
L 57.447752 106.282491 
L 57.617949 106.04526 
L 57.817316 105.630106 
L 59.599284 103.060103 
L 59.856469 102.684487 
L 60.150606 102.328641 
L 60.244992 102.210025 
L 60.418448 101.992564 
L 60.497633 101.83441 
L 60.72769 101.656486 
L 62.006611 99.857485 
L 62.140908 99.7191 
L 62.279932 99.541177 
L 62.670456 99.145792 
L 65.145885 95.923404 
L 65.324162 95.76525 
L 65.436416 95.547788 
L 65.615794 95.369865 
L 65.814189 95.251249 
L 65.995785 95.073326 
L 66.10246 94.934941 
L 66.199014 94.776787 
L 66.390269 94.519787 
L 66.487045 94.341864 
L 67.328271 93.333632 
L 67.439749 93.234786 
L 67.674888 92.898709 
L 68.022858 92.364939 
L 68.175353 92.147477 
L 68.431191 91.890477 
L 68.547527 91.791631 
L 68.90708 91.495092 
L 69.08623 91.317169 
L 70.953484 89.063474 
L 71.124359 88.92509 
L 71.252609 88.766936 
L 71.338585 88.589012 
L 72.830768 86.987703 
L 73.245426 86.493472 
L 73.464593 86.196933 
L 73.672448 86.01901 
L 74.294702 85.406163 
L 74.551977 85.208471 
L 74.625254 85.089855 
L 74.896628 84.911932 
L 75.053828 84.69447 
L 75.514924 84.061854 
L 75.943922 83.626931 
L 76.083329 83.508315 
L 76.223434 83.330392 
L 76.721233 82.895468 
L 76.821311 82.757084 
L 77.112837 82.519853 
L 77.215228 82.381468 
L 77.415584 82.144237 
L 77.778716 81.689544 
L 82.83987 76.589078 
L 83.060929 76.391385 
L 83.146018 76.253001 
L 83.508013 76.055308 
L 83.829738 75.798308 
L 83.965625 75.640154 
L 84.079459 75.501769 
L 84.346167 75.323846 
L 84.541647 75.145923 
L 85.347437 74.513307 
L 85.560745 74.315614 
L 88.317569 71.883996 
L 88.534398 71.745612 
L 88.687941 71.547919 
L 90.420222 70.025687 
L 90.534256 69.887302 
L 90.826472 69.709379 
L 91.048345 69.41284 
L 91.102335 69.373302 
L 91.491196 69.234917 
L 92.478932 68.562762 
L 92.943847 68.048762 
L 93.891258 67.416146 
L 94.020946 67.218453 
L 95.204242 66.447453 
L 95.299004 66.328837 
L 99.399614 62.987834 
L 100.760387 62.137756 
L 101.166251 61.702833 
L 101.361535 61.564448 
L 101.583074 61.366756 
L 103.105904 60.398062 
L 103.448267 60.121293 
L 103.854883 59.804985 
L 104.068903 59.607292 
L 104.172417 59.449138 
L 105.431142 58.559522 
L 105.771885 58.401368 
L 105.893247 58.282753 
L 105.997731 58.183906 
L 108.497204 56.345366 
L 108.554902 56.266289 
L 108.928241 56.068597 
L 109.094529 55.98952 
L 109.528067 55.791827 
L 109.535757 55.772058 
L 109.846043 55.633673 
L 110.438731 55.297596 
L 111.027993 54.823134 
L 111.147757 54.744057 
L 112.959825 53.933518 
L 113.425698 53.498594 
L 113.589715 53.34044 
L 113.813094 53.182286 
L 115.89318 51.877516 
L 116.011635 51.798439 
L 116.11545 51.739131 
L 116.519624 51.521669 
L 116.590135 51.442592 
L 117.009233 51.2449 
L 117.189605 51.146054 
L 117.917656 50.829746 
L 118.086843 50.671592 
L 118.495284 50.394822 
L 118.571324 50.256437 
L 119.473186 49.801745 
L 120.573703 49.109821 
L 120.630475 49.010975 
L 121.235505 48.773744 
L 121.60335 48.576051 
L 123.064618 47.706204 
L 124.796222 46.658434 
L 125.095141 46.520049 
L 125.158674 46.480511 
L 126.060824 46.203741 
L 127.02218 45.590894 
L 127.086657 45.511817 
L 127.695358 45.274586 
L 128.045842 45.136202 
L 128.355423 44.997817 
L 128.645824 44.780355 
L 129.304169 44.424509 
L 130.326659 43.732585 
L 130.812389 43.455815 
L 130.922068 43.376738 
L 131.361546 43.198815 
L 131.470175 43.099969 
L 131.916937 42.922046 
L 133.045607 42.625507 
L 133.203275 42.54643 
L 133.781813 42.26966 
L 134.289038 41.834737 
L 134.360362 41.735891 
L 134.703133 41.597506 
L 134.826301 41.518429 
L 135.219861 41.22189 
L 135.46693 41.063736 
L 135.780419 40.905582 
L 138.200808 40.035735 
L 138.380871 39.857812 
L 138.88711 39.699658 
L 139.430743 39.324042 
L 139.86227 39.185657 
L 140.667607 38.84958 
L 141.162327 38.671657 
L 142.856265 37.841348 
L 142.93606 37.80181 
L 145.127484 37.129656 
L 145.196147 36.971502 
L 145.703561 36.773809 
L 145.867106 36.615655 
L 146.175451 36.457501 
L 146.6727 36.240039 
L 147.023025 36.101655 
L 147.137161 36.042347 
L 148.296746 35.587654 
L 148.338127 35.528346 
L 148.919955 35.310885 
L 148.949338 35.271346 
L 149.412272 35.093423 
L 149.556019 34.994577 
L 149.807008 34.836423 
L 150.329584 34.599192 
L 152.139137 33.966576 
L 152.24847 33.907268 
L 152.891369 33.749114 
L 153.668912 33.531652 
L 153.798033 33.413037 
L 153.987705 33.294421 
L 154.512636 33.076959 
L 155.617025 32.464113 
L 156.521167 32.108266 
L 157.022718 31.969881 
L 157.455142 31.831497 
L 157.74246 31.75242 
L 158.188832 31.594266 
L 159.208979 31.21865 
L 159.458705 31.040727 
L 159.781962 30.981419 
L 160.32206 30.803496 
L 164.575108 29.10334 
L 165.164545 28.964955 
L 165.526283 28.925417 
L 167.048968 28.549801 
L 170.417288 27.403185 
L 170.499865 27.343877 
L 170.872543 27.165954 
L 170.970385 27.086877 
L 171.292821 26.948492 
L 171.97652 26.691492 
L 175.179697 25.801875 
L 175.833704 25.643721 
L 176.595275 25.446029 
L 177.018827 25.268106 
L 180.010717 24.418028 
L 180.503725 24.279643 
L 181.020452 24.121489 
L 182.208851 23.765643 
L 182.315394 23.686566 
L 183.034245 23.469104 
L 184.376245 23.271412 
L 185.019708 23.034181 
L 185.548096 22.79695 
L 187.590286 22.441103 
L 188.453266 22.223641 
L 189.569743 22.045718 
L 189.699859 21.98641 
L 190.521046 21.828256 
L 191.089915 21.72941 
L 191.533092 21.571256 
L 191.671568 21.492179 
L 191.846625 21.413102 
L 194.706086 20.740948 
L 194.709558 20.721178 
L 197.42159 20.246716 
L 197.59278 20.14787 
L 198.828852 19.989716 
L 199.281408 19.930408 
L 199.920558 19.752485 
L 199.998179 19.693177 
L 201.176105 19.515254 
L 201.391614 19.475716 
L 202.936816 19.238485 
L 202.951662 19.218715 
L 204.591622 19.060561 
L 206.465064 18.764023 
L 207.578888 18.605869 
L 207.731508 18.56633 
L 209.194905 18.427945 
L 211.862999 18.091868 
L 211.914154 18.05233 
L 216.483657 17.51856 
L 225.140371 17.162713 
L 237.827982 17.083636 
L 237.827982 17.083636 
" clip-path="url(#pa131602f4c)" style="fill: none; stroke: #ff7f0e; stroke-width: 1.5; stroke-linecap: square"/>
   </g>
   <g id="line2d_15">
    <path d="M 45.321307 214.756364 
L 45.321307 165.353009 
L 46.256749 165.234393 
L 46.434133 165.016932 
L 46.781015 164.048238 
L 46.896867 163.613315 
L 47.885046 159.956004 
L 47.995691 159.422234 
L 50.08254 152.819304 
L 50.155214 152.601843 
L 50.24674 152.344842 
L 50.366377 151.909919 
L 50.649111 151.178457 
L 50.786808 150.862149 
L 51.116817 149.873686 
L 51.474588 148.964301 
L 51.63983 148.331685 
L 51.739648 148.015377 
L 51.971676 147.362992 
L 52.141921 146.928068 
L 52.281037 146.572222 
L 52.53677 146.07799 
L 52.926797 145.049989 
L 53.20705 144.417373 
L 53.323611 144.081296 
L 53.486713 143.685911 
L 53.762125 142.91491 
L 53.900397 142.638141 
L 54.009328 142.40091 
L 54.220219 141.946217 
L 54.67195 140.918216 
L 54.907088 140.423985 
L 54.9956 140.2856 
L 55.212036 139.554138 
L 55.51004 138.921522 
L 56.454732 137.003905 
L 56.598517 136.746905 
L 56.717723 136.311981 
L 56.997248 135.936365 
L 57.130077 135.778211 
L 57.394118 135.244442 
L 57.543738 134.809518 
L 59.081363 131.765054 
L 59.223188 131.567361 
L 59.369097 131.231284 
L 59.554718 130.934745 
L 59.773268 130.460283 
L 59.88348 130.321898 
L 61.358984 127.613511 
L 61.490574 127.237895 
L 61.686574 126.961126 
L 62.110862 126.387818 
L 62.235416 126.269202 
L 62.416279 126.012202 
L 62.570172 125.814509 
L 62.774249 125.498201 
L 62.903106 125.28074 
L 63.559603 123.995738 
L 63.761199 123.600353 
L 64.457841 122.394429 
L 64.645611 122.216506 
L 64.818569 121.919967 
L 64.909926 121.742044 
L 65.045265 121.504813 
L 65.538729 120.891966 
L 68.775957 115.890346 
L 68.902645 115.732192 
L 69.123071 115.435653 
L 70.183602 114.012267 
L 70.318662 113.873883 
L 71.302037 112.490035 
L 71.427468 112.331881 
L 71.769569 111.857419 
L 71.993066 111.521342 
L 72.23255 111.244572 
L 72.337021 111.04688 
L 72.548643 110.809649 
L 72.78231 110.473572 
L 73.005944 110.196802 
L 73.13386 109.99911 
L 73.451958 109.623494 
L 73.780133 109.18857 
L 74.000954 108.892032 
L 74.214092 108.694339 
L 74.353917 108.555955 
L 74.784257 107.962877 
L 74.985224 107.6268 
L 75.320036 107.211646 
L 75.4511 107.013953 
L 75.551494 106.855799 
L 76.214169 106.262722 
L 76.392958 106.04526 
L 76.868754 105.313798 
L 77.249967 104.918413 
L 77.368808 104.700951 
L 77.527067 104.503258 
L 77.836143 104.147412 
L 78.082809 103.890412 
L 78.271671 103.692719 
L 78.563578 103.435719 
L 78.676502 103.317103 
L 78.914376 103.079872 
L 79.359848 102.486795 
L 79.470967 102.328641 
L 79.621078 102.150718 
L 80.905035 100.707562 
L 81.136039 100.470331 
L 83.868427 97.307251 
L 83.993464 97.129328 
L 84.163066 96.931636 
L 84.390302 96.674635 
L 84.731516 96.259481 
L 84.837406 96.140866 
L 85.111864 95.943173 
L 85.214018 95.76525 
L 85.505806 95.48848 
L 86.019132 94.875634 
L 86.389136 94.677941 
L 86.496423 94.579095 
L 86.631872 94.381403 
L 87.0309 93.966248 
L 87.166494 93.709248 
L 88.22395 92.562632 
L 88.35284 92.444016 
L 88.659236 92.187016 
L 88.759601 92.107939 
L 88.880717 91.930016 
L 89.091271 91.613708 
L 89.340886 91.455554 
L 89.516528 91.27763 
L 89.733498 90.981092 
L 89.880282 90.803168 
L 90.751602 90.091475 
L 90.858672 89.992629 
L 91.161392 89.794937 
L 91.547163 89.379782 
L 91.777133 89.18209 
L 91.960568 89.023936 
L 92.095116 88.826243 
L 92.274777 88.668089 
L 92.529994 88.470397 
L 92.752593 88.252935 
L 92.855801 88.11455 
L 93.155856 87.85755 
L 94.159744 86.849318 
L 94.389179 86.691164 
L 94.662093 86.394626 
L 94.779774 86.216702 
L 94.957628 86.01901 
L 95.164007 85.821317 
L 95.278324 85.682933 
L 95.34617 85.623625 
L 95.593274 85.48524 
L 95.899583 85.089855 
L 96.071188 84.931701 
L 96.319963 84.714239 
L 96.896362 84.220008 
L 99.514252 82.045391 
L 99.777253 81.887237 
L 100.353803 81.215082 
L 100.467293 81.037159 
L 100.598143 80.977851 
L 100.864888 80.780159 
L 101.428041 80.187081 
L 101.762231 80.028927 
L 101.832147 79.851004 
L 102.057275 79.712619 
L 102.679394 79.257927 
L 102.921577 79.119542 
L 103.199236 78.921849 
L 103.668035 78.585772 
L 104.361905 77.972925 
L 104.473883 77.814771 
L 104.561561 77.676387 
L 104.850601 77.478694 
L 104.967369 77.32054 
L 105.13997 77.122848 
L 105.285934 77.083309 
L 105.757096 76.727463 
L 106.046908 76.391385 
L 106.237385 76.233231 
L 106.476717 75.996 
L 106.839228 75.778539 
L 106.950739 75.679692 
L 107.500597 75.442461 
L 107.748595 75.086615 
L 108.048347 74.790076 
L 108.161588 74.710999 
L 108.420058 74.572614 
L 108.525089 74.493537 
L 109.378136 73.959768 
L 109.475661 73.801614 
L 109.66182 73.663229 
L 109.971286 73.505075 
L 110.271191 73.188767 
L 111.311966 72.556151 
L 111.472619 72.397997 
L 111.704598 72.259612 
L 111.765586 72.180535 
L 112.009946 72.04215 
L 112.164256 71.844458 
L 112.60941 71.488611 
L 112.952337 71.211842 
L 113.054675 71.073457 
L 113.351322 70.836226 
L 113.61576 70.658303 
L 114.577831 70.005918 
L 115.195162 69.393071 
L 115.555798 69.215148 
L 118.592694 66.921915 
L 118.945892 66.78353 
L 119.279387 66.566068 
L 119.706927 66.210222 
L 119.768056 66.111376 
L 119.957296 65.953222 
L 120.515507 65.636914 
L 120.614169 65.518298 
L 121.774636 64.806605 
L 121.924428 64.747297 
L 122.225968 64.510066 
L 122.368482 64.371682 
L 122.754337 64.094912 
L 122.869536 63.996066 
L 123.346916 63.818143 
L 123.496987 63.679758 
L 123.680016 63.462296 
L 123.934359 63.284373 
L 124.036074 63.225065 
L 124.305189 63.066911 
L 125.184972 62.414526 
L 125.362238 62.216833 
L 125.910087 62.058679 
L 127.07309 61.485371 
L 127.214039 61.327217 
L 127.562515 61.030678 
L 127.699336 60.912063 
L 128.128039 60.595755 
L 128.21885 60.536447 
L 128.586426 60.378293 
L 130.115354 59.4096 
L 130.212166 59.330523 
L 130.560427 59.113061 
L 130.69689 59.014215 
L 130.849903 58.87583 
L 131.504786 58.519984 
L 131.562482 58.440907 
L 131.90299 58.282753 
L 133.502139 57.155905 
L 133.853336 56.977982 
L 133.954755 56.898905 
L 134.373655 56.701213 
L 136.574861 55.515058 
L 136.842474 55.277827 
L 137.339403 55.060365 
L 137.448647 55.020826 
L 138.240508 54.605672 
L 138.436519 54.506826 
L 138.722636 54.348672 
L 138.865176 54.190518 
L 139.743738 53.498594 
L 140.035052 53.34044 
L 142.990712 51.877516 
L 143.163773 51.77867 
L 143.465195 51.600746 
L 143.485243 51.521669 
L 143.876 51.363515 
L 144.089588 51.165823 
L 144.815298 50.790207 
L 145.261328 50.434361 
L 145.551901 50.216899 
L 145.899522 50.058745 
L 146.349662 49.801745 
L 146.785378 49.643591 
L 147.165653 49.445898 
L 147.999439 49.070282 
L 148.105979 49.010975 
L 148.672623 48.61559 
L 148.780852 48.576051 
L 149.367922 48.279512 
L 149.502853 48.160897 
L 150.145553 47.80505 
L 150.585511 47.646896 
L 160.712643 42.506891 
L 160.879075 42.388276 
L 162.005762 42.071968 
L 162.401021 41.933583 
L 162.876187 41.676583 
L 163.364544 41.49866 
L 165.631542 40.510197 
L 165.675372 40.43112 
L 166.248383 40.253197 
L 166.902921 40.035735 
L 167.039055 39.91712 
L 167.340581 39.778735 
L 167.71637 39.620581 
L 168.066231 39.462427 
L 168.451484 39.284504 
L 169.479201 38.84958 
L 170.034521 38.671657 
L 170.043001 38.651888 
L 170.445357 38.493734 
L 170.753751 38.31581 
L 171.459201 38.019272 
L 171.463876 37.999502 
L 171.994341 37.821579 
L 172.904569 37.307579 
L 173.331691 37.090117 
L 173.506698 36.951732 
L 174.333165 36.714501 
L 175.043729 36.556347 
L 175.202418 36.49704 
L 175.69668 36.338886 
L 175.706368 36.299347 
L 176.469725 36.062116 
L 176.861276 35.824885 
L 177.301518 35.587654 
L 177.357301 35.488808 
L 178.126465 35.271346 
L 178.203066 35.152731 
L 178.688472 34.974807 
L 178.814626 34.89573 
L 179.275039 34.698038 
L 179.45375 34.618961 
L 179.955593 34.441038 
L 180.520413 34.184037 
L 180.658869 34.085191 
L 181.379345 33.887499 
L 181.969875 33.749114 
L 181.983526 33.729345 
L 182.575109 33.571191 
L 182.929667 33.393267 
L 184.845544 32.80019 
L 185.271887 32.622267 
L 185.557799 32.54319 
L 186.210375 32.305959 
L 187.010238 31.772189 
L 187.941675 31.416342 
L 188.074309 31.357035 
L 188.488373 31.198881 
L 188.689644 31.080265 
L 189.496406 30.862803 
L 189.909107 30.724419 
L 190.750707 30.566265 
L 191.025346 30.447649 
L 191.820751 30.309264 
L 192.502205 30.15111 
L 192.826718 29.953418 
L 193.22225 29.795264 
L 193.298096 29.755725 
L 194.817967 29.320802 
L 195.494987 29.063802 
L 196.070637 28.925417 
L 196.075385 28.885878 
L 196.821584 28.668417 
L 196.9186 28.609109 
L 197.354596 28.470724 
L 197.63058 28.431186 
L 200.447342 27.581108 
L 201.105067 27.363646 
L 201.284563 27.284569 
L 201.730175 27.165954 
L 202.352144 27.027569 
L 203.130383 26.671722 
L 204.137543 26.454261 
L 204.598825 26.315876 
L 207.303035 25.762337 
L 208.304554 25.465798 
L 209.77368 24.872721 
L 210.598323 24.714567 
L 210.974105 24.595951 
L 211.670397 24.398259 
L 211.88117 24.338951 
L 212.5799 24.141258 
L 212.716188 24.062181 
L 215.276692 23.488873 
L 215.282231 23.469104 
L 216.77345 23.192335 
L 216.83253 23.133027 
L 218.029946 22.856257 
L 218.860833 22.698103 
L 219.829136 22.362026 
L 221.02804 22.144564 
L 221.112556 22.105026 
L 221.994095 21.927103 
L 222.836926 21.670102 
L 222.849017 21.650333 
L 225.291643 21.334025 
L 225.586152 21.19564 
L 227.389874 20.997948 
L 228.649223 20.760717 
L 228.783337 20.661871 
L 229.358494 20.543255 
L 230.362564 20.325793 
L 230.504207 20.286255 
L 242.31684 18.131407 
L 245.124227 17.913945 
L 248.656438 17.656945 
L 250.771744 17.51856 
L 254.348296 17.24179 
L 263.693296 17.083636 
L 263.693296 17.083636 
" clip-path="url(#pa131602f4c)" style="fill: none; stroke: #2ca02c; stroke-width: 1.5; stroke-linecap: square"/>
   </g>
   <g id="line2d_16">
    <path d="M 45.321307 214.756364 
L 45.433523 208.924435 
L 45.552913 206.492817 
L 45.670242 204.5752 
L 46.655189 195.402268 
L 46.712716 195.08596 
L 46.902419 193.820728 
L 47.300666 191.507726 
L 47.372316 191.230957 
L 47.49069 190.440187 
L 47.527807 190.222725 
L 47.963014 187.771338 
L 48.041364 187.415491 
L 48.338851 186.110721 
L 48.517677 185.399028 
L 48.672094 184.746643 
L 48.784892 184.29195 
L 48.970307 183.422103 
L 49.411488 181.702178 
L 49.587126 181.010254 
L 49.813363 180.0811 
L 50.080536 179.01356 
L 50.218481 178.578637 
L 50.493392 177.530867 
L 50.573452 177.293636 
L 50.738044 176.740097 
L 51.017547 175.87025 
L 51.147826 175.257403 
L 51.235303 175.039941 
L 51.326797 174.763172 
L 51.880031 172.983939 
L 51.95252 172.766477 
L 52.595369 170.868629 
L 52.655221 170.690706 
L 52.923576 170.077859 
L 53.001773 169.899936 
L 53.110976 169.465013 
L 53.176338 169.247551 
L 53.38674 168.496319 
L 53.650148 167.94278 
L 53.861323 167.389241 
L 53.977914 166.993856 
L 54.281905 166.163548 
L 54.396015 165.965855 
L 54.847643 164.680854 
L 54.989105 164.364546 
L 55.126937 163.988931 
L 55.221997 163.73193 
L 55.337668 163.514469 
L 55.537144 162.822545 
L 55.63269 162.703929 
L 55.746509 162.506237 
L 55.867925 162.17016 
L 56.045441 161.675928 
L 56.161721 161.300313 
L 56.275271 161.142159 
L 56.411747 160.647927 
L 56.597604 160.193235 
L 56.675839 160.035081 
L 56.824417 159.679234 
L 57.095445 158.98731 
L 57.98431 157.227847 
L 58.098897 156.911539 
L 58.420291 156.318462 
L 58.506778 156.160308 
L 62.276301 148.272377 
L 62.40085 148.094454 
L 62.589958 147.778146 
L 62.70837 147.540915 
L 62.910705 147.125761 
L 63.212474 146.532683 
L 63.340274 146.334991 
L 63.537762 145.880298 
L 63.645838 145.603528 
L 63.782863 145.326759 
L 63.91634 145.109297 
L 64.110102 144.872066 
L 64.302434 144.51622 
L 64.438861 144.23945 
L 64.904419 143.44868 
L 65.058656 143.270757 
L 65.351714 142.519525 
L 65.487412 142.381141 
L 65.729768 141.965986 
L 65.987423 141.550832 
L 66.844546 140.246062 
L 66.945046 140.048369 
L 67.03721 139.830907 
L 67.569752 138.941291 
L 67.668902 138.70406 
L 67.800877 138.545906 
L 67.91595 138.407521 
L 68.62985 137.162059 
L 68.746923 136.944597 
L 68.96861 136.568981 
L 69.046914 136.430597 
L 69.19031 136.153827 
L 69.259244 135.956135 
L 69.503332 135.54098 
L 69.65496 135.343288 
L 70.009901 134.868826 
L 70.39311 134.354825 
L 71.621398 132.516285 
L 71.753009 132.298823 
L 71.932774 132.101131 
L 72.063394 131.942977 
L 72.333476 131.547592 
L 72.483953 131.369669 
L 72.576311 131.211515 
L 72.710676 130.994053 
L 72.882606 130.638206 
L 73.160814 130.440514 
L 73.281151 130.302129 
L 73.463693 130.045129 
L 73.568093 129.847436 
L 73.692787 129.590436 
L 73.735018 129.511359 
L 73.913407 129.372974 
L 74.130712 128.898512 
L 74.255161 128.720589 
L 74.503814 128.42405 
L 74.636304 128.305435 
L 75.233984 127.554203 
L 75.334786 127.356511 
L 75.478672 127.158818 
L 75.653445 126.743664 
L 75.870328 126.407587 
L 75.982026 126.249433 
L 76.133361 126.05174 
L 76.239199 125.893586 
L 76.421698 125.715663 
L 76.565333 125.597048 
L 76.930487 125.102816 
L 77.308856 124.608585 
L 77.44902 124.450431 
L 78.059231 123.541046 
L 78.306135 123.323584 
L 78.514368 123.027045 
L 78.844443 122.592122 
L 79.036425 122.414199 
L 79.997999 120.931505 
L 80.291453 120.79312 
L 80.428811 120.53612 
L 81.350994 119.270888 
L 81.483319 119.132503 
L 81.671385 118.934811 
L 83.410872 116.681116 
L 83.758176 116.364808 
L 83.848355 116.285731 
L 84.038042 116.068269 
L 84.163246 115.870577 
L 84.647628 115.376346 
L 84.873365 115.060038 
L 85.357361 114.486729 
L 85.465099 114.328575 
L 86.064905 113.755267 
L 86.807036 112.826112 
L 87.077772 112.569112 
L 87.383286 112.173727 
L 87.593538 111.916727 
L 87.707083 111.738804 
L 88.754482 110.651495 
L 89.149125 110.315418 
L 89.33168 110.078187 
L 89.525773 109.900263 
L 89.663393 109.702571 
L 93.661384 105.294028 
L 93.770024 105.214951 
L 94.336613 104.602105 
L 94.438415 104.443951 
L 94.826545 104.20672 
L 95.058247 104.028796 
L 95.526243 103.633411 
L 95.618672 103.514796 
L 95.809937 103.297334 
L 95.934041 103.198488 
L 96.051718 103.020565 
L 96.187281 102.88218 
L 97.671033 101.419255 
L 97.834801 101.221563 
L 97.957911 101.083178 
L 98.191362 100.885486 
L 98.452895 100.569178 
L 98.556649 100.470331 
L 98.81384 100.2331 
L 98.935755 100.055177 
L 99.631052 99.323715 
L 100.072626 98.908561 
L 100.523304 98.355022 
L 100.884682 98.038714 
L 101.215907 97.88056 
L 101.276842 97.801483 
L 101.505534 97.643329 
L 102.823644 96.29902 
L 103.379779 95.824558 
L 103.45472 95.76525 
L 103.731936 95.567557 
L 111.341432 89.004167 
L 111.565208 88.865782 
L 112.917572 87.738935 
L 113.029985 87.60055 
L 113.487318 87.224934 
L 113.635692 86.908626 
L 113.812496 86.730703 
L 113.99276 86.612087 
L 114.885879 86.078318 
L 116.117726 84.931701 
L 116.467932 84.714239 
L 116.681315 84.516547 
L 117.099437 84.1607 
L 117.171113 84.101393 
L 117.386628 83.963008 
L 117.530507 83.9037 
L 117.733881 83.706008 
L 117.848562 83.567623 
L 118.268085 83.192007 
L 118.424025 83.033853 
L 118.690195 82.816391 
L 119.398765 82.361699 
L 120.204313 81.630236 
L 120.351368 81.551159 
L 120.581143 81.373236 
L 120.812903 81.136005 
L 121.103883 80.839466 
L 121.412493 80.641774 
L 121.528097 80.523158 
L 121.754176 80.345235 
L 121.894435 80.266158 
L 123.87274 78.90208 
L 124.030069 78.684618 
L 124.504307 78.486926 
L 130.223662 74.196999 
L 130.566165 73.999306 
L 131.408904 73.267844 
L 131.520954 73.188767 
L 132.185876 72.793382 
L 132.283529 72.734074 
L 132.610829 72.57592 
L 133.481488 71.982843 
L 133.607909 71.883996 
L 133.816237 71.686304 
L 134.010904 71.488611 
L 134.821659 70.855995 
L 135.223667 70.697841 
L 135.392629 70.559457 
L 135.651456 70.302456 
L 135.755126 70.243149 
L 136.197786 69.966379 
L 136.378191 69.847764 
L 137.224124 69.294225 
L 137.564752 69.116301 
L 137.756888 68.938378 
L 137.890149 68.819763 
L 138.20543 68.62207 
L 138.772639 68.246454 
L 139.15594 68.068531 
L 139.267049 67.930146 
L 140.381223 67.376607 
L 140.530946 67.238223 
L 140.870521 66.981222 
L 141.012283 66.842838 
L 141.618983 66.585837 
L 141.846708 66.328837 
L 142.269886 66.170683 
L 142.770089 65.874145 
L 143.319844 65.498529 
L 143.40867 65.340375 
L 144.114671 64.846144 
L 144.128911 64.806605 
L 144.621018 64.628682 
L 145.382475 63.996066 
L 145.772365 63.798373 
L 145.906043 63.699527 
L 146.251552 63.541373 
L 146.81343 63.244834 
L 146.936564 63.165757 
L 147.531923 62.849449 
L 147.733333 62.711065 
L 148.008021 62.533141 
L 148.110337 62.473834 
L 149.096423 61.900525 
L 149.580334 61.465602 
L 150.055924 61.267909 
L 150.112778 61.188832 
L 150.569276 60.99114 
L 150.605744 60.951601 
L 150.927834 60.793447 
L 151.318882 60.595755 
L 151.463617 60.477139 
L 152.041723 60.081754 
L 153.200356 59.488677 
L 153.304843 59.370061 
L 154.00532 59.13283 
L 154.65909 58.737445 
L 155.0913 58.579291 
L 155.671435 58.203676 
L 156.044538 57.907137 
L 156.750113 57.432675 
L 157.026563 57.274521 
L 157.109399 57.195444 
L 157.525084 56.958213 
L 157.646193 56.918674 
L 158.202161 56.661674 
L 158.257812 56.622136 
L 158.829154 56.345366 
L 158.88772 56.266289 
L 159.459764 56.048827 
L 159.649046 55.930212 
L 159.986084 55.71275 
L 160.152788 55.594135 
L 160.554364 55.337134 
L 161.526881 54.862672 
L 161.972262 54.684749 
L 162.627079 54.328903 
L 162.775446 54.111441 
L 163.014903 53.953287 
L 163.333492 53.676517 
L 163.919074 53.518363 
L 164.004874 53.439286 
L 164.427219 53.241594 
L 165.082583 52.925286 
L 165.193944 52.786901 
L 165.697148 52.628747 
L 165.70311 52.589209 
L 166.132997 52.450824 
L 166.616552 52.094977 
L 167.001071 51.917054 
L 167.277114 51.818208 
L 167.861783 51.521669 
L 168.10237 51.422823 
L 168.436 51.264669 
L 168.535023 51.205361 
L 168.705578 51.066977 
L 168.846336 50.9879 
L 173.310832 48.892359 
L 173.440041 48.773744 
L 173.713919 48.576051 
L 173.974229 48.437666 
L 174.329481 48.239974 
L 174.462248 48.180666 
L 175.004847 47.864358 
L 175.20198 47.745743 
L 176.00906 47.468973 
L 176.453717 47.251511 
L 176.525858 47.211973 
L 176.98341 46.974742 
L 179.679874 45.788587 
L 179.908988 45.650202 
L 180.105632 45.492048 
L 181.008426 45.116432 
L 181.083308 45.037355 
L 181.743712 44.819894 
L 182.104582 44.681509 
L 182.883955 44.226816 
L 183.41285 44.068662 
L 183.998762 43.811662 
L 184.119088 43.712816 
L 184.411815 43.554662 
L 186.22732 42.763892 
L 186.466536 42.645276 
L 187.162816 42.388276 
L 187.75323 42.111506 
L 187.84752 42.071968 
L 188.292175 41.834737 
L 188.403247 41.75566 
L 189.216035 41.439352 
L 190.05023 41.241659 
L 190.115009 41.162582 
L 190.897931 40.905582 
L 191.356675 40.747428 
L 191.524277 40.70789 
L 192.932236 40.114812 
L 192.956984 40.055504 
L 194.16956 39.679889 
L 194.363212 39.521735 
L 195.616301 38.889119 
L 196.048222 38.651888 
L 196.245188 38.513503 
L 199.318178 37.54481 
L 199.880633 37.366887 
L 199.991888 37.26804 
L 201.308636 36.714501 
L 201.310293 36.694732 
L 201.804246 36.49704 
L 202.992671 36.121424 
L 203.059168 36.042347 
L 204.036071 35.745808 
L 204.103612 35.666731 
L 204.93155 35.469039 
L 205.772469 35.093423 
L 205.776227 35.053884 
L 206.213005 34.875961 
L 206.436725 34.757346 
L 207.315936 34.480576 
L 207.421196 34.441038 
L 208.63419 34.10496 
L 208.856327 33.946806 
L 209.404463 33.749114 
L 209.495792 33.709575 
L 209.880779 33.551421 
L 209.991594 33.472344 
L 216.292321 31.534958 
L 216.447991 31.416342 
L 217.83396 31.139573 
L 217.919064 31.020957 
L 218.437657 30.823265 
L 219.213853 30.605803 
L 219.524697 30.506957 
L 220.07834 30.368572 
L 220.264542 30.269726 
L 220.843152 30.072033 
L 223.097775 29.320802 
L 224.8252 28.984725 
L 225.177566 28.787032 
L 225.294832 28.707955 
L 226.49152 28.450955 
L 226.70955 28.371878 
L 228.110309 27.976493 
L 228.199335 27.877647 
L 229.755129 27.363646 
L 231.351142 26.829876 
L 232.034662 26.671722 
L 232.101498 26.612415 
L 232.521058 26.47403 
L 232.593887 26.414722 
L 243.746188 23.745873 
L 244.388745 23.587719 
L 244.640701 23.449335 
L 245.682676 23.271412 
L 246.057923 23.05395 
L 247.130862 22.876027 
L 247.206998 22.836488 
L 248.398455 22.539949 
L 248.465769 22.480642 
L 250.860989 22.065487 
L 251.204418 21.946872 
L 252.776076 21.709641 
L 253.525265 21.591025 
L 253.591631 21.551487 
L 254.357664 21.334025 
L 255.23161 21.096794 
L 256.180376 20.93864 
L 256.313021 20.879332 
L 260.315726 20.207178 
L 262.029188 20.029255 
L 262.119798 19.989716 
L 263.778683 19.6141 
L 265.95007 19.258254 
L 268.589351 18.82333 
L 281.701198 17.360406 
L 297.237271 17.083636 
L 297.237271 17.083636 
" clip-path="url(#pa131602f4c)" style="fill: none; stroke: #d62728; stroke-width: 1.5; stroke-linecap: square"/>
   </g>
   <g id="line2d_17">
    <path d="M 45.877776 214.756364 
L 46.052585 214.59821 
L 46.153019 214.440056 
L 46.23734 214.222594 
L 46.335037 213.827209 
L 46.401701 213.609747 
L 46.544077 213.174824 
L 46.594216 212.937593 
L 46.979684 211.138591 
L 47.0468 210.842052 
L 47.495171 208.548819 
L 47.624207 208.133665 
L 47.894063 206.848664 
L 48.051591 206.057894 
L 48.117205 205.860201 
L 49.471311 200.285273 
L 49.556917 200.048042 
L 49.675974 199.652657 
L 49.877942 199.020041 
L 50.013235 198.545579 
L 50.513669 196.687269 
L 50.796656 195.659268 
L 50.976935 195.244114 
L 51.08055 194.987114 
L 51.210433 194.374267 
L 51.335914 193.939344 
L 51.402812 193.761421 
L 51.505102 193.366036 
L 51.567472 193.128805 
L 51.722268 192.693881 
L 51.885426 192.100804 
L 52.136818 191.40888 
L 52.213302 191.211187 
L 52.330561 190.954187 
L 52.466906 190.657648 
L 52.644101 190.123879 
L 53.049316 188.898185 
L 53.25252 188.265569 
L 54.121655 185.695567 
L 54.249074 185.359489 
L 54.360452 185.023412 
L 56.787534 179.01356 
L 56.935642 178.75656 
L 57.142151 178.183252 
L 57.226519 178.025098 
L 57.387025 177.550636 
L 57.541601 177.313405 
L 57.64224 176.937789 
L 57.766905 176.66102 
L 57.915799 176.324942 
L 58.109056 175.988865 
L 58.229103 175.731865 
L 58.858317 174.110786 
L 59.14374 173.418863 
L 59.26381 173.201401 
L 59.374528 172.96417 
L 59.696761 172.390862 
L 59.828 172.153631 
L 60.077082 171.679169 
L 60.438031 170.908168 
L 60.545278 170.611629 
L 63.56877 164.720393 
L 63.701977 164.54247 
L 63.8468 164.186623 
L 64.228784 163.494699 
L 64.347321 163.178391 
L 64.496068 162.96093 
L 64.635325 162.723699 
L 65.342295 161.181697 
L 65.478276 161.023543 
L 66.135237 159.718773 
L 66.290334 159.461772 
L 66.680839 158.947772 
L 66.821949 158.611695 
L 67.00944 158.334925 
L 69.995349 153.412382 
L 70.110457 153.273997 
L 70.612653 152.423919 
L 70.758527 152.206458 
L 72.19235 149.992302 
L 72.32433 149.794609 
L 73.803491 147.303684 
L 73.942524 147.066453 
L 74.05412 146.809453 
L 74.488892 146.196606 
L 75.033702 145.465144 
L 75.112102 145.30699 
L 75.241643 145.109297 
L 75.974524 144.298758 
L 76.12122 144.120835 
L 77.85602 141.392678 
L 78.450757 140.700754 
L 78.551578 140.503062 
L 78.635515 140.344908 
L 79.033567 139.791369 
L 79.157939 139.593676 
L 79.461696 139.297138 
L 79.588482 139.158753 
L 79.797741 138.842445 
L 79.904503 138.723829 
L 80.282168 138.348214 
L 80.398149 138.19006 
L 80.685193 137.735367 
L 80.836823 137.498136 
L 80.978215 137.320213 
L 81.082159 137.201597 
L 81.237792 137.043443 
L 81.354028 136.825982 
L 81.472881 136.60852 
L 81.650734 136.35152 
L 81.882836 136.054981 
L 82.028956 135.936365 
L 82.173923 135.778211 
L 82.357223 135.620057 
L 82.573594 135.323519 
L 82.688096 135.046749 
L 82.951954 134.809518 
L 83.856075 133.741979 
L 84.18323 133.287286 
L 84.454645 133.109363 
L 84.753119 132.713978 
L 84.871599 132.456977 
L 85.166999 132.081362 
L 85.480306 131.765054 
L 85.582698 131.646438 
L 85.773636 131.389438 
L 85.875251 131.092899 
L 86.630784 130.420745 
L 87.062039 129.709052 
L 87.446106 129.254359 
L 87.976383 128.483358 
L 88.169194 128.265896 
L 88.497629 127.870511 
L 88.799525 127.494896 
L 89.039478 127.198357 
L 89.21825 127.059972 
L 89.45971 126.723895 
L 94.207577 121.386198 
L 94.405136 121.228044 
L 97.883292 117.353271 
L 98.038504 117.195117 
L 102.433963 112.667958 
L 102.525257 112.608651 
L 102.812773 112.410958 
L 102.87652 112.35165 
L 103.10839 112.153958 
L 103.701555 111.462034 
L 103.953777 111.30388 
L 104.066092 111.185265 
L 104.298016 110.908495 
L 104.516283 110.572418 
L 104.787975 110.374725 
L 107.33819 107.864031 
L 107.567902 107.666338 
L 108.626618 106.974415 
L 108.717037 106.875568 
L 108.990278 106.717414 
L 110.961133 104.938182 
L 111.050665 104.799797 
L 111.453433 104.443951 
L 111.523661 104.285797 
L 111.769506 104.088104 
L 112.586895 103.317103 
L 112.786111 103.119411 
L 112.916442 103.020565 
L 113.199365 102.763564 
L 113.297731 102.664718 
L 113.519732 102.447256 
L 113.628993 102.289102 
L 118.595253 97.999175 
L 118.759073 97.841021 
L 120.240146 96.595558 
L 120.579496 96.417635 
L 120.796016 96.239712 
L 121.200516 95.785019 
L 121.337282 95.705942 
L 121.544855 95.567557 
L 121.810873 95.350096 
L 121.883115 95.310557 
L 122.206596 95.053557 
L 122.475653 94.757018 
L 122.867431 94.46048 
L 123.122989 94.262787 
L 123.633565 93.906941 
L 123.785901 93.709248 
L 127.380992 90.822938 
L 127.84955 90.427553 
L 128.773913 89.735629 
L 128.887575 89.656552 
L 129.260105 89.419321 
L 129.480809 89.221628 
L 129.740801 89.004167 
L 130.022107 88.747166 
L 130.303091 88.549474 
L 130.436226 88.39132 
L 130.668317 88.213397 
L 130.929807 87.877319 
L 131.307287 87.679627 
L 131.427607 87.501704 
L 131.916848 87.264473 
L 132.448179 86.849318 
L 132.741211 86.631857 
L 132.825157 86.493472 
L 133.158371 86.27601 
L 133.2724 86.137625 
L 133.482724 86.01901 
L 133.81882 85.781779 
L 134.022626 85.564317 
L 135.79537 84.239777 
L 135.977444 84.061854 
L 136.544368 83.725777 
L 136.587782 83.686238 
L 137.033047 83.508315 
L 137.335844 83.290853 
L 137.461347 83.152469 
L 137.73616 82.974545 
L 137.832388 82.875699 
L 137.985939 82.737314 
L 138.180118 82.618699 
L 138.46077 82.401237 
L 138.561563 82.32216 
L 138.804812 82.183775 
L 138.893757 82.045391 
L 139.975296 81.353467 
L 140.770401 80.859236 
L 141.078067 80.701082 
L 141.13504 80.641774 
L 141.708808 80.365005 
L 142.182091 79.96962 
L 142.253686 79.851004 
L 142.533326 79.69285 
L 142.533717 79.673081 
L 142.86466 79.514927 
L 143.069079 79.317234 
L 143.186249 79.257927 
L 143.316913 79.080003 
L 143.586762 78.90208 
L 143.755147 78.763695 
L 143.990007 78.605541 
L 144.053561 78.546234 
L 144.490759 78.38808 
L 144.6172 78.229926 
L 145.286989 77.735694 
L 145.303345 77.696156 
L 145.74547 77.518233 
L 145.873937 77.379848 
L 146.572175 77.06354 
L 146.749517 76.865847 
L 146.894824 76.747232 
L 147.516046 76.430924 
L 147.63686 76.312308 
L 148.073687 76.055308 
L 148.230806 75.916923 
L 148.874145 75.659923 
L 149.083038 75.422692 
L 149.569841 74.987769 
L 149.698019 74.849384 
L 150.91436 73.999306 
L 150.931438 73.959768 
L 151.185437 73.821383 
L 151.960163 73.228305 
L 152.449546 72.991074 
L 155.326945 71.290919 
L 155.785742 71.112996 
L 155.925068 70.99438 
L 156.174953 70.855995 
L 156.494107 70.658303 
L 156.64264 70.559457 
L 157.593469 69.808225 
L 157.911792 69.630302 
L 158.389251 69.254686 
L 158.644721 69.136071 
L 158.741059 69.076763 
L 160.285247 68.226685 
L 160.397129 68.167377 
L 160.92934 67.890608 
L 161.174599 67.712685 
L 161.372411 67.554531 
L 161.727924 67.396377 
L 162.18123 67.159146 
L 162.711956 66.902145 
L 163.439567 66.52653 
L 163.566843 66.407914 
L 164.063989 66.071837 
L 165.291746 65.399683 
L 165.486458 65.261298 
L 165.59264 65.122913 
L 165.876178 64.984528 
L 166.104259 64.806605 
L 166.22987 64.707759 
L 166.715655 64.470528 
L 166.76044 64.41122 
L 167.08617 64.233297 
L 167.464091 64.015835 
L 167.588714 63.916989 
L 167.905132 63.758835 
L 168.006516 63.640219 
L 169.503176 62.888988 
L 171.412379 61.702833 
L 172.769211 61.267909 
L 173.080267 61.089986 
L 173.579771 60.793447 
L 173.631376 60.694601 
L 174.113188 60.477139 
L 174.541983 60.259678 
L 174.986379 60.081754 
L 175.184121 59.884062 
L 175.57721 59.706139 
L 175.85808 59.449138 
L 176.295058 59.192138 
L 178.461843 58.065291 
L 178.650199 57.887368 
L 178.930412 57.669906 
L 179.276579 57.531521 
L 179.7874 57.274521 
L 179.900371 57.215213 
L 180.189733 57.096598 
L 182.798225 55.71275 
L 183.489994 55.495288 
L 183.535815 55.416211 
L 184.006959 55.258057 
L 184.215077 55.139442 
L 184.521846 54.961519 
L 184.608247 54.862672 
L 184.928983 54.724288 
L 185.02652 54.625441 
L 185.841452 54.348672 
L 185.939042 54.269595 
L 186.41135 54.012595 
L 186.750334 53.87421 
L 186.920206 53.795133 
L 187.17701 53.636979 
L 187.874516 53.281132 
L 188.060564 53.162517 
L 189.67616 52.411285 
L 189.854672 52.193824 
L 190.252659 51.996131 
L 190.427654 51.897285 
L 193.961454 50.355284 
L 194.495152 50.17736 
L 194.587679 50.118053 
L 194.966303 49.880822 
L 195.196108 49.722668 
L 195.55188 49.564514 
L 195.667553 49.485437 
L 197.856747 48.59582 
L 197.972603 48.496974 
L 198.60381 48.259743 
L 198.853772 48.121358 
L 198.97138 48.062051 
L 200.114013 47.627127 
L 200.155593 47.587589 
L 200.596441 47.409665 
L 200.757565 47.29105 
L 201.235 47.093357 
L 201.455219 46.974742 
L 202.096447 46.75728 
L 202.514418 46.658434 
L 203.305283 46.302587 
L 203.417216 46.24328 
L 204.485189 45.749048 
L 204.944681 45.531587 
L 205.059851 45.492048 
L 211.793479 42.566199 
L 212.816345 42.249891 
L 212.891362 42.170814 
L 213.852113 41.973122 
L 214.220504 41.814968 
L 214.800138 41.577737 
L 215.149778 41.439352 
L 215.241739 41.320736 
L 215.564475 41.123044 
L 215.572808 41.103275 
L 216.083839 40.925351 
L 216.225026 40.846274 
L 217.189938 40.233428 
L 217.517366 40.095043 
L 217.879188 39.91712 
L 217.896425 39.89735 
L 218.519726 39.719427 
L 218.539539 39.679889 
L 219.370666 39.422888 
L 219.400883 39.363581 
L 220.250175 39.165888 
L 220.9683 38.84958 
L 221.084256 38.810042 
L 221.627909 38.671657 
L 222.019467 38.473964 
L 222.702889 38.256503 
L 223.154099 38.078579 
L 223.364874 37.999502 
L 223.730034 37.821579 
L 225.953869 37.030809 
L 228.116108 36.042347 
L 228.748743 35.864424 
L 228.762821 35.824885 
L 229.742231 35.587654 
L 229.79974 35.528346 
L 230.597514 35.310885 
L 230.644226 35.271346 
L 231.546778 35.113192 
L 231.70068 35.034115 
L 232.616321 34.836423 
L 232.880877 34.698038 
L 235.57505 33.551421 
L 236.416467 33.235113 
L 237.118154 33.05719 
L 237.132755 33.037421 
L 237.645096 32.899036 
L 237.659937 32.859498 
L 238.55648 32.582728 
L 238.979345 32.404805 
L 240.80176 31.890804 
L 241.130957 31.831497 
L 241.591448 31.673343 
L 241.754367 31.594266 
L 242.720683 31.416342 
L 242.815988 31.317496 
L 243.444001 31.100034 
L 244.554508 30.605803 
L 247.101333 30.072033 
L 249.561709 29.36034 
L 249.587063 29.340571 
L 250.298117 29.182417 
L 250.453562 29.10334 
L 250.901414 28.945186 
L 251.830617 28.767263 
L 251.961178 28.727724 
L 252.317793 28.648647 
L 254.591114 28.016031 
L 254.707457 27.956724 
L 255.616746 27.719493 
L 256.005166 27.561339 
L 256.114554 27.5218 
L 256.695222 27.363646 
L 256.759728 27.304338 
L 260.06477 26.454261 
L 260.659871 26.256568 
L 263.659291 25.465798 
L 263.773231 25.40649 
L 271.460339 23.607489 
L 271.472015 23.587719 
L 272.502371 23.390027 
L 275.23212 22.79695 
L 275.79109 22.678334 
L 277.175953 22.381795 
L 277.351749 22.282949 
L 278.895435 21.946872 
L 280.228572 21.749179 
L 280.729712 21.571256 
L 281.417046 21.373564 
L 284.928453 20.740948 
L 285.040336 20.661871 
L 287.070657 20.325793 
L 287.247669 20.266486 
L 288.783383 20.088562 
L 289.203549 20.029255 
L 290.694302 19.871101 
L 292.122851 19.594331 
L 292.287296 19.554793 
L 296.659634 19.060561 
L 297.066227 18.961715 
L 298.099803 18.803561 
L 298.32069 18.724484 
L 299.907545 18.467484 
L 299.909296 18.447715 
L 310.920806 17.439483 
L 327.695293 17.083636 
L 327.695293 17.083636 
" clip-path="url(#pa131602f4c)" style="fill: none; stroke: #9467bd; stroke-width: 1.5; stroke-linecap: square"/>
   </g>
   <g id="line2d_18">
    <path d="M 47.64644 214.756364 
L 48.124962 214.59821 
L 48.653031 214.143517 
L 48.903066 213.708593 
L 49.020434 213.451593 
L 50.455188 210.090821 
L 50.526672 209.912897 
L 50.946583 208.78605 
L 51.702037 206.809125 
L 51.816237 206.532356 
L 51.924352 206.235817 
L 52.154005 205.524124 
L 52.549079 204.594969 
L 53.173166 203.013429 
L 53.235286 202.815737 
L 53.357325 202.380813 
L 54.190493 200.324811 
L 54.282091 200.127119 
L 54.420264 199.988734 
L 54.635772 199.553811 
L 55.749689 196.746577 
L 55.880113 196.548885 
L 56.810011 194.512652 
L 56.909631 194.314959 
L 57.067507 193.840498 
L 57.568927 192.911343 
L 57.814547 192.219419 
L 58.178577 191.547265 
L 58.315042 191.171649 
L 58.430209 191.013495 
L 58.685315 190.380879 
L 58.798896 190.123879 
L 58.964256 189.866878 
L 59.081349 189.609878 
L 59.460472 188.7598 
L 59.717184 188.2458 
L 60.288056 186.92126 
L 60.377394 186.743337 
L 60.458136 186.545644 
L 60.567615 186.38749 
L 60.671465 186.150259 
L 60.801097 185.893259 
L 60.876296 185.735105 
L 60.999167 185.478105 
L 61.38541 184.687335 
L 61.475518 184.469873 
L 61.595644 184.272181 
L 61.749859 183.857026 
L 62.024059 183.402334 
L 62.189642 183.066256 
L 62.383978 182.730179 
L 62.513403 182.572025 
L 62.72681 182.17664 
L 62.858455 181.978948 
L 64.032045 179.883407 
L 64.160021 179.54733 
L 64.283832 179.270561 
L 64.39352 179.03333 
L 65.050057 177.985559 
L 65.253981 177.590174 
L 65.586199 177.056405 
L 65.771396 176.779635 
L 65.952338 176.443558 
L 66.094502 176.107481 
L 66.659231 175.119018 
L 66.937766 174.921326 
L 67.084054 174.605018 
L 67.613134 173.49794 
L 67.673644 173.339786 
L 67.830863 173.142093 
L 69.313826 170.651168 
L 69.726896 170.117398 
L 70.338505 168.931243 
L 70.560807 168.674243 
L 70.922857 167.883473 
L 71.05417 167.705549 
L 71.241592 167.507857 
L 77.365742 158.275617 
L 77.586813 158.058156 
L 78.188091 157.069693 
L 78.798019 156.259154 
L 78.980459 156.120769 
L 79.005689 156.021923 
L 79.137071 155.883538 
L 79.380301 155.626538 
L 79.535857 155.448615 
L 79.669197 155.211384 
L 79.768024 155.072999 
L 85.077514 147.956069 
L 85.224122 147.817684 
L 87.534373 144.634835 
L 87.862047 144.417373 
L 88.237607 143.863834 
L 88.360983 143.70568 
L 88.492725 143.587065 
L 88.610671 143.389372 
L 88.864846 143.092834 
L 89.007236 142.855603 
L 89.431956 142.420679 
L 89.589177 142.341602 
L 89.856022 142.045063 
L 89.990278 141.807832 
L 90.310852 141.432217 
L 90.4409 141.254293 
L 90.559235 141.07637 
L 90.748996 140.878678 
L 90.86412 140.680985 
L 91.228424 140.246062 
L 91.914764 139.49483 
L 92.030654 139.297138 
L 92.507149 138.763368 
L 92.944335 138.288906 
L 93.063379 138.17029 
L 93.421409 137.676059 
L 93.835145 137.12252 
L 95.306993 135.402596 
L 95.417787 135.264211 
L 96.435755 134.216441 
L 96.609702 134.078056 
L 96.759882 133.900133 
L 96.907819 133.722209 
L 97.015382 133.524517 
L 97.462528 132.990747 
L 97.536686 132.852362 
L 97.82414 132.615131 
L 97.969078 132.496516 
L 98.42591 132.081362 
L 98.930799 131.58713 
L 99.07152 131.369669 
L 99.476846 131.07313 
L 99.759024 130.756822 
L 100.024293 130.460283 
L 102.113013 128.285666 
L 102.228438 128.107742 
L 103.179665 127.139049 
L 103.30827 127.000664 
L 104.192333 126.111048 
L 104.532935 125.676125 
L 104.687061 125.498201 
L 105.644768 124.608585 
L 105.791017 124.450431 
L 105.932225 124.312046 
L 106.069948 124.173662 
L 106.216839 124.015508 
L 106.427333 123.837584 
L 106.713474 123.402661 
L 107.177807 123.007276 
L 108.011391 122.256045 
L 108.333905 122.058352 
L 108.538495 121.722275 
L 108.87415 121.386198 
L 109.17624 120.951274 
L 109.558734 120.733812 
L 109.846889 120.417504 
L 110.210754 120.160504 
L 110.320334 119.903504 
L 110.793071 119.567427 
L 110.872925 119.48835 
L 111.00395 119.310426 
L 111.431353 118.915041 
L 111.571576 118.756887 
L 112.020263 118.381272 
L 112.293814 118.203348 
L 112.464924 118.005656 
L 112.562662 117.867271 
L 112.725668 117.709117 
L 112.821726 117.610271 
L 112.955109 117.452117 
L 113.072527 117.254424 
L 113.219057 117.11604 
L 113.380171 116.957886 
L 114.76118 115.653115 
L 114.877754 115.475192 
L 115.192198 115.277499 
L 115.299154 115.178653 
L 115.581276 114.980961 
L 116.124331 114.46696 
L 116.431591 114.229729 
L 116.683594 113.873883 
L 116.788489 113.695959 
L 117.251913 113.458728 
L 117.361739 113.300574 
L 117.634543 113.102882 
L 117.858954 112.924959 
L 118.492027 112.391189 
L 118.805286 112.055112 
L 118.943308 111.896958 
L 119.262986 111.600419 
L 119.529346 111.30388 
L 119.690828 111.066649 
L 120.164999 110.77011 
L 120.275886 110.631726 
L 120.467034 110.453802 
L 120.601655 110.335187 
L 120.807613 110.177033 
L 120.983139 109.959571 
L 121.41057 109.623494 
L 121.505684 109.524648 
L 121.749226 109.386263 
L 121.987225 109.18857 
L 122.166549 109.010647 
L 127.007025 104.740489 
L 127.238051 104.582335 
L 129.153869 103.238026 
L 129.595898 102.981026 
L 129.705729 102.862411 
L 129.959533 102.664718 
L 130.253575 102.34841 
L 130.725892 101.873948 
L 131.197294 101.399486 
L 131.380211 101.201794 
L 131.673843 101.04364 
L 131.824988 100.865716 
L 131.975301 100.727332 
L 132.233149 100.588947 
L 132.469326 100.351716 
L 132.701671 100.173793 
L 133.204104 99.817946 
L 133.683027 99.501638 
L 133.782465 99.383023 
L 134.0894 99.244638 
L 134.258702 99.145792 
L 134.493069 98.987638 
L 134.687427 98.809714 
L 134.896282 98.65156 
L 134.992616 98.572483 
L 135.171506 98.434099 
L 136.665512 97.08979 
L 137.29803 96.81302 
L 137.488057 96.674635 
L 137.679402 96.476943 
L 137.938872 96.239712 
L 138.34352 96.002481 
L 138.428186 95.883865 
L 138.615114 95.705942 
L 138.764863 95.48848 
L 138.958213 95.330326 
L 139.103115 95.23148 
L 139.375668 95.093095 
L 139.505321 94.97448 
L 140.00747 94.677941 
L 140.208042 94.539557 
L 143.601755 91.989323 
L 144.024083 91.791631 
L 144.576089 91.238092 
L 144.760235 91.099707 
L 144.990184 90.882245 
L 145.194419 90.704322 
L 145.914347 90.091475 
L 146.058385 89.992629 
L 146.698473 89.557706 
L 147.198399 89.142551 
L 149.144144 87.916858 
L 149.237589 87.818012 
L 149.47939 87.659858 
L 150.029039 87.264473 
L 150.68318 86.80978 
L 150.959787 86.592318 
L 151.094165 86.53301 
L 151.76004 86.137625 
L 152.053823 85.959702 
L 152.45805 85.623625 
L 152.741415 85.425932 
L 153.918827 84.516547 
L 154.222427 84.358393 
L 154.387887 84.279316 
L 154.673779 84.101393 
L 155.26785 83.765315 
L 155.821915 83.3897 
L 156.089091 83.152469 
L 156.176602 83.073392 
L 156.896545 82.678007 
L 157.068097 82.500083 
L 157.295479 82.341929 
L 157.533839 82.104698 
L 157.89072 81.847698 
L 158.106874 81.669775 
L 158.504437 81.491852 
L 158.865455 81.353467 
L 159.195327 81.116236 
L 159.286912 81.037159 
L 159.76533 80.720851 
L 159.893873 80.622005 
L 160.319016 80.384774 
L 160.469528 80.187081 
L 161.016649 79.890543 
L 161.37365 79.732389 
L 161.816441 79.534696 
L 162.83666 78.941619 
L 163.011684 78.783465 
L 163.185468 78.585772 
L 163.671228 78.229926 
L 163.821172 78.150849 
L 164.555214 77.775233 
L 164.598511 77.696156 
L 165.096892 77.498463 
L 165.240839 77.360079 
L 165.588224 77.182155 
L 170.077738 74.394691 
L 170.079695 74.374922 
L 170.532565 74.196999 
L 170.705701 74.019075 
L 171.048178 73.880691 
L 171.461268 73.505075 
L 172.185393 73.228305 
L 172.298874 73.129459 
L 172.776524 72.951536 
L 173.106254 72.793382 
L 173.219514 72.654997 
L 173.712998 72.397997 
L 173.820358 72.31892 
L 174.103909 72.160766 
L 174.289625 71.963073 
L 174.500375 71.78515 
L 177.330651 70.045456 
L 177.359117 70.005918 
L 177.709779 69.827994 
L 177.753718 69.768687 
L 177.907754 69.630302 
L 178.023323 69.570994 
L 180.253114 68.483685 
L 185.081253 65.73576 
L 185.687184 65.538067 
L 185.814275 65.47876 
L 186.084769 65.320606 
L 186.490567 65.043836 
L 186.491124 65.024067 
L 186.753432 64.865913 
L 186.90744 64.747297 
L 187.269236 64.589143 
L 187.404644 64.490297 
L 187.871328 64.312374 
L 190.214525 63.007603 
L 190.318149 62.908757 
L 190.900477 62.592449 
L 191.510641 62.197064 
L 191.574626 62.137756 
L 191.886883 61.999372 
L 191.969746 61.959833 
L 192.451188 61.663294 
L 192.658964 61.445833 
L 193.218494 61.267909 
L 193.588467 61.089986 
L 193.947467 60.912063 
L 194.339646 60.753909 
L 194.788535 60.477139 
L 195.046057 60.338755 
L 195.812657 60.002677 
L 195.853279 59.94337 
L 196.32014 59.785216 
L 196.425181 59.725908 
L 196.963627 59.449138 
L 197.088346 59.350292 
L 198.171102 58.915369 
L 198.40288 58.776984 
L 198.490865 58.737445 
L 198.976713 58.480445 
L 199.161706 58.36183 
L 200.612592 57.412906 
L 200.791155 57.314059 
L 201.297068 57.076828 
L 202.181212 56.543059 
L 202.186582 56.523289 
L 203.029891 56.286058 
L 203.32634 56.088366 
L 204.292235 55.811596 
L 204.410768 55.752289 
L 209.154832 53.498594 
L 209.607091 53.320671 
L 210.053503 53.024132 
L 210.514809 52.885747 
L 210.612905 52.846209 
L 210.973541 52.707824 
L 211.357561 52.391516 
L 212.184925 51.936824 
L 212.329275 51.897285 
L 213.830552 51.363515 
L 213.949139 51.264669 
L 214.419293 51.027438 
L 214.50925 50.96813 
L 215.576016 50.513438 
L 215.735885 50.315745 
L 216.132629 50.157591 
L 216.192818 50.038976 
L 217.286443 49.683129 
L 217.401474 49.584283 
L 218.654539 49.090052 
L 218.68181 49.050513 
L 219.097086 48.912128 
L 219.23358 48.753974 
L 220.914183 48.319051 
L 221.649266 47.903897 
L 221.705198 47.864358 
L 222.616379 47.587589 
L 223.164004 47.271281 
L 223.926061 47.113127 
L 224.06598 47.073588 
L 224.29526 46.915434 
L 224.414606 46.836357 
L 224.970183 46.579357 
L 225.285558 46.440972 
L 225.780002 46.183972 
L 226.034823 45.986279 
L 226.613558 45.788587 
L 227.041974 45.492048 
L 228.806899 44.879201 
L 228.954231 44.780355 
L 229.541106 44.602432 
L 229.588329 44.523355 
L 229.987165 44.365201 
L 230.382484 44.187278 
L 230.549194 44.147739 
L 231.183811 43.989585 
L 231.281386 43.930277 
L 231.777112 43.752354 
L 231.887897 43.633739 
L 232.731031 43.436046 
L 234.00886 43.06043 
L 234.168943 42.981353 
L 234.589585 42.842969 
L 234.693331 42.763892 
L 235.157737 42.566199 
L 235.283609 42.447584 
L 236.690816 41.913814 
L 237.371431 41.716121 
L 237.581179 41.538198 
L 239.987752 40.668351 
L 239.989635 40.648582 
L 240.39251 40.510197 
L 240.774734 40.352043 
L 241.842099 39.976427 
L 241.896171 39.91712 
L 243.306786 39.422888 
L 243.421906 39.363581 
L 244.231805 39.146119 
L 245.150247 38.829811 
L 245.163465 38.810042 
L 245.679295 38.651888 
L 245.760886 38.612349 
L 246.471018 38.434426 
L 246.662472 38.31581 
L 247.784502 37.841348 
L 248.420236 37.683195 
L 248.966074 37.465733 
L 249.287738 37.307579 
L 249.371949 37.208733 
L 250.141014 36.931963 
L 250.683571 36.734271 
L 252.477952 36.279578 
L 253.055527 36.141193 
L 253.057725 36.121424 
L 253.419258 35.96327 
L 253.562376 35.923731 
L 255.849511 35.034115 
L 256.35027 34.875961 
L 257.169751 34.618961 
L 260.405419 33.531652 
L 260.45477 33.492114 
L 261.154475 33.353729 
L 263.184987 32.740882 
L 263.726074 32.582728 
L 265.054404 32.207112 
L 266.013555 31.75242 
L 266.546527 31.633804 
L 266.666026 31.574496 
L 266.77505 31.534958 
L 267.713632 31.317496 
L 267.74582 31.297727 
L 268.608832 31.139573 
L 269.138193 30.96165 
L 269.653729 30.823265 
L 270.404471 30.665111 
L 270.938411 30.408111 
L 271.756951 30.190649 
L 271.816896 30.15111 
L 272.392951 29.992956 
L 272.89541 29.815033 
L 275.348528 29.241725 
L 277.028161 28.866109 
L 277.794848 28.688186 
L 278.733397 28.233493 
L 279.5784 28.095108 
L 279.79768 27.976493 
L 280.419229 27.838108 
L 281.423285 27.640416 
L 281.535382 27.541569 
L 283.651159 26.98803 
L 283.747282 26.948492 
L 284.075069 26.829876 
L 284.585641 26.691492 
L 285.297245 26.47403 
L 285.384057 26.414722 
L 286.2436 26.236799 
L 288.184809 25.762337 
L 288.277605 25.703029 
L 289.020512 25.544875 
L 293.150872 24.418028 
L 294.067421 24.259874 
L 298.382435 23.31095 
L 299.269826 23.172565 
L 304.397242 22.144564 
L 306.109161 21.610795 
L 307.780619 21.235179 
L 311.147133 20.879332 
L 311.170926 20.820025 
L 317.471127 19.871101 
L 317.492311 19.851331 
L 318.242643 19.693177 
L 318.243327 19.673408 
L 319.309903 19.475716 
L 319.391637 19.436177 
L 320.878019 19.218715 
L 320.892712 19.198946 
L 322.02819 19.001254 
L 322.055454 18.981484 
L 324.35286 18.684946 
L 324.666394 18.645407 
L 328.726821 18.230253 
L 328.865732 18.190714 
L 331.163893 17.973253 
L 333.819693 17.795329 
L 333.820848 17.77556 
L 337.292662 17.51856 
L 346.897561 17.103406 
L 349.684943 17.083636 
L 349.684943 17.083636 
" clip-path="url(#pa131602f4c)" style="fill: none; stroke: #8c564b; stroke-width: 1.5; stroke-linecap: square"/>
   </g>
   <g id="patch_3">
    <path d="M 30.103125 224.64 
L 30.103125 7.2 
" style="fill: none; stroke: #000000; stroke-width: 0.8; stroke-linejoin: miter; stroke-linecap: square"/>
   </g>
   <g id="patch_4">
    <path d="M 364.903125 224.64 
L 364.903125 7.2 
" style="fill: none; stroke: #000000; stroke-width: 0.8; stroke-linejoin: miter; stroke-linecap: square"/>
   </g>
   <g id="patch_5">
    <path d="M 30.103125 224.64 
L 364.903125 224.64 
" style="fill: none; stroke: #000000; stroke-width: 0.8; stroke-linejoin: miter; stroke-linecap: square"/>
   </g>
   <g id="patch_6">
    <path d="M 30.103125 7.2 
L 364.903125 7.2 
" style="fill: none; stroke: #000000; stroke-width: 0.8; stroke-linejoin: miter; stroke-linecap: square"/>
   </g>
   <g id="legend_1">
    <g id="patch_7">
     <path d="M 269.454688 219.64 
L 357.903125 219.64 
Q 359.903125 219.64 359.903125 217.64 
L 359.903125 130.57125 
Q 359.903125 128.57125 357.903125 128.57125 
L 269.454688 128.57125 
Q 267.454688 128.57125 267.454688 130.57125 
L 267.454688 217.64 
Q 267.454688 219.64 269.454688 219.64 
z
" style="fill: #ffffff; opacity: 0.8; stroke: #cccccc; stroke-linejoin: miter"/>
    </g>
    <g id="line2d_19">
     <path d="M 271.454688 136.669687 
L 281.454688 136.669687 
L 291.454688 136.669687 
" style="fill: none; stroke: #1f77b4; stroke-width: 1.5; stroke-linecap: square"/>
    </g>
    <g id="text_13">
     <!-- m/n = 0.25 -->
     <g transform="translate(299.454688 140.169687)scale(0.1 -0.1)">
      <defs>
       <path id="DejaVuSans-6d" d="M 3328 2828 
Q 3544 3216 3844 3400 
Q 4144 3584 4550 3584 
Q 5097 3584 5394 3201 
Q 5691 2819 5691 2113 
L 5691 0 
L 5113 0 
L 5113 2094 
Q 5113 2597 4934 2840 
Q 4756 3084 4391 3084 
Q 3944 3084 3684 2787 
Q 3425 2491 3425 1978 
L 3425 0 
L 2847 0 
L 2847 2094 
Q 2847 2600 2669 2842 
Q 2491 3084 2119 3084 
Q 1678 3084 1418 2786 
Q 1159 2488 1159 1978 
L 1159 0 
L 581 0 
L 581 3500 
L 1159 3500 
L 1159 2956 
Q 1356 3278 1631 3431 
Q 1906 3584 2284 3584 
Q 2666 3584 2933 3390 
Q 3200 3197 3328 2828 
z
" transform="scale(0.015625)"/>
       <path id="DejaVuSans-2f" d="M 1625 4666 
L 2156 4666 
L 531 -594 
L 0 -594 
L 1625 4666 
z
" transform="scale(0.015625)"/>
       <path id="DejaVuSans-6e" d="M 3513 2113 
L 3513 0 
L 2938 0 
L 2938 2094 
Q 2938 2591 2744 2837 
Q 2550 3084 2163 3084 
Q 1697 3084 1428 2787 
Q 1159 2491 1159 1978 
L 1159 0 
L 581 0 
L 581 3500 
L 1159 3500 
L 1159 2956 
Q 1366 3272 1645 3428 
Q 1925 3584 2291 3584 
Q 2894 3584 3203 3211 
Q 3513 2838 3513 2113 
z
" transform="scale(0.015625)"/>
       <path id="DejaVuSans-20" transform="scale(0.015625)"/>
       <path id="DejaVuSans-3d" d="M 678 2906 
L 4684 2906 
L 4684 2381 
L 678 2381 
L 678 2906 
z
M 678 1631 
L 4684 1631 
L 4684 1100 
L 678 1100 
L 678 1631 
z
" transform="scale(0.015625)"/>
      </defs>
      <use xlink:href="#DejaVuSans-6d"/>
      <use xlink:href="#DejaVuSans-2f" x="97.412109"/>
      <use xlink:href="#DejaVuSans-6e" x="131.103516"/>
      <use xlink:href="#DejaVuSans-20" x="194.482422"/>
      <use xlink:href="#DejaVuSans-3d" x="226.269531"/>
      <use xlink:href="#DejaVuSans-20" x="310.058594"/>
      <use xlink:href="#DejaVuSans-30" x="341.845703"/>
      <use xlink:href="#DejaVuSans-2e" x="405.46875"/>
      <use xlink:href="#DejaVuSans-32" x="437.255859"/>
      <use xlink:href="#DejaVuSans-35" x="500.878906"/>
     </g>
    </g>
    <g id="line2d_20">
     <path d="M 271.454688 151.347812 
L 281.454688 151.347812 
L 291.454688 151.347812 
" style="fill: none; stroke: #ff7f0e; stroke-width: 1.5; stroke-linecap: square"/>
    </g>
    <g id="text_14">
     <!-- m/n = 0.5 -->
     <g transform="translate(299.454688 154.847812)scale(0.1 -0.1)">
      <use xlink:href="#DejaVuSans-6d"/>
      <use xlink:href="#DejaVuSans-2f" x="97.412109"/>
      <use xlink:href="#DejaVuSans-6e" x="131.103516"/>
      <use xlink:href="#DejaVuSans-20" x="194.482422"/>
      <use xlink:href="#DejaVuSans-3d" x="226.269531"/>
      <use xlink:href="#DejaVuSans-20" x="310.058594"/>
      <use xlink:href="#DejaVuSans-30" x="341.845703"/>
      <use xlink:href="#DejaVuSans-2e" x="405.46875"/>
      <use xlink:href="#DejaVuSans-35" x="437.255859"/>
     </g>
    </g>
    <g id="line2d_21">
     <path d="M 271.454688 166.025937 
L 281.454688 166.025937 
L 291.454688 166.025937 
" style="fill: none; stroke: #2ca02c; stroke-width: 1.5; stroke-linecap: square"/>
    </g>
    <g id="text_15">
     <!-- m/n = 0.75 -->
     <g transform="translate(299.454688 169.525937)scale(0.1 -0.1)">
      <defs>
       <path id="DejaVuSans-37" d="M 525 4666 
L 3525 4666 
L 3525 4397 
L 1831 0 
L 1172 0 
L 2766 4134 
L 525 4134 
L 525 4666 
z
" transform="scale(0.015625)"/>
      </defs>
      <use xlink:href="#DejaVuSans-6d"/>
      <use xlink:href="#DejaVuSans-2f" x="97.412109"/>
      <use xlink:href="#DejaVuSans-6e" x="131.103516"/>
      <use xlink:href="#DejaVuSans-20" x="194.482422"/>
      <use xlink:href="#DejaVuSans-3d" x="226.269531"/>
      <use xlink:href="#DejaVuSans-20" x="310.058594"/>
      <use xlink:href="#DejaVuSans-30" x="341.845703"/>
      <use xlink:href="#DejaVuSans-2e" x="405.46875"/>
      <use xlink:href="#DejaVuSans-37" x="437.255859"/>
      <use xlink:href="#DejaVuSans-35" x="500.878906"/>
     </g>
    </g>
    <g id="line2d_22">
     <path d="M 271.454688 180.704062 
L 281.454688 180.704062 
L 291.454688 180.704062 
" style="fill: none; stroke: #d62728; stroke-width: 1.5; stroke-linecap: square"/>
    </g>
    <g id="text_16">
     <!-- m/n = 1.0 -->
     <g transform="translate(299.454688 184.204062)scale(0.1 -0.1)">
      <use xlink:href="#DejaVuSans-6d"/>
      <use xlink:href="#DejaVuSans-2f" x="97.412109"/>
      <use xlink:href="#DejaVuSans-6e" x="131.103516"/>
      <use xlink:href="#DejaVuSans-20" x="194.482422"/>
      <use xlink:href="#DejaVuSans-3d" x="226.269531"/>
      <use xlink:href="#DejaVuSans-20" x="310.058594"/>
      <use xlink:href="#DejaVuSans-31" x="341.845703"/>
      <use xlink:href="#DejaVuSans-2e" x="405.46875"/>
      <use xlink:href="#DejaVuSans-30" x="437.255859"/>
     </g>
    </g>
    <g id="line2d_23">
     <path d="M 271.454688 195.382187 
L 281.454688 195.382187 
L 291.454688 195.382187 
" style="fill: none; stroke: #9467bd; stroke-width: 1.5; stroke-linecap: square"/>
    </g>
    <g id="text_17">
     <!-- m/n = 1.25 -->
     <g transform="translate(299.454688 198.882187)scale(0.1 -0.1)">
      <use xlink:href="#DejaVuSans-6d"/>
      <use xlink:href="#DejaVuSans-2f" x="97.412109"/>
      <use xlink:href="#DejaVuSans-6e" x="131.103516"/>
      <use xlink:href="#DejaVuSans-20" x="194.482422"/>
      <use xlink:href="#DejaVuSans-3d" x="226.269531"/>
      <use xlink:href="#DejaVuSans-20" x="310.058594"/>
      <use xlink:href="#DejaVuSans-31" x="341.845703"/>
      <use xlink:href="#DejaVuSans-2e" x="405.46875"/>
      <use xlink:href="#DejaVuSans-32" x="437.255859"/>
      <use xlink:href="#DejaVuSans-35" x="500.878906"/>
     </g>
    </g>
    <g id="line2d_24">
     <path d="M 271.454688 210.060312 
L 281.454688 210.060312 
L 291.454688 210.060312 
" style="fill: none; stroke: #8c564b; stroke-width: 1.5; stroke-linecap: square"/>
    </g>
    <g id="text_18">
     <!-- m/n = 1.5 -->
     <g transform="translate(299.454688 213.560312)scale(0.1 -0.1)">
      <use xlink:href="#DejaVuSans-6d"/>
      <use xlink:href="#DejaVuSans-2f" x="97.412109"/>
      <use xlink:href="#DejaVuSans-6e" x="131.103516"/>
      <use xlink:href="#DejaVuSans-20" x="194.482422"/>
      <use xlink:href="#DejaVuSans-3d" x="226.269531"/>
      <use xlink:href="#DejaVuSans-20" x="310.058594"/>
      <use xlink:href="#DejaVuSans-31" x="341.845703"/>
      <use xlink:href="#DejaVuSans-2e" x="405.46875"/>
      <use xlink:href="#DejaVuSans-35" x="437.255859"/>
     </g>
    </g>
   </g>
  </g>
 </g>
 <defs>
  <clipPath id="pa131602f4c">
   <rect x="30.103125" y="7.2" width="334.8" height="217.44"/>
  </clipPath>
 </defs>
</svg>
