<?xml version="1.0" encoding="utf-8" standalone="no"?>
<!DOCTYPE svg PUBLIC "-//W3C//DTD SVG 1.1//EN"
  "http://www.w3.org/Graphics/SVG/1.1/DTD/svg11.dtd">
<svg xmlns:xlink="http://www.w3.org/1999/xlink" width="372.103125pt" height="248.518125pt" viewBox="0 0 372.103125 248.518125" xmlns="http://www.w3.org/2000/svg" version="1.1">
 <metadata>
  <rdf:RDF xmlns:dc="http://purl.org/dc/elements/1.1/" xmlns:cc="http://creativecommons.org/ns#" xmlns:rdf="http://www.w3.org/1999/02/22-rdf-syntax-ns#">
   <cc:Work>
    <dc:type rdf:resource="http://purl.org/dc/dcmitype/StillImage"/>
    <dc:date>2022-03-16T17:57:33.695974</dc:date>
    <dc:format>image/svg+xml</dc:format>
    <dc:creator>
     <cc:Agent>
      <dc:title>Matplotlib v3.5.1, https://matplotlib.org/</dc:title>
     </cc:Agent>
    </dc:creator>
   </cc:Work>
  </rdf:RDF>
 </metadata>
 <defs>
  <style type="text/css">*{stroke-linejoin: round; stroke-linecap: butt}</style>
 </defs>
 <g id="figure_1">
  <g id="patch_1">
   <path d="M 0 248.518125 
L 372.103125 248.518125 
L 372.103125 0 
L 0 0 
L 0 248.518125 
z
" style="fill: none"/>
  </g>
  <g id="axes_1">
   <g id="patch_2">
    <path d="M 30.103125 224.64 
L 364.903125 224.64 
L 364.903125 7.2 
L 30.103125 7.2 
z
" style="fill: #ffffff"/>
   </g>
   <g id="matplotlib.axis_1">
    <g id="xtick_1">
     <g id="line2d_1">
      <defs>
       <path id="m58c8c71b96" d="M 0 0 
L 0 3.5 
" style="stroke: #000000; stroke-width: 0.8"/>
      </defs>
      <g>
       <use xlink:href="#m58c8c71b96" x="30.276358" y="224.64" style="stroke: #000000; stroke-width: 0.8"/>
      </g>
     </g>
     <g id="text_1">
      <!-- −0.3 -->
      <g transform="translate(18.134952 239.238437)scale(0.1 -0.1)">
       <defs>
        <path id="DejaVuSans-2212" d="M 678 2272 
L 4684 2272 
L 4684 1741 
L 678 1741 
L 678 2272 
z
" transform="scale(0.015625)"/>
        <path id="DejaVuSans-30" d="M 2034 4250 
Q 1547 4250 1301 3770 
Q 1056 3291 1056 2328 
Q 1056 1369 1301 889 
Q 1547 409 2034 409 
Q 2525 409 2770 889 
Q 3016 1369 3016 2328 
Q 3016 3291 2770 3770 
Q 2525 4250 2034 4250 
z
M 2034 4750 
Q 2819 4750 3233 4129 
Q 3647 3509 3647 2328 
Q 3647 1150 3233 529 
Q 2819 -91 2034 -91 
Q 1250 -91 836 529 
Q 422 1150 422 2328 
Q 422 3509 836 4129 
Q 1250 4750 2034 4750 
z
" transform="scale(0.015625)"/>
        <path id="DejaVuSans-2e" d="M 684 794 
L 1344 794 
L 1344 0 
L 684 0 
L 684 794 
z
" transform="scale(0.015625)"/>
        <path id="DejaVuSans-33" d="M 2597 2516 
Q 3050 2419 3304 2112 
Q 3559 1806 3559 1356 
Q 3559 666 3084 287 
Q 2609 -91 1734 -91 
Q 1441 -91 1130 -33 
Q 819 25 488 141 
L 488 750 
Q 750 597 1062 519 
Q 1375 441 1716 441 
Q 2309 441 2620 675 
Q 2931 909 2931 1356 
Q 2931 1769 2642 2001 
Q 2353 2234 1838 2234 
L 1294 2234 
L 1294 2753 
L 1863 2753 
Q 2328 2753 2575 2939 
Q 2822 3125 2822 3475 
Q 2822 3834 2567 4026 
Q 2313 4219 1838 4219 
Q 1578 4219 1281 4162 
Q 984 4106 628 3988 
L 628 4550 
Q 988 4650 1302 4700 
Q 1616 4750 1894 4750 
Q 2613 4750 3031 4423 
Q 3450 4097 3450 3541 
Q 3450 3153 3228 2886 
Q 3006 2619 2597 2516 
z
" transform="scale(0.015625)"/>
       </defs>
       <use xlink:href="#DejaVuSans-2212"/>
       <use xlink:href="#DejaVuSans-30" x="83.789062"/>
       <use xlink:href="#DejaVuSans-2e" x="147.412109"/>
       <use xlink:href="#DejaVuSans-33" x="179.199219"/>
      </g>
     </g>
    </g>
    <g id="xtick_2">
     <g id="line2d_2">
      <g>
       <use xlink:href="#m58c8c71b96" x="82.992179" y="224.64" style="stroke: #000000; stroke-width: 0.8"/>
      </g>
     </g>
     <g id="text_2">
      <!-- −0.2 -->
      <g transform="translate(70.850772 239.238437)scale(0.1 -0.1)">
       <defs>
        <path id="DejaVuSans-32" d="M 1228 531 
L 3431 531 
L 3431 0 
L 469 0 
L 469 531 
Q 828 903 1448 1529 
Q 2069 2156 2228 2338 
Q 2531 2678 2651 2914 
Q 2772 3150 2772 3378 
Q 2772 3750 2511 3984 
Q 2250 4219 1831 4219 
Q 1534 4219 1204 4116 
Q 875 4013 500 3803 
L 500 4441 
Q 881 4594 1212 4672 
Q 1544 4750 1819 4750 
Q 2544 4750 2975 4387 
Q 3406 4025 3406 3419 
Q 3406 3131 3298 2873 
Q 3191 2616 2906 2266 
Q 2828 2175 2409 1742 
Q 1991 1309 1228 531 
z
" transform="scale(0.015625)"/>
       </defs>
       <use xlink:href="#DejaVuSans-2212"/>
       <use xlink:href="#DejaVuSans-30" x="83.789062"/>
       <use xlink:href="#DejaVuSans-2e" x="147.412109"/>
       <use xlink:href="#DejaVuSans-32" x="179.199219"/>
      </g>
     </g>
    </g>
    <g id="xtick_3">
     <g id="line2d_3">
      <g>
       <use xlink:href="#m58c8c71b96" x="135.707999" y="224.64" style="stroke: #000000; stroke-width: 0.8"/>
      </g>
     </g>
     <g id="text_3">
      <!-- −0.1 -->
      <g transform="translate(123.566593 239.238437)scale(0.1 -0.1)">
       <defs>
        <path id="DejaVuSans-31" d="M 794 531 
L 1825 531 
L 1825 4091 
L 703 3866 
L 703 4441 
L 1819 4666 
L 2450 4666 
L 2450 531 
L 3481 531 
L 3481 0 
L 794 0 
L 794 531 
z
" transform="scale(0.015625)"/>
       </defs>
       <use xlink:href="#DejaVuSans-2212"/>
       <use xlink:href="#DejaVuSans-30" x="83.789062"/>
       <use xlink:href="#DejaVuSans-2e" x="147.412109"/>
       <use xlink:href="#DejaVuSans-31" x="179.199219"/>
      </g>
     </g>
    </g>
    <g id="xtick_4">
     <g id="line2d_4">
      <g>
       <use xlink:href="#m58c8c71b96" x="188.42382" y="224.64" style="stroke: #000000; stroke-width: 0.8"/>
      </g>
     </g>
     <g id="text_4">
      <!-- 0.0 -->
      <g transform="translate(180.472257 239.238437)scale(0.1 -0.1)">
       <use xlink:href="#DejaVuSans-30"/>
       <use xlink:href="#DejaVuSans-2e" x="63.623047"/>
       <use xlink:href="#DejaVuSans-30" x="95.410156"/>
      </g>
     </g>
    </g>
    <g id="xtick_5">
     <g id="line2d_5">
      <g>
       <use xlink:href="#m58c8c71b96" x="241.139641" y="224.64" style="stroke: #000000; stroke-width: 0.8"/>
      </g>
     </g>
     <g id="text_5">
      <!-- 0.1 -->
      <g transform="translate(233.188078 239.238437)scale(0.1 -0.1)">
       <use xlink:href="#DejaVuSans-30"/>
       <use xlink:href="#DejaVuSans-2e" x="63.623047"/>
       <use xlink:href="#DejaVuSans-31" x="95.410156"/>
      </g>
     </g>
    </g>
    <g id="xtick_6">
     <g id="line2d_6">
      <g>
       <use xlink:href="#m58c8c71b96" x="293.855461" y="224.64" style="stroke: #000000; stroke-width: 0.8"/>
      </g>
     </g>
     <g id="text_6">
      <!-- 0.2 -->
      <g transform="translate(285.903899 239.238437)scale(0.1 -0.1)">
       <use xlink:href="#DejaVuSans-30"/>
       <use xlink:href="#DejaVuSans-2e" x="63.623047"/>
       <use xlink:href="#DejaVuSans-32" x="95.410156"/>
      </g>
     </g>
    </g>
    <g id="xtick_7">
     <g id="line2d_7">
      <g>
       <use xlink:href="#m58c8c71b96" x="346.571282" y="224.64" style="stroke: #000000; stroke-width: 0.8"/>
      </g>
     </g>
     <g id="text_7">
      <!-- 0.3 -->
      <g transform="translate(338.619719 239.238437)scale(0.1 -0.1)">
       <use xlink:href="#DejaVuSans-30"/>
       <use xlink:href="#DejaVuSans-2e" x="63.623047"/>
       <use xlink:href="#DejaVuSans-33" x="95.410156"/>
      </g>
     </g>
    </g>
   </g>
   <g id="matplotlib.axis_2">
    <g id="ytick_1">
     <g id="line2d_8">
      <defs>
       <path id="m7604d5ca01" d="M 0 0 
L -3.5 0 
" style="stroke: #000000; stroke-width: 0.8"/>
      </defs>
      <g>
       <use xlink:href="#m7604d5ca01" x="30.103125" y="214.756364" style="stroke: #000000; stroke-width: 0.8"/>
      </g>
     </g>
     <g id="text_8">
      <!-- 0.0 -->
      <g transform="translate(7.2 218.555582)scale(0.1 -0.1)">
       <use xlink:href="#DejaVuSans-30"/>
       <use xlink:href="#DejaVuSans-2e" x="63.623047"/>
       <use xlink:href="#DejaVuSans-30" x="95.410156"/>
      </g>
     </g>
    </g>
    <g id="ytick_2">
     <g id="line2d_9">
      <g>
       <use xlink:href="#m7604d5ca01" x="30.103125" y="175.217864" style="stroke: #000000; stroke-width: 0.8"/>
      </g>
     </g>
     <g id="text_9">
      <!-- 0.2 -->
      <g transform="translate(7.2 179.017083)scale(0.1 -0.1)">
       <use xlink:href="#DejaVuSans-30"/>
       <use xlink:href="#DejaVuSans-2e" x="63.623047"/>
       <use xlink:href="#DejaVuSans-32" x="95.410156"/>
      </g>
     </g>
    </g>
    <g id="ytick_3">
     <g id="line2d_10">
      <g>
       <use xlink:href="#m7604d5ca01" x="30.103125" y="135.679365" style="stroke: #000000; stroke-width: 0.8"/>
      </g>
     </g>
     <g id="text_10">
      <!-- 0.4 -->
      <g transform="translate(7.2 139.478584)scale(0.1 -0.1)">
       <defs>
        <path id="DejaVuSans-34" d="M 2419 4116 
L 825 1625 
L 2419 1625 
L 2419 4116 
z
M 2253 4666 
L 3047 4666 
L 3047 1625 
L 3713 1625 
L 3713 1100 
L 3047 1100 
L 3047 0 
L 2419 0 
L 2419 1100 
L 313 1100 
L 313 1709 
L 2253 4666 
z
" transform="scale(0.015625)"/>
       </defs>
       <use xlink:href="#DejaVuSans-30"/>
       <use xlink:href="#DejaVuSans-2e" x="63.623047"/>
       <use xlink:href="#DejaVuSans-34" x="95.410156"/>
      </g>
     </g>
    </g>
    <g id="ytick_4">
     <g id="line2d_11">
      <g>
       <use xlink:href="#m7604d5ca01" x="30.103125" y="96.140866" style="stroke: #000000; stroke-width: 0.8"/>
      </g>
     </g>
     <g id="text_11">
      <!-- 0.6 -->
      <g transform="translate(7.2 99.940084)scale(0.1 -0.1)">
       <defs>
        <path id="DejaVuSans-36" d="M 2113 2584 
Q 1688 2584 1439 2293 
Q 1191 2003 1191 1497 
Q 1191 994 1439 701 
Q 1688 409 2113 409 
Q 2538 409 2786 701 
Q 3034 994 3034 1497 
Q 3034 2003 2786 2293 
Q 2538 2584 2113 2584 
z
M 3366 4563 
L 3366 3988 
Q 3128 4100 2886 4159 
Q 2644 4219 2406 4219 
Q 1781 4219 1451 3797 
Q 1122 3375 1075 2522 
Q 1259 2794 1537 2939 
Q 1816 3084 2150 3084 
Q 2853 3084 3261 2657 
Q 3669 2231 3669 1497 
Q 3669 778 3244 343 
Q 2819 -91 2113 -91 
Q 1303 -91 875 529 
Q 447 1150 447 2328 
Q 447 3434 972 4092 
Q 1497 4750 2381 4750 
Q 2619 4750 2861 4703 
Q 3103 4656 3366 4563 
z
" transform="scale(0.015625)"/>
       </defs>
       <use xlink:href="#DejaVuSans-30"/>
       <use xlink:href="#DejaVuSans-2e" x="63.623047"/>
       <use xlink:href="#DejaVuSans-36" x="95.410156"/>
      </g>
     </g>
    </g>
    <g id="ytick_5">
     <g id="line2d_12">
      <g>
       <use xlink:href="#m7604d5ca01" x="30.103125" y="56.602366" style="stroke: #000000; stroke-width: 0.8"/>
      </g>
     </g>
     <g id="text_12">
      <!-- 0.8 -->
      <g transform="translate(7.2 60.401585)scale(0.1 -0.1)">
       <defs>
        <path id="DejaVuSans-38" d="M 2034 2216 
Q 1584 2216 1326 1975 
Q 1069 1734 1069 1313 
Q 1069 891 1326 650 
Q 1584 409 2034 409 
Q 2484 409 2743 651 
Q 3003 894 3003 1313 
Q 3003 1734 2745 1975 
Q 2488 2216 2034 2216 
z
M 1403 2484 
Q 997 2584 770 2862 
Q 544 3141 544 3541 
Q 544 4100 942 4425 
Q 1341 4750 2034 4750 
Q 2731 4750 3128 4425 
Q 3525 4100 3525 3541 
Q 3525 3141 3298 2862 
Q 3072 2584 2669 2484 
Q 3125 2378 3379 2068 
Q 3634 1759 3634 1313 
Q 3634 634 3220 271 
Q 2806 -91 2034 -91 
Q 1263 -91 848 271 
Q 434 634 434 1313 
Q 434 1759 690 2068 
Q 947 2378 1403 2484 
z
M 1172 3481 
Q 1172 3119 1398 2916 
Q 1625 2713 2034 2713 
Q 2441 2713 2670 2916 
Q 2900 3119 2900 3481 
Q 2900 3844 2670 4047 
Q 2441 4250 2034 4250 
Q 1625 4250 1398 4047 
Q 1172 3844 1172 3481 
z
" transform="scale(0.015625)"/>
       </defs>
       <use xlink:href="#DejaVuSans-30"/>
       <use xlink:href="#DejaVuSans-2e" x="63.623047"/>
       <use xlink:href="#DejaVuSans-38" x="95.410156"/>
      </g>
     </g>
    </g>
    <g id="ytick_6">
     <g id="line2d_13">
      <g>
       <use xlink:href="#m7604d5ca01" x="30.103125" y="17.063867" style="stroke: #000000; stroke-width: 0.8"/>
      </g>
     </g>
     <g id="text_13">
      <!-- 1.0 -->
      <g transform="translate(7.2 20.863086)scale(0.1 -0.1)">
       <use xlink:href="#DejaVuSans-31"/>
       <use xlink:href="#DejaVuSans-2e" x="63.623047"/>
       <use xlink:href="#DejaVuSans-30" x="95.410156"/>
      </g>
     </g>
    </g>
   </g>
   <g id="line2d_14">
    <path d="M 45.321307 214.756364 
L 49.388866 214.558671 
L 54.000354 214.360979 
L 58.564622 214.163286 
L 60.002879 213.866747 
L 60.224904 213.669055 
L 65.632965 213.075977 
L 66.438495 212.680592 
L 67.654881 212.4829 
L 69.162858 212.087515 
L 69.254434 211.988669 
L 70.00944 211.790976 
L 70.108006 211.593284 
L 71.832228 211.395591 
L 72.939238 211.197899 
L 73.128054 211.099052 
L 73.733391 210.90136 
L 73.876565 210.802514 
L 74.744638 210.505975 
L 76.360841 210.011744 
L 76.576665 209.814051 
L 76.669261 209.418666 
L 77.289198 209.220974 
L 77.472767 209.023281 
L 78.690655 208.627896 
L 78.697436 208.52905 
L 79.248677 208.133665 
L 79.333521 207.935973 
L 81.072824 207.540588 
L 81.540405 207.145203 
L 81.996168 206.94751 
L 82.074262 206.749818 
L 82.944104 206.552125 
L 82.947229 206.453279 
L 84.767636 205.860201 
L 85.453859 205.563663 
L 85.753428 205.267124 
L 85.888818 205.168278 
L 86.773454 204.970585 
L 87.704502 204.674046 
L 88.609046 204.377508 
L 88.708032 204.080969 
L 89.082952 203.78443 
L 89.484611 203.586738 
L 89.646505 203.487891 
L 90.262961 203.290199 
L 90.61832 202.99366 
L 90.827926 202.697121 
L 91.032708 202.499429 
L 91.178856 202.301736 
L 92.170149 201.906351 
L 92.393739 201.510966 
L 92.797183 201.313274 
L 92.979301 201.016735 
L 93.570762 200.720196 
L 93.602713 200.62135 
L 93.999651 200.423658 
L 94.00302 200.324811 
L 94.601689 199.929426 
L 95.74101 199.138656 
L 96.194873 198.940964 
L 96.230153 198.842118 
L 96.464672 198.644425 
L 96.765014 198.446733 
L 97.3886 198.150194 
L 97.450621 198.051348 
L 97.75677 197.853655 
L 97.771791 197.754809 
L 98.084083 197.557116 
L 98.640467 197.161731 
L 98.762518 196.865193 
L 99.091603 196.6675 
L 99.212623 196.469808 
L 101.135151 195.87673 
L 101.654898 195.481345 
L 101.72803 195.283653 
L 102.134763 195.08596 
L 102.846173 194.591729 
L 102.954577 194.492883 
L 103.397602 194.29519 
L 103.758442 193.899805 
L 104.734526 193.702113 
L 104.9142 193.207882 
L 105.258678 193.010189 
L 105.766625 192.417112 
L 106.283793 192.219419 
L 106.547328 191.92288 
L 106.554305 191.824034 
L 108.079786 191.033264 
L 109.027397 190.34134 
L 109.12767 190.044802 
L 109.844884 189.748263 
L 109.938628 189.451724 
L 110.3001 189.155185 
L 111.584675 187.474799 
L 112.058259 187.277107 
L 112.137147 187.079414 
L 113.094743 186.585183 
L 113.117913 186.486337 
L 113.351072 186.288644 
L 113.452328 186.090952 
L 113.465607 185.893259 
L 114.413428 185.300182 
L 114.776186 184.904797 
L 114.835244 184.707104 
L 115.548751 184.212873 
L 115.724267 184.01518 
L 116.212319 183.817488 
L 116.23578 183.718642 
L 116.636886 183.520949 
L 116.782563 183.323257 
L 117.122703 183.125564 
L 117.321869 183.026718 
L 118.145148 182.829025 
L 118.189254 182.730179 
L 118.876407 182.334794 
L 118.887715 182.235948 
L 119.802509 181.64287 
L 119.914894 181.346332 
L 120.071841 181.148639 
L 120.452176 180.950947 
L 120.559632 180.753254 
L 120.669829 180.654408 
L 121.934777 180.160177 
L 122.268215 179.863638 
L 122.502596 179.665946 
L 122.624776 179.369407 
L 122.850232 179.171714 
L 122.854488 179.072868 
L 123.160872 178.875176 
L 123.482097 178.677483 
L 123.610845 178.380944 
L 123.888527 178.183252 
L 124.136789 177.787867 
L 124.165585 177.689021 
L 124.600631 177.392482 
L 125.065042 176.700558 
L 125.317185 176.107481 
L 125.32375 176.008634 
L 125.913393 175.810942 
L 125.96659 175.712096 
L 126.501954 175.316711 
L 126.510967 175.217864 
L 130.088676 172.845554 
L 130.198231 172.549016 
L 130.530735 172.153631 
L 130.547472 172.054784 
L 130.945586 171.857092 
L 131.87555 171.066322 
L 132.159484 170.473244 
L 132.536227 169.979013 
L 132.68485 169.682474 
L 133.63659 169.385936 
L 133.908996 169.089397 
L 133.999983 168.595166 
L 134.121858 168.397473 
L 134.54032 168.199781 
L 135.276256 167.409011 
L 136.352827 167.112472 
L 136.642575 166.717087 
L 137.484249 166.124009 
L 137.49099 166.025163 
L 137.617776 165.926317 
L 138.297483 165.629778 
L 138.791585 165.33324 
L 138.926576 165.135547 
L 139.332434 164.839008 
L 139.574983 164.344777 
L 140.047087 163.949392 
L 140.470679 163.455161 
L 141.021934 163.059776 
L 141.084685 162.862083 
L 141.480544 162.565545 
L 141.514191 162.466698 
L 142.003173 162.269006 
L 142.544203 161.873621 
L 142.933325 161.675928 
L 142.9435 161.577082 
L 143.412651 161.37939 
L 143.6387 160.885158 
L 143.654615 160.786312 
L 143.97599 160.489773 
L 144.608822 160.292081 
L 144.874772 160.094388 
L 144.893907 159.995542 
L 145.386206 159.699003 
L 145.96407 159.204772 
L 146.031154 159.00708 
L 146.405382 158.710541 
L 146.534851 158.315156 
L 146.543575 158.21631 
L 146.901958 158.018617 
L 147.302913 157.623232 
L 147.791591 157.030155 
L 147.939758 156.733616 
L 148.262542 156.437077 
L 148.645903 155.844 
L 149.158837 155.349768 
L 149.330273 155.152076 
L 149.626192 154.855537 
L 149.73851 154.361306 
L 151.183615 153.570536 
L 151.824613 152.68092 
L 152.293741 152.285535 
L 152.313299 152.186688 
L 152.481356 151.988996 
L 152.597804 151.791303 
L 152.880739 151.494765 
L 153.284578 151.297072 
L 156.114959 148.232839 
L 156.12357 148.133992 
L 156.380885 147.9363 
L 156.599075 147.738607 
L 156.833891 147.540915 
L 156.96708 147.244376 
L 157.490271 147.046684 
L 157.565992 146.848991 
L 158.04683 146.651299 
L 158.977314 145.959375 
L 159.355426 145.662836 
L 159.470713 145.366297 
L 159.681786 145.168605 
L 159.813658 144.970912 
L 160.530098 144.476681 
L 160.588227 144.278989 
L 160.776093 144.081296 
L 160.816144 143.883604 
L 161.647992 143.488219 
L 162.307259 143.092834 
L 162.315913 142.993987 
L 162.948052 142.499756 
L 163.02152 142.40091 
L 163.270164 142.203217 
L 163.307817 141.807832 
L 163.724293 141.61014 
L 163.845463 141.313601 
L 164.187857 140.81937 
L 164.194688 140.720524 
L 164.505887 140.522831 
L 164.525912 140.423985 
L 164.990204 140.0286 
L 165.009527 139.929754 
L 165.655608 139.336676 
L 165.720859 139.23783 
L 165.964189 139.040137 
L 166.326677 138.545906 
L 166.536451 138.44706 
L 167.169038 138.249367 
L 167.265014 138.051675 
L 167.575982 137.755136 
L 167.616273 137.65629 
L 168.092687 137.359751 
L 168.415556 137.063213 
L 169.438563 136.766674 
L 169.468121 136.568981 
L 169.875451 136.272443 
L 170.531111 135.382826 
L 170.785554 134.789749 
L 171.311752 134.592056 
L 171.324736 134.49321 
L 171.910429 133.998979 
L 171.926001 133.900133 
L 172.116964 133.70244 
L 172.158557 133.504748 
L 172.956118 132.812824 
L 172.967487 132.713978 
L 173.145246 132.516285 
L 173.249528 132.219746 
L 173.36586 132.022054 
L 173.817589 131.428976 
L 174.072619 131.132438 
L 174.186415 130.934745 
L 174.524671 130.737053 
L 174.552465 130.53936 
L 174.820821 130.341668 
L 174.952922 130.143975 
L 175.754524 129.946283 
L 175.897644 129.452051 
L 175.957602 129.254359 
L 176.405169 128.95782 
L 176.590306 128.562435 
L 176.844657 128.265896 
L 177.336293 127.573973 
L 177.95602 127.079741 
L 178.135626 126.783203 
L 178.259551 126.58551 
L 178.428386 126.387818 
L 178.560968 126.190125 
L 178.984698 125.695894 
L 179.329787 125.498201 
L 179.488096 125.201663 
L 179.908926 125.00397 
L 180.038023 124.806278 
L 180.318126 124.2132 
L 180.693519 124.015508 
L 180.929611 123.817815 
L 181.313924 123.42243 
L 181.31962 123.323584 
L 181.826689 123.027045 
L 181.887864 122.63166 
L 182.515119 122.433968 
L 182.975505 121.643198 
L 183.119232 121.247813 
L 183.471822 121.05012 
L 183.563183 120.753582 
L 184.184729 120.358197 
L 184.219287 120.25935 
L 184.728561 119.863965 
L 184.867367 119.567427 
L 184.96727 119.172042 
L 185.852785 118.776657 
L 186.534964 117.88704 
L 187.418718 117.689348 
L 188.233132 116.997424 
L 188.296344 116.700885 
L 189.642268 115.415884 
L 190.398681 115.119345 
L 191.107279 114.130883 
L 191.612759 113.537805 
L 192.099499 113.340113 
L 192.189832 113.043574 
L 192.694967 112.845882 
L 192.826781 112.648189 
L 193.080986 112.450497 
L 193.209272 112.252804 
L 193.410155 112.055112 
L 193.83204 111.56088 
L 194.656629 111.264342 
L 194.775086 110.967803 
L 195.202093 110.77011 
L 195.635456 110.275879 
L 195.686047 109.880494 
L 195.957544 109.583955 
L 196.026372 109.386263 
L 197.261819 107.804723 
L 197.26255 107.705877 
L 198.110417 107.211646 
L 198.147478 106.915107 
L 198.672014 106.618568 
L 198.698093 106.519722 
L 199.409946 106.223183 
L 199.505334 105.827798 
L 199.748837 105.630106 
L 199.912438 105.432413 
L 200.159978 105.234721 
L 200.510594 104.938182 
L 200.658222 104.641643 
L 200.763325 104.443951 
L 201.174008 104.246258 
L 201.576615 103.752027 
L 201.790029 103.554334 
L 202.064963 103.060103 
L 202.5235 102.862411 
L 203.258384 102.368179 
L 203.519804 102.071641 
L 203.564827 101.873948 
L 204.179701 101.577409 
L 204.234815 101.280871 
L 204.553274 100.885486 
L 205.274 99.600484 
L 205.415329 99.402792 
L 205.496419 99.205099 
L 205.589464 99.106253 
L 205.965032 98.908561 
L 206.249776 98.315483 
L 206.58936 98.117791 
L 207.28128 97.327021 
L 207.531819 97.030482 
L 208.017871 96.338558 
L 208.548632 96.140866 
L 208.617898 95.943173 
L 208.87765 95.745481 
L 208.944435 95.350096 
L 209.748493 94.757018 
L 209.847623 94.559326 
L 210.318897 94.262787 
L 210.376856 94.163941 
L 210.780804 93.966248 
L 210.813812 93.867402 
L 211.283727 93.570863 
L 211.482229 93.076632 
L 212.062463 92.87894 
L 212.062987 92.780093 
L 212.40625 92.483555 
L 212.419487 92.285862 
L 213.106482 92.08817 
L 213.368776 91.890477 
L 213.49163 91.692785 
L 213.776935 91.495092 
L 214.094407 91.198553 
L 214.182216 91.000861 
L 214.911797 90.407783 
L 215.050036 90.210091 
L 215.238788 90.012398 
L 215.745017 89.221628 
L 216.132131 88.92509 
L 216.562722 88.529705 
L 216.868629 88.233166 
L 218.510749 86.750472 
L 218.511512 86.651626 
L 218.815458 86.453933 
L 218.89859 86.157395 
L 218.944552 86.058548 
L 219.238169 85.860856 
L 219.33286 85.564317 
L 219.58652 85.267778 
L 219.615589 85.168932 
L 220.6111 84.773547 
L 221.077635 84.378162 
L 221.381141 84.081623 
L 221.614766 83.587392 
L 221.893196 83.3897 
L 221.995897 83.192007 
L 222.250361 82.994315 
L 222.433526 82.59893 
L 223.132742 82.302391 
L 223.644625 81.610467 
L 223.673096 81.511621 
L 223.876935 81.313928 
L 223.892252 81.215082 
L 224.163479 81.01739 
L 224.292143 80.819697 
L 224.909289 80.22662 
L 225.350777 80.028927 
L 226.002601 79.337004 
L 226.13457 78.941619 
L 227.392645 77.953156 
L 227.794457 77.360079 
L 228.21724 77.162386 
L 228.530366 76.767001 
L 229.163075 76.569309 
L 229.241336 76.371616 
L 229.427839 76.173924 
L 229.551566 75.778539 
L 229.998827 75.482 
L 230.209782 75.284307 
L 230.560019 74.987769 
L 230.572359 74.888922 
L 231.583611 74.098152 
L 231.585401 73.999306 
L 231.729729 73.801614 
L 231.735524 73.603921 
L 232.467068 73.010844 
L 232.795471 72.516612 
L 233.142291 72.121227 
L 234.045748 71.626996 
L 234.132841 71.429304 
L 234.176315 71.330457 
L 235.834211 70.440841 
L 235.866626 70.341995 
L 236.386299 70.045456 
L 236.435213 69.847764 
L 237.077028 69.650071 
L 237.233863 69.15584 
L 237.443598 68.958147 
L 237.626021 68.760455 
L 237.983516 68.266224 
L 238.769278 67.771992 
L 239.04733 67.475454 
L 239.079599 67.376607 
L 240.569671 66.585837 
L 240.722221 66.091606 
L 241.00015 65.893914 
L 241.067643 65.696221 
L 241.328006 65.498529 
L 241.516355 65.103144 
L 242.095007 64.707759 
L 242.343057 64.41122 
L 242.778076 64.213528 
L 243.118578 63.62045 
L 243.35477 63.422758 
L 243.749821 63.126219 
L 244.070133 62.928526 
L 244.40866 62.335449 
L 244.871428 62.137756 
L 246.095712 61.445833 
L 246.43133 60.852755 
L 247.045747 60.259678 
L 247.149775 60.061985 
L 247.569922 59.370061 
L 247.629136 59.172369 
L 247.883295 58.87583 
L 248.262511 57.986214 
L 248.792118 57.788521 
L 249.505477 56.997751 
L 249.545239 56.898905 
L 250.309533 56.701213 
L 250.319398 56.602366 
L 250.491602 56.404674 
L 251.575917 55.317365 
L 251.605172 55.218519 
L 251.975094 55.020826 
L 251.995168 54.92198 
L 252.462709 54.724288 
L 252.771597 54.427749 
L 252.803561 54.328903 
L 253.467876 54.032364 
L 253.479015 53.933518 
L 253.853096 53.735825 
L 254.613574 53.538133 
L 254.63989 53.439286 
L 255.518096 53.142748 
L 255.735338 52.747363 
L 256.28191 52.54967 
L 258.212108 51.165823 
L 258.254659 51.066977 
L 258.612336 50.869284 
L 259.236203 50.078514 
L 259.622556 49.880822 
L 259.97689 49.38659 
L 260.332952 49.188898 
L 261.022229 48.59582 
L 261.297295 48.299282 
L 261.307586 48.200435 
L 262.272369 47.409665 
L 262.436085 46.816588 
L 263.067197 46.520049 
L 263.078945 46.421203 
L 263.476433 46.22351 
L 263.549177 46.124664 
L 264.14393 45.926972 
L 264.391461 45.531587 
L 265.341256 44.444278 
L 265.988231 44.147739 
L 266.544232 43.950047 
L 266.817014 43.752354 
L 267.311665 43.554662 
L 267.504985 43.258123 
L 267.796197 43.06043 
L 268.151832 42.763892 
L 268.318887 42.665045 
L 268.751813 42.467353 
L 268.770005 42.368507 
L 268.925203 42.170814 
L 269.853645 40.68812 
L 270.71827 40.391582 
L 271.117446 39.996197 
L 271.456504 39.798504 
L 271.556054 39.501965 
L 272.041866 39.304273 
L 272.307417 39.10658 
L 272.90255 38.31581 
L 273.032442 38.118118 
L 273.644981 37.920425 
L 273.696067 37.821579 
L 274.055055 37.623887 
L 274.32395 37.426194 
L 274.689106 37.228502 
L 274.991242 36.931963 
L 275.266452 36.734271 
L 275.836911 36.536578 
L 276.177804 36.338886 
L 276.192141 36.240039 
L 276.972105 35.745808 
L 277.07033 35.449269 
L 277.539394 34.955038 
L 277.732914 34.658499 
L 278.377036 34.460807 
L 278.518635 34.361961 
L 279.395764 34.065422 
L 279.671699 33.670037 
L 280.028057 33.472344 
L 280.166643 33.274652 
L 281.262053 32.978113 
L 281.45635 32.681574 
L 281.501683 32.385036 
L 282.171796 32.088497 
L 282.232997 31.890804 
L 283.686107 31.001188 
L 283.716762 30.902342 
L 285.472204 29.913879 
L 286.246506 29.716187 
L 286.644328 29.518494 
L 287.297356 29.320802 
L 287.314619 29.123109 
L 287.884091 28.925417 
L 288.087382 28.727724 
L 288.868911 28.233493 
L 288.975856 27.936954 
L 289.323615 27.739262 
L 289.33701 27.640416 
L 289.606159 27.442723 
L 290.614988 27.146184 
L 290.810082 26.948492 
L 290.842559 26.750799 
L 291.696492 26.454261 
L 291.714237 26.355414 
L 293.365779 25.366952 
L 293.383475 25.268106 
L 294.343079 25.070413 
L 294.674091 24.872721 
L 295.154907 24.279643 
L 295.24841 24.081951 
L 296.172714 23.884258 
L 296.616416 23.390027 
L 297.392609 23.093488 
L 297.647008 22.79695 
L 298.736091 22.500411 
L 298.889369 22.203872 
L 299.929781 22.00618 
L 300.095774 21.907333 
L 300.585675 21.709641 
L 301.205736 21.413102 
L 301.927008 21.21541 
L 301.934751 21.116563 
L 302.837252 20.721178 
L 303.587498 20.42464 
L 303.816593 20.029255 
L 304.81719 19.831562 
L 304.836088 19.732716 
L 305.240046 19.436177 
L 306.524718 19.139638 
L 307.30892 18.941946 
L 310.269404 18.645407 
L 310.287152 18.447715 
L 312.968484 18.250022 
L 314.040035 17.953483 
L 318.372651 17.656945 
L 321.512681 17.459252 
L 328.41912 17.26156 
L 349.684943 17.162713 
L 349.684943 17.162713 
" clip-path="url(#p9ed382247f)" style="fill: none; stroke: #1f77b4; stroke-width: 1.5; stroke-linecap: square"/>
   </g>
   <g id="line2d_15">
    <path d="M 93.194169 214.756364 
L 101.545775 214.608094 
L 103.099708 214.262132 
L 103.147823 214.163286 
L 105.507146 213.619632 
L 105.705256 213.323093 
L 106.844515 212.878285 
L 108.291927 212.581746 
L 108.507628 212.433477 
L 109.08375 212.235784 
L 109.854485 211.395591 
L 109.979048 211.197899 
L 110.007905 211.148476 
L 110.228039 211.000206 
L 110.421151 210.802514 
L 111.243746 210.555398 
L 111.555312 210.209436 
L 111.76949 209.962321 
L 112.260742 209.665782 
L 112.291403 209.616359 
L 112.651028 209.418666 
L 112.793789 209.270397 
L 115.008894 208.232511 
L 115.245614 207.787703 
L 115.422451 207.590011 
L 115.423828 207.540588 
L 115.896639 207.342895 
L 116.021298 207.046356 
L 116.131023 206.94751 
L 116.293181 206.799241 
L 117.121215 206.15674 
L 117.188562 205.959048 
L 117.957154 205.613086 
L 117.95997 205.563663 
L 118.341462 205.316547 
L 118.411303 205.069431 
L 119.31521 204.525777 
L 119.508291 204.377508 
L 119.874405 204.229238 
L 120.073 203.982123 
L 120.376084 203.735007 
L 120.555099 203.487891 
L 121.583826 202.598275 
L 121.599557 202.548852 
L 121.951558 202.351159 
L 122.712802 201.560389 
L 122.880047 201.461543 
L 123.186721 201.165005 
L 123.260824 200.967312 
L 124.511847 199.83058 
L 124.866366 199.18808 
L 125.228714 199.03981 
L 125.360758 198.842118 
L 126.158192 198.545579 
L 126.383681 198.39731 
L 126.539533 198.24904 
L 126.788364 197.903078 
L 126.884506 197.655963 
L 127.458719 196.865193 
L 127.523302 196.6675 
L 127.807967 196.420385 
L 128.210304 195.926153 
L 130.071411 194.394036 
L 130.269294 193.998652 
L 130.271502 193.949228 
L 130.485954 193.800959 
L 130.576879 193.553843 
L 131.050148 193.109035 
L 131.253469 192.911343 
L 131.316294 192.71365 
L 131.535634 192.565381 
L 131.705726 192.367688 
L 132.082337 192.021727 
L 132.128493 191.92288 
L 132.345381 191.725188 
L 132.440301 191.478072 
L 132.656017 191.230957 
L 132.726234 191.13211 
L 133.277276 190.934418 
L 133.397837 190.687302 
L 133.515152 190.539033 
L 133.632199 190.390763 
L 133.779579 190.242494 
L 133.890083 189.945955 
L 134.053029 189.69884 
L 134.920344 188.809223 
L 135.173957 188.413838 
L 135.62076 188.166723 
L 135.948864 187.573645 
L 136.080185 187.32653 
L 136.519043 186.684029 
L 136.998209 186.189798 
L 137.193682 185.74499 
L 137.301306 185.497874 
L 137.793842 185.053066 
L 138.144635 184.855374 
L 138.28286 184.657681 
L 139.310007 183.422103 
L 139.384099 183.273834 
L 139.593504 183.026718 
L 139.731329 182.730179 
L 139.827982 182.532487 
L 140.050064 181.988832 
L 140.302608 181.692294 
L 140.760712 181.198062 
L 140.928224 180.901524 
L 141.34167 180.604985 
L 141.42129 180.456715 
L 141.745255 180.2096 
L 142.904258 178.726906 
L 143.27603 178.479791 
L 143.570603 178.282098 
L 143.845658 178.084406 
L 144.055704 177.83729 
L 144.198463 177.689021 
L 144.278515 177.590174 
L 144.387499 177.392482 
L 144.475894 177.145366 
L 144.965029 176.700558 
L 145.138884 176.206327 
L 145.866674 175.613249 
L 147.740676 172.746708 
L 148.130196 172.499593 
L 148.314716 172.3019 
L 149.070459 171.412284 
L 149.182577 171.264014 
L 149.278939 171.115745 
L 151.83563 167.656126 
L 151.982623 167.458434 
L 152.644487 166.420548 
L 152.847773 166.173433 
L 152.966805 165.926317 
L 153.293777 165.728624 
L 153.392685 165.481509 
L 153.455944 165.382663 
L 153.554203 165.234393 
L 153.707433 164.937855 
L 153.817295 164.789585 
L 153.976869 164.641316 
L 154.224819 164.295354 
L 154.482103 163.998815 
L 154.640493 163.801123 
L 155.17344 163.208045 
L 155.234294 163.059776 
L 155.501897 162.763237 
L 155.919598 162.120736 
L 156.200695 161.972467 
L 156.313422 161.824198 
L 156.65251 161.428813 
L 156.730006 161.23112 
L 156.913019 160.934581 
L 157.083835 160.58862 
L 157.258358 160.390927 
L 157.570392 159.995542 
L 157.964539 159.64958 
L 158.22349 159.155349 
L 158.387602 158.957656 
L 158.402245 158.908233 
L 158.704774 158.759964 
L 159.054909 158.117463 
L 160.048534 156.585347 
L 160.209178 156.091115 
L 160.370079 155.844 
L 160.766959 155.152076 
L 160.836427 154.954383 
L 161.185488 154.657845 
L 161.561145 153.965921 
L 161.995648 153.669382 
L 162.145456 153.372843 
L 162.321565 153.125728 
L 162.727052 152.384381 
L 163.034726 152.137265 
L 164.126081 150.654572 
L 164.215517 150.506302 
L 164.511289 150.16034 
L 164.571731 149.962648 
L 164.820352 149.715532 
L 165.197645 149.320147 
L 165.389434 149.122455 
L 165.555019 148.825916 
L 165.673889 148.72707 
L 165.791493 148.529377 
L 165.905877 148.331685 
L 166.406438 147.886877 
L 167.34368 146.552452 
L 167.592305 146.35476 
L 168.223515 145.56399 
L 168.355342 145.168605 
L 168.593184 145.020335 
L 168.727598 144.822643 
L 169.033096 144.476681 
L 169.216976 144.081296 
L 169.321719 143.883604 
L 170.157581 142.598602 
L 170.387456 142.351487 
L 170.704193 141.956102 
L 170.974132 141.363024 
L 171.260633 140.671101 
L 173.183314 137.903406 
L 173.326867 137.606867 
L 173.733821 137.063213 
L 173.846943 136.816097 
L 173.955065 136.519558 
L 173.990119 136.470135 
L 174.241652 136.321866 
L 174.329986 136.124173 
L 174.659694 135.728788 
L 175.156999 135.036864 
L 175.431862 134.888595 
L 175.521883 134.690903 
L 175.784911 134.49321 
L 176.056478 133.949556 
L 176.224984 133.603594 
L 176.458395 133.208209 
L 176.61773 132.91167 
L 177.055671 132.269169 
L 177.278662 131.972631 
L 177.423998 131.676092 
L 177.568504 131.478399 
L 177.654467 131.132438 
L 177.769558 130.984168 
L 177.921125 130.588783 
L 178.157379 130.391091 
L 178.681456 129.798013 
L 179.425075 128.611858 
L 179.635054 128.414166 
L 180.453158 127.178588 
L 180.728541 126.980895 
L 180.877909 126.684356 
L 181.168433 126.288971 
L 181.261839 126.190125 
L 181.867966 125.448778 
L 182.010796 125.251086 
L 182.067463 124.954547 
L 182.236244 124.806278 
L 182.442408 124.2132 
L 182.642921 123.718969 
L 182.722725 123.521276 
L 183.181353 123.274161 
L 183.361498 122.63166 
L 183.445021 122.483391 
L 183.522235 122.335122 
L 184.085486 121.84089 
L 184.206796 121.643198 
L 184.346653 121.445505 
L 184.805388 120.704158 
L 185.020039 120.308773 
L 185.087231 120.012235 
L 185.230686 119.863965 
L 185.327006 119.567427 
L 185.467792 119.419157 
L 185.759035 119.172042 
L 185.874492 119.023772 
L 185.980468 118.82608 
L 186.118598 118.480118 
L 186.218009 118.282425 
L 186.727418 118.084733 
L 186.900268 117.88704 
L 187.179278 117.639925 
L 187.572567 116.948001 
L 188.326089 116.058385 
L 188.415374 115.910115 
L 188.523388 115.712423 
L 188.62339 115.415884 
L 189.05768 114.971076 
L 189.353841 114.180306 
L 189.807723 113.735498 
L 191.172045 111.659727 
L 191.326572 111.313765 
L 191.590383 110.91838 
L 191.71775 110.77011 
L 192.867476 109.237994 
L 193.057033 108.793186 
L 193.328762 108.644916 
L 193.473808 108.397801 
L 193.752492 107.854146 
L 193.982471 107.656454 
L 194.886933 106.618568 
L 194.986881 106.420876 
L 195.38212 106.074914 
L 195.524045 105.926644 
L 195.650395 105.679529 
L 195.878435 105.284144 
L 195.961226 105.185297 
L 196.191358 104.987605 
L 196.334188 104.641643 
L 196.597288 103.900296 
L 196.853535 103.603757 
L 197.008371 103.307219 
L 197.180122 103.109526 
L 197.497027 102.516449 
L 197.786218 102.121064 
L 198.074482 101.626833 
L 198.379734 101.280871 
L 198.473038 101.132601 
L 198.973641 100.341831 
L 198.992751 100.292408 
L 199.345133 100.144139 
L 199.463781 99.8476 
L 199.762794 99.501638 
L 201.080264 97.425867 
L 201.269591 97.277598 
L 201.550729 96.931636 
L 201.866386 96.68452 
L 202.05507 96.486828 
L 202.176734 96.239712 
L 202.358137 95.745481 
L 202.436255 95.547788 
L 202.642794 95.251249 
L 202.753222 95.053557 
L 203.035143 94.658172 
L 203.183351 94.411056 
L 203.938266 93.224901 
L 203.991396 92.977786 
L 204.239753 92.631824 
L 204.245636 92.582401 
L 204.498669 92.384708 
L 204.657104 92.236439 
L 205.752197 91.000861 
L 205.905527 90.852591 
L 206.06368 90.556053 
L 206.312717 90.111245 
L 206.540473 89.913552 
L 208.018378 87.294127 
L 208.300624 87.096434 
L 208.516951 86.750472 
L 208.797794 86.55278 
L 208.908582 86.305664 
L 209.161088 86.058548 
L 209.485451 85.465471 
L 209.679078 85.267778 
L 210.298188 84.279316 
L 210.565409 83.982777 
L 210.709089 83.735662 
L 210.844989 83.537969 
L 210.966869 83.340277 
L 211.107263 83.093161 
L 211.291871 82.747199 
L 211.481163 82.500083 
L 211.574864 82.401237 
L 212.000441 81.857583 
L 212.17624 81.561044 
L 212.504727 81.066813 
L 212.610945 80.918543 
L 212.781685 80.622005 
L 213.030912 80.127774 
L 213.193588 79.880658 
L 213.416647 79.43585 
L 213.544472 79.28758 
L 213.639837 79.040465 
L 213.718352 78.941619 
L 214.121975 78.743926 
L 214.476743 78.052002 
L 214.564089 77.85431 
L 214.990282 77.458925 
L 215.110762 77.310655 
L 215.213914 77.112963 
L 215.590078 76.717578 
L 215.716186 76.618732 
L 216.088538 75.976231 
L 216.282559 75.630269 
L 216.443374 75.33373 
L 216.75765 75.037192 
L 216.966811 74.592384 
L 217.192182 74.394691 
L 217.330743 74.295845 
L 217.614001 74.048729 
L 217.835462 73.702767 
L 217.99959 73.505075 
L 218.452898 72.961421 
L 218.522438 72.763728 
L 218.621586 72.566036 
L 218.96694 72.121227 
L 219.35541 71.626996 
L 219.445081 71.52815 
L 221.297118 68.958147 
L 221.389523 68.809878 
L 221.512722 68.661609 
L 221.824016 68.216801 
L 222.062164 68.068531 
L 222.279455 67.771992 
L 222.361874 67.623723 
L 222.580243 67.426031 
L 222.682532 67.277761 
L 222.864426 67.080069 
L 223.019701 66.832953 
L 223.138124 66.684684 
L 223.248177 66.486991 
L 223.456276 66.042183 
L 223.883388 65.844491 
L 224.218517 65.152567 
L 224.432472 65.004298 
L 225.203397 63.867566 
L 225.438459 63.472181 
L 225.626627 63.225065 
L 225.705024 63.076796 
L 225.990519 62.928526 
L 226.272536 62.533141 
L 226.288591 62.434295 
L 226.471336 62.236603 
L 227.052642 61.643525 
L 228.298912 59.864293 
L 228.400615 59.716023 
L 229.301089 58.480445 
L 229.325861 58.282753 
L 229.60443 58.035637 
L 229.736453 57.837945 
L 229.943899 57.689675 
L 230.062609 57.44256 
L 230.549127 56.454097 
L 230.821708 56.256405 
L 231.278429 55.811596 
L 231.457751 55.515058 
L 231.988417 55.07025 
L 232.482048 54.576018 
L 232.607211 54.378326 
L 232.842412 54.13121 
L 232.939381 53.834671 
L 233.325166 53.142748 
L 233.459528 52.895632 
L 234.288583 51.90717 
L 234.370433 51.660054 
L 234.665161 51.462362 
L 234.694578 51.412938 
L 235.081103 51.215246 
L 235.275525 50.918707 
L 235.505227 50.770438 
L 235.815402 50.572745 
L 236.064969 50.17736 
L 236.264691 49.979668 
L 236.646484 49.53486 
L 236.788498 49.337167 
L 236.931279 49.090052 
L 237.418423 48.74409 
L 237.53282 48.398128 
L 238.288785 47.310819 
L 238.461183 47.063703 
L 239.43141 45.877548 
L 239.541012 45.729279 
L 239.769235 45.43274 
L 239.873807 45.037355 
L 239.940488 44.839663 
L 240.030723 44.64197 
L 240.34247 44.394855 
L 240.407262 44.296009 
L 240.727165 44.147739 
L 240.966879 43.702931 
L 241.050149 43.505239 
L 241.137512 43.307546 
L 241.979997 42.319084 
L 242.052295 42.220237 
L 242.221582 42.022545 
L 242.754178 41.429467 
L 242.926246 41.281198 
L 243.195978 40.984659 
L 243.936708 40.04562 
L 244.210231 39.847927 
L 244.241324 39.749081 
L 244.858023 39.501965 
L 244.946241 39.353696 
L 245.246764 39.10658 
L 245.300309 38.859465 
L 246.333673 38.068695 
L 246.520138 37.772156 
L 246.719789 37.426194 
L 247.604033 36.536578 
L 248.112185 35.943501 
L 248.170666 35.844654 
L 248.453323 35.548116 
L 248.617407 35.449269 
L 248.976936 35.202154 
L 249.237057 35.004461 
L 249.455675 34.856192 
L 249.594685 34.658499 
L 250.190425 34.361961 
L 250.345865 34.114845 
L 250.612513 33.966576 
L 250.910111 33.521767 
L 251.189292 33.373498 
L 251.249016 33.274652 
L 251.467414 33.027536 
L 251.542704 32.879267 
L 252.106913 32.582728 
L 252.218002 32.434459 
L 253.771832 30.803496 
L 254.203636 30.605803 
L 254.784673 29.963303 
L 254.888868 29.815033 
L 255.043016 29.666764 
L 255.073413 29.567918 
L 255.431644 29.320802 
L 255.458067 29.221956 
L 255.926023 28.925417 
L 255.953424 28.875994 
L 256.329006 28.678301 
L 256.536491 28.233493 
L 256.902406 27.936954 
L 257.068105 27.689839 
L 257.11095 27.541569 
L 257.396039 27.343877 
L 257.607527 27.146184 
L 257.804999 26.849646 
L 258.409868 26.651953 
L 259.227405 26.009453 
L 259.316638 25.910606 
L 259.53164 25.712914 
L 259.893676 25.515221 
L 260.050437 25.366952 
L 260.183275 25.070413 
L 260.77825 24.872721 
L 261.870298 23.637143 
L 262.360922 23.43945 
L 262.416367 23.340604 
L 264.119762 22.401565 
L 264.455815 22.203872 
L 264.957127 21.907333 
L 265.68531 21.413102 
L 266.203166 21.264833 
L 266.476118 21.116563 
L 266.821453 20.918871 
L 266.95857 20.671755 
L 267.69133 20.226947 
L 268.090142 20.078678 
L 268.140673 19.930408 
L 268.965309 19.683293 
L 269.83026 19.238485 
L 271.361459 18.398291 
L 274.761672 17.706368 
L 275.046513 17.508675 
L 278.004577 17.360406 
L 280.677829 17.162713 
L 282.166752 17.11329 
L 282.166752 17.11329 
" clip-path="url(#p9ed382247f)" style="fill: none; stroke: #ff7f0e; stroke-width: 1.5; stroke-linecap: square"/>
   </g>
   <g id="line2d_16">
    <path d="M 113.943326 214.756364 
L 116.935322 214.624569 
L 117.174637 214.525722 
L 118.702224 214.295081 
L 118.782317 214.229184 
L 118.888336 214.163286 
L 119.636193 213.998542 
L 119.920345 213.932645 
L 120.727368 213.734952 
L 121.619342 213.27367 
L 122.046606 213.108926 
L 123.411758 212.384054 
L 123.951066 211.988669 
L 124.254678 211.856874 
L 124.36707 211.725079 
L 124.527031 211.560335 
L 124.576519 211.42854 
L 125.01164 211.197899 
L 125.098272 211.132001 
L 125.290855 211.000206 
L 126.386602 210.37418 
L 126.551708 210.275334 
L 126.855304 210.011744 
L 126.92064 209.945846 
L 127.210196 209.748154 
L 127.77272 208.957384 
L 128.012854 208.79264 
L 128.15293 208.660845 
L 128.458094 208.166614 
L 128.707648 207.903024 
L 128.98668 207.73828 
L 129.939228 206.815715 
L 130.110711 206.585074 
L 130.115102 206.552125 
L 130.3566 206.42033 
L 130.488054 206.321484 
L 130.796533 206.057894 
L 130.899641 205.89315 
L 131.342101 205.563663 
L 131.499023 205.267124 
L 131.695979 205.069431 
L 132.366753 204.476354 
L 132.565702 204.344559 
L 132.608431 204.245713 
L 132.843771 204.080969 
L 133.063315 203.850328 
L 133.609638 203.191353 
L 133.86006 202.99366 
L 133.888338 202.828916 
L 134.123607 202.664173 
L 134.279514 202.433531 
L 134.701969 202.169941 
L 134.815881 202.071095 
L 135.052002 201.840454 
L 135.140361 201.67571 
L 135.359394 201.510966 
L 135.42234 201.379171 
L 135.698925 201.181479 
L 135.79645 201.049684 
L 136.238533 200.588401 
L 136.962091 199.731734 
L 137.204132 199.501093 
L 137.303385 199.336349 
L 137.375617 199.138656 
L 137.533246 198.940964 
L 138.100701 198.347886 
L 138.914576 197.161731 
L 138.953634 197.095834 
L 139.099132 196.93109 
L 139.415534 196.6675 
L 139.883774 195.942628 
L 140.036061 195.679038 
L 140.407403 195.184806 
L 140.707331 194.921216 
L 141.252945 194.097498 
L 141.428805 193.866857 
L 142.079615 192.944292 
L 142.545134 192.647753 
L 142.923973 192.087624 
L 143.039503 191.92288 
L 143.249653 191.527495 
L 143.639342 191.296854 
L 143.851935 190.86852 
L 144.277281 190.473135 
L 144.545311 190.011853 
L 144.655623 189.847109 
L 145.011797 189.385827 
L 145.166449 189.188134 
L 145.995987 187.606594 
L 146.195781 187.375953 
L 146.405659 187.013517 
L 146.62559 186.716978 
L 146.823252 186.585183 
L 146.974405 186.354542 
L 147.212944 186.156849 
L 147.314883 185.827362 
L 147.551628 185.662618 
L 147.773458 185.464925 
L 147.899757 185.201335 
L 148.695374 183.916334 
L 148.946251 183.784539 
L 149.130734 183.455052 
L 149.288741 183.323257 
L 149.365638 183.092615 
L 149.537154 182.927872 
L 149.726631 182.367743 
L 149.904792 182.104153 
L 150.13692 181.774665 
L 150.316223 181.609922 
L 150.487503 181.346332 
L 150.615031 181.181588 
L 150.797851 180.753254 
L 150.985455 180.489664 
L 151.08502 180.32492 
L 152.425788 178.512739 
L 152.585577 178.150303 
L 152.673322 177.919662 
L 152.884944 177.623123 
L 153.093078 177.392482 
L 153.376383 176.832353 
L 153.497568 176.634661 
L 154.223369 175.382608 
L 154.338202 175.151967 
L 154.429912 174.921326 
L 155.66268 172.845554 
L 155.849767 172.680811 
L 156.022183 172.351323 
L 156.203377 172.153631 
L 156.365995 171.857092 
L 156.453297 171.725297 
L 156.585773 171.560553 
L 156.796871 170.934527 
L 157.015979 170.769783 
L 157.11891 170.539142 
L 157.228191 170.341449 
L 157.656073 169.484782 
L 157.813863 169.254141 
L 158.330785 168.364524 
L 158.526285 168.199781 
L 159.140727 167.211318 
L 159.426613 166.651189 
L 159.68102 166.354651 
L 160.170037 165.530932 
L 160.337308 165.234393 
L 160.495908 165.003752 
L 160.626778 164.839008 
L 161.04735 164.311828 
L 161.163328 163.982341 
L 161.389101 163.685802 
L 161.517943 163.48811 
L 161.702745 163.257468 
L 161.859321 162.96093 
L 162.024003 162.664391 
L 162.236169 162.137211 
L 162.375304 161.939518 
L 163.053489 160.951056 
L 163.215158 160.555671 
L 163.525621 160.028491 
L 163.734649 159.764901 
L 164.150798 159.171823 
L 164.269736 158.908233 
L 164.560549 158.348105 
L 164.932612 157.853873 
L 165.335769 157.293745 
L 165.49079 157.063103 
L 165.827314 156.404128 
L 165.933032 156.206436 
L 166.052515 155.909897 
L 166.436434 155.382717 
L 166.761643 154.52605 
L 166.853286 154.361306 
L 166.951091 154.130665 
L 167.06786 153.867075 
L 167.26975 153.537587 
L 167.736709 153.142202 
L 167.914546 152.68092 
L 168.695359 151.395919 
L 168.815149 151.264124 
L 168.891108 151.000534 
L 169.128983 150.802841 
L 169.211718 150.5722 
L 169.295482 150.242712 
L 169.577954 149.913225 
L 169.760313 149.583737 
L 169.921365 149.089506 
L 170.144009 148.924762 
L 171.220198 146.980786 
L 171.360512 146.750145 
L 171.478366 146.486555 
L 171.804085 145.82758 
L 172.276965 145.168605 
L 172.387888 144.937964 
L 172.498048 144.641425 
L 172.822713 143.751809 
L 172.942147 143.554116 
L 173.297529 143.356424 
L 173.843556 142.236166 
L 174.335835 141.61014 
L 174.495204 141.379499 
L 174.787896 140.786421 
L 174.908808 140.325139 
L 175.03673 140.160395 
L 175.133112 139.995651 
L 175.188858 139.797959 
L 175.305605 139.666164 
L 175.508419 139.402574 
L 175.740206 138.875394 
L 175.991361 138.414111 
L 176.102467 138.216419 
L 176.23638 138.051675 
L 176.352864 137.853982 
L 176.491676 137.689239 
L 176.905082 136.832571 
L 177.059629 136.568981 
L 177.202062 136.140648 
L 177.7973 134.855646 
L 177.907139 134.49321 
L 178.240264 133.834235 
L 178.492326 133.372953 
L 178.816233 132.812824 
L 179.092602 132.252695 
L 179.198195 132.087951 
L 179.834475 131.099489 
L 179.966991 130.835899 
L 180.260292 130.407565 
L 180.382977 130.111026 
L 180.49872 129.946283 
L 182.315254 126.519613 
L 182.419454 126.354869 
L 182.606299 126.157176 
L 182.731761 125.860638 
L 182.870208 125.728843 
L 184.130464 123.323584 
L 184.294046 123.15884 
L 184.356709 123.027045 
L 184.549218 122.829353 
L 184.752866 122.36807 
L 184.956636 122.137429 
L 185.085945 121.84089 
L 185.193774 121.643198 
L 185.285537 121.511403 
L 185.407553 121.148967 
L 185.513986 120.852428 
L 185.709199 120.654735 
L 185.86708 120.292299 
L 185.947831 120.193453 
L 186.138629 119.99576 
L 187.346592 117.656399 
L 187.61903 116.964475 
L 187.946676 116.536142 
L 188.179654 116.272552 
L 188.262491 116.107808 
L 188.477576 115.646525 
L 188.696435 115.382935 
L 188.805774 114.954602 
L 189.644578 113.966139 
L 190.847118 111.29729 
L 190.98083 111.132547 
L 191.095701 111.000752 
L 192.063686 108.92498 
L 192.230144 108.727288 
L 192.352067 108.364852 
L 192.412011 108.200108 
L 192.694288 107.574082 
L 193.839351 105.630106 
L 194.215596 105.069977 
L 194.333531 104.806387 
L 194.393253 104.608694 
L 194.53953 104.279207 
L 194.694631 103.982668 
L 194.836771 103.620232 
L 194.995244 103.323693 
L 195.279295 102.796513 
L 195.451887 102.598821 
L 195.617338 102.434077 
L 195.746858 102.269333 
L 195.879438 102.038692 
L 196.282915 101.346768 
L 196.538634 101.083178 
L 196.66598 100.786639 
L 196.834292 100.457152 
L 197.07358 100.160613 
L 197.350449 99.732279 
L 197.4417 99.501638 
L 197.607937 99.270997 
L 197.919704 98.612022 
L 198.109727 98.249586 
L 198.252999 98.051893 
L 198.359528 97.788303 
L 198.532243 97.590611 
L 198.704042 97.294072 
L 198.785684 97.030482 
L 198.965982 96.437404 
L 199.314474 96.009071 
L 200.676962 93.636761 
L 200.747325 93.472017 
L 200.94701 93.340222 
L 201.055311 93.010735 
L 201.422199 92.516503 
L 201.582605 92.187016 
L 201.679266 91.989323 
L 202.948248 89.946501 
L 203.024887 89.814706 
L 203.163328 89.649962 
L 203.870666 88.562653 
L 203.989388 88.364961 
L 204.54812 87.508293 
L 204.662985 87.310601 
L 204.831917 87.047011 
L 205.261677 86.355087 
L 205.321799 86.058548 
L 205.463368 85.893805 
L 206.25865 84.312265 
L 206.461148 84.048675 
L 206.579199 83.719187 
L 206.8469 83.257905 
L 206.964236 82.961366 
L 211.192031 75.514949 
L 211.59041 74.790076 
L 211.700832 74.592384 
L 211.875139 74.328794 
L 211.999649 74.131101 
L 212.511257 73.406229 
L 212.61195 73.208536 
L 216.343537 66.651735 
L 216.566039 66.454042 
L 216.670761 66.190452 
L 216.851794 65.828016 
L 217.090749 65.564426 
L 217.352329 64.971349 
L 217.505897 64.806605 
L 218.871517 62.599039 
L 219.149733 62.203654 
L 219.295138 61.907115 
L 219.470491 61.742371 
L 220.000065 60.819806 
L 220.106549 60.688011 
L 220.31419 60.358524 
L 220.408874 60.061985 
L 220.560263 59.864293 
L 220.669352 59.633651 
L 220.786853 59.435959 
L 220.948714 59.271215 
L 221.20931 59.007625 
L 221.696265 58.08506 
L 222.066862 57.327239 
L 222.244443 57.096598 
L 223.403639 55.383263 
L 223.555401 55.152621 
L 223.894185 54.625441 
L 224.140877 54.361851 
L 225.379981 52.450824 
L 225.582775 52.187234 
L 225.784148 51.7589 
L 226.171123 51.363515 
L 226.371515 50.836335 
L 226.649213 50.605694 
L 227.349013 49.485437 
L 227.578174 49.123 
L 227.713292 48.826462 
L 227.832311 48.727615 
L 227.995598 48.464025 
L 228.253662 47.903897 
L 228.462177 47.54146 
L 228.557354 47.343768 
L 228.738766 47.179024 
L 228.852682 47.01428 
L 231.897316 42.500302 
L 232.012788 42.335558 
L 232.342845 42.104917 
L 234.101428 39.600812 
L 234.21965 39.37017 
L 234.283118 39.238375 
L 234.572541 39.040683 
L 234.581168 39.007734 
L 234.996533 38.810042 
L 236.033068 37.162604 
L 236.111533 36.931963 
L 236.428216 36.635424 
L 236.536894 36.503629 
L 237.570896 35.152731 
L 237.892748 34.757346 
L 238.554374 33.801832 
L 238.717557 33.637088 
L 239.378559 32.780421 
L 239.837491 32.286189 
L 240.098358 32.022599 
L 240.285189 31.857856 
L 240.504501 31.759009 
L 240.608042 31.627214 
L 240.734281 31.429522 
L 240.912792 31.264778 
L 241.12832 30.836444 
L 241.670421 30.375162 
L 241.966832 30.045674 
L 242.181328 29.683238 
L 242.318256 29.485546 
L 242.636937 29.123109 
L 242.741675 29.057212 
L 243.308304 28.562981 
L 243.599769 28.200544 
L 243.860119 28.002852 
L 244.238481 27.607467 
L 244.446619 27.245031 
L 244.669874 27.080287 
L 244.912222 26.816697 
L 245.198606 26.619004 
L 245.325756 26.454261 
L 245.704765 26.190671 
L 245.870223 25.960029 
L 246.44576 25.432849 
L 246.836692 24.872721 
L 247.188543 24.707977 
L 247.30172 24.411438 
L 247.397416 24.213746 
L 247.720856 24.049002 
L 247.9798 23.752463 
L 248.105638 23.620668 
L 248.48659 23.291181 
L 248.695691 23.093488 
L 248.786046 22.961693 
L 249.332974 22.53336 
L 249.391919 22.434513 
L 249.774645 22.26977 
L 252.34837 19.963357 
L 252.75817 19.798613 
L 253.044273 19.436177 
L 253.283789 19.271433 
L 253.423211 19.139638 
L 254.085922 18.744253 
L 254.361442 18.513612 
L 255.520016 18.31592 
L 255.749689 18.151176 
L 256.381191 18.019381 
L 258.070019 17.492201 
L 260.753271 17.162713 
L 264.534841 17.096816 
L 264.534841 17.096816 
" clip-path="url(#p9ed382247f)" style="fill: none; stroke: #2ca02c; stroke-width: 1.5; stroke-linecap: square"/>
   </g>
   <g id="line2d_17">
    <path d="M 125.304096 214.756364 
L 127.948037 214.608094 
L 128.634237 214.435113 
L 129.248591 214.237421 
L 129.706538 214.089151 
L 129.952259 213.990305 
L 130.346381 213.767901 
L 130.412888 213.718478 
L 130.672002 213.570209 
L 130.797474 213.471362 
L 131.527583 213.150112 
L 132.039194 212.977131 
L 132.754227 212.4829 
L 132.936248 212.211073 
L 133.264112 212.01338 
L 133.427522 211.815688 
L 133.977069 211.395591 
L 134.071941 211.272033 
L 134.568489 210.926072 
L 134.797262 210.728379 
L 135.354014 210.135302 
L 136.097353 209.492801 
L 136.429983 209.146839 
L 136.635563 209.023281 
L 136.721789 208.949147 
L 136.891792 208.776166 
L 137.795482 207.688857 
L 138.055765 207.41703 
L 138.178892 207.318183 
L 138.335942 207.169914 
L 138.457227 207.021645 
L 138.505391 206.94751 
L 138.798035 206.774529 
L 139.176455 206.230875 
L 139.342537 206.057894 
L 140.450927 204.748181 
L 140.71272 204.377508 
L 141.230286 203.685584 
L 141.510108 203.216064 
L 143.824475 200.077696 
L 144.016374 199.805869 
L 144.635344 198.743271 
L 144.844928 198.595002 
L 144.963278 198.422021 
L 145.183564 198.026636 
L 145.432845 197.45827 
L 145.754092 197.161731 
L 145.869505 196.865193 
L 145.983619 196.6675 
L 146.879881 195.604903 
L 146.976199 195.407211 
L 147.21577 195.135383 
L 148.077666 193.529132 
L 148.222266 193.232593 
L 148.334266 193.084324 
L 148.775618 192.540669 
L 149.457818 191.478072 
L 149.57943 191.230957 
L 149.818479 190.786148 
L 150.758454 189.22932 
L 150.872334 188.957493 
L 151.154308 188.611531 
L 151.421228 188.290281 
L 151.553351 187.993742 
L 151.929468 187.425376 
L 152.274996 186.708741 
L 152.342739 186.634606 
L 152.593689 186.412202 
L 152.68317 186.189798 
L 152.880219 185.942682 
L 152.989457 185.769701 
L 153.094888 185.547297 
L 155.111181 182.285371 
L 155.235077 182.087679 
L 155.323077 181.840563 
L 155.930328 180.53085 
L 156.042105 180.407292 
L 156.226843 180.086042 
L 156.293147 179.937773 
L 156.424736 179.789503 
L 157.003482 179.196426 
L 157.097777 178.924599 
L 157.203877 178.652771 
L 157.319959 178.479791 
L 157.876757 177.293636 
L 157.982277 177.095943 
L 158.217212 176.478154 
L 158.789531 175.440268 
L 159.345735 174.600075 
L 159.441691 174.303537 
L 159.539586 174.105844 
L 159.717632 173.809305 
L 159.914649 173.488055 
L 160.093293 172.944401 
L 160.97189 171.387572 
L 161.072071 171.18988 
L 161.493716 170.522668 
L 161.728796 170.151994 
L 161.836319 169.979013 
L 162.002276 169.435359 
L 162.087243 169.287089 
L 162.331341 169.015262 
L 162.495092 168.619877 
L 162.635661 168.422185 
L 162.758009 168.125646 
L 168.777125 156.783039 
L 168.880897 156.63477 
L 168.965065 156.461789 
L 169.072344 156.189962 
L 169.223006 155.918134 
L 169.337158 155.572172 
L 170.527532 153.076305 
L 170.633729 152.829189 
L 170.735345 152.656208 
L 171.19786 151.593611 
L 171.537616 150.876976 
L 171.669167 150.728706 
L 171.923788 150.135629 
L 172.073241 149.888513 
L 172.32805 149.270724 
L 173.130304 147.78803 
L 173.818059 146.330048 
L 173.913473 146.008798 
L 174.067207 145.761682 
L 174.250286 145.489855 
L 174.704332 144.575527 
L 174.854114 144.254277 
L 174.964579 144.106008 
L 175.092068 143.858892 
L 175.448511 143.142257 
L 175.555992 142.944564 
L 175.823132 142.252641 
L 176.058839 141.708986 
L 176.139165 141.511294 
L 176.328572 141.115909 
L 177.794242 138.249367 
L 177.898124 137.878694 
L 178.681407 136.371289 
L 178.771372 136.148885 
L 178.892942 135.728788 
L 179.213544 135.259268 
L 179.327452 135.110999 
L 179.395814 134.888595 
L 179.530436 134.49321 
L 179.670667 134.147248 
L 179.80461 133.900133 
L 179.98855 133.529459 
L 180.099349 133.23292 
L 180.386629 132.689266 
L 180.519631 132.516285 
L 180.649213 132.343304 
L 180.814847 131.972631 
L 181.158598 131.206572 
L 181.311042 130.885322 
L 181.651176 130.21811 
L 181.724721 130.020417 
L 181.831983 129.699167 
L 182.013727 129.377917 
L 182.318208 128.760128 
L 182.448642 128.414166 
L 182.585401 127.919935 
L 182.736051 127.598684 
L 182.881627 127.37628 
L 183.054141 127.153876 
L 184.132786 124.658008 
L 184.375852 124.410893 
L 185.564712 121.791467 
L 185.697521 121.51964 
L 187.891111 117.09627 
L 187.973248 116.898578 
L 188.140742 116.503193 
L 188.37564 116.132519 
L 188.655855 115.391173 
L 188.721555 115.218192 
L 188.875204 114.773384 
L 189.7907 112.771747 
L 189.89231 112.376362 
L 190.232117 111.956265 
L 190.397757 111.659727 
L 190.593208 111.338476 
L 190.723379 111.017226 
L 190.86371 110.819534 
L 190.976832 110.547706 
L 191.083889 110.325302 
L 191.603146 109.237994 
L 191.759403 109.089724 
L 192.029373 108.422512 
L 192.249959 107.878858 
L 192.39512 107.483473 
L 192.48909 107.310492 
L 194.753144 102.985968 
L 194.888485 102.738853 
L 195.01084 102.442314 
L 195.067773 102.269333 
L 195.187961 101.923371 
L 197.553742 97.129328 
L 197.759857 96.783366 
L 197.961245 96.289135 
L 198.072917 96.042019 
L 198.187775 95.844327 
L 198.439829 95.152403 
L 198.622762 94.880576 
L 199.231944 93.793267 
L 199.394241 93.397882 
L 199.774478 92.607112 
L 199.91892 92.434131 
L 200.249601 91.643361 
L 200.402261 91.346823 
L 200.555962 91.099707 
L 200.62548 90.951438 
L 201.215181 89.71586 
L 201.347659 89.345186 
L 201.459562 88.999224 
L 201.597842 88.801532 
L 201.928433 88.084896 
L 202.097387 87.615377 
L 202.32705 87.121146 
L 202.663448 86.478645 
L 203.395504 85.094797 
L 203.505271 84.847682 
L 204.218576 83.340277 
L 204.370761 83.117873 
L 204.796351 82.178833 
L 204.918847 82.005852 
L 205.34825 81.239794 
L 205.711313 80.300754 
L 205.823467 80.07835 
L 205.904783 79.905369 
L 206.053748 79.608831 
L 206.186537 79.43585 
L 206.310781 79.139311 
L 206.734009 78.052002 
L 206.839938 77.879021 
L 207.111436 77.285944 
L 207.260428 76.91527 
L 209.325976 73.060267 
L 209.438591 72.813151 
L 209.507377 72.590747 
L 211.192408 69.353532 
L 211.308745 69.15584 
L 211.476403 68.735743 
L 211.568699 68.463916 
L 211.656168 68.241512 
L 211.823019 68.068531 
L 212.100687 67.524877 
L 212.215834 67.351896 
L 212.339737 67.154203 
L 212.429195 66.907088 
L 212.707487 66.388145 
L 212.930161 66.091606 
L 213.070092 65.795068 
L 213.520938 64.954874 
L 213.628641 64.73247 
L 213.824361 64.559489 
L 213.958803 64.213528 
L 214.375421 63.422758 
L 214.503169 63.052084 
L 214.608168 62.903815 
L 215.00252 62.088333 
L 215.288349 61.594102 
L 215.462901 61.297563 
L 215.564592 61.124582 
L 215.684363 60.976313 
L 215.896216 60.556216 
L 216.323121 59.963139 
L 216.39777 59.765446 
L 216.510882 59.617177 
L 216.727588 59.271215 
L 216.847881 59.098234 
L 217.012124 58.678138 
L 217.271178 58.159195 
L 217.407873 57.961502 
L 217.677356 57.516694 
L 217.779902 57.244867 
L 217.852093 57.047175 
L 217.964213 56.874194 
L 218.0627 56.725924 
L 218.814252 55.589192 
L 219.224772 54.625441 
L 219.427984 54.304191 
L 220.649135 51.7589 
L 220.789576 51.412938 
L 220.984577 51.042265 
L 221.068771 50.869284 
L 221.202632 50.671592 
L 221.820531 49.584283 
L 222.063686 49.164186 
L 222.265832 48.867647 
L 222.431364 48.472262 
L 222.531026 48.299282 
L 222.639922 47.978031 
L 222.860023 47.755627 
L 223.154005 47.310819 
L 223.379851 46.816588 
L 223.566246 46.594184 
L 224.366573 45.358606 
L 224.545079 45.012644 
L 224.733546 44.864374 
L 224.856254 44.666682 
L 228.311507 38.834753 
L 228.432427 38.686484 
L 228.527908 38.46408 
L 228.645803 38.291099 
L 228.818825 38.019272 
L 229.248824 37.327348 
L 229.599405 36.88254 
L 229.819574 36.586001 
L 229.922543 36.41302 
L 230.164977 35.968212 
L 230.33924 35.795231 
L 230.456854 35.473981 
L 230.782973 35.053884 
L 231.133467 34.707922 
L 231.263002 34.51023 
L 232.312554 32.755709 
L 232.56244 32.558017 
L 232.654242 32.434459 
L 232.809839 32.236766 
L 232.94131 31.964939 
L 233.087785 31.717823 
L 233.401199 31.248304 
L 233.622594 30.828207 
L 234.123646 30.111572 
L 234.328923 29.76561 
L 236.211009 27.541569 
L 236.419044 27.319165 
L 236.506305 27.170896 
L 236.719653 26.948492 
L 236.830671 26.726088 
L 236.955771 26.503684 
L 239.388885 24.180797 
L 239.451038 24.106662 
L 239.656337 23.958393 
L 239.719778 23.884258 
L 239.902837 23.735989 
L 240.034294 23.43945 
L 240.249214 23.291181 
L 240.683229 22.821661 
L 240.809257 22.64868 
L 241.109783 22.302718 
L 241.211196 22.105026 
L 241.453536 21.759064 
L 241.616983 21.635506 
L 242.720404 20.498774 
L 242.837492 20.399928 
L 243.273698 20.029255 
L 243.379261 19.905697 
L 244.469796 19.065504 
L 244.773588 18.892523 
L 244.81992 18.8431 
L 245.067894 18.69483 
L 245.104178 18.645407 
L 245.475369 18.447715 
L 246.160891 18.151176 
L 246.646248 17.978195 
L 246.652147 17.928772 
L 247.408019 17.681656 
L 247.787348 17.508675 
L 249.585858 17.138002 
L 251.544702 17.088579 
L 251.544702 17.088579 
" clip-path="url(#p9ed382247f)" style="fill: none; stroke: #d62728; stroke-width: 1.5; stroke-linecap: square"/>
   </g>
   <g id="line2d_18">
    <path d="M 133.515407 214.756364 
L 133.632469 214.716825 
L 135.077232 214.57844 
L 135.191368 214.459825 
L 135.480684 214.341209 
L 136.231918 214.103978 
L 136.584086 213.78767 
L 136.806987 213.629516 
L 138.471691 212.7399 
L 138.604374 212.542208 
L 138.974686 212.186361 
L 139.417294 211.830515 
L 139.82311 211.593284 
L 140.132033 211.237437 
L 140.551713 210.802514 
L 140.663336 210.664129 
L 141.519656 209.85359 
L 141.813515 209.300051 
L 141.998932 209.141897 
L 142.212017 208.865127 
L 142.407728 208.667435 
L 142.510768 208.548819 
L 142.682053 208.331357 
L 142.78331 208.133665 
L 144.639726 205.919509 
L 144.744358 205.741586 
L 144.900284 205.603201 
L 145.012674 205.464816 
L 145.642076 204.397277 
L 145.903163 203.982123 
L 146.126793 203.705353 
L 146.481793 203.27043 
L 147.219608 202.281967 
L 147.407313 201.886582 
L 147.658085 201.68889 
L 147.785454 201.471428 
L 148.206619 200.700427 
L 148.396644 200.522504 
L 148.513118 200.305042 
L 148.631437 200.067811 
L 148.749498 199.889888 
L 149.339834 198.921195 
L 149.457222 198.683964 
L 149.894867 198.031578 
L 150.10988 197.71527 
L 150.772789 196.588423 
L 151.020856 196.272115 
L 151.134273 196.173269 
L 151.233522 195.975576 
L 153.709142 191.567034 
L 153.8233 191.290264 
L 154.21682 190.657648 
L 154.32632 190.440187 
L 155.001214 189.392416 
L 156.098183 187.217799 
L 156.336012 186.901491 
L 156.45215 186.624721 
L 156.500545 186.486337 
L 156.711753 186.031644 
L 157.407737 184.667566 
L 157.533846 184.489642 
L 157.711333 184.173334 
L 157.808234 183.995411 
L 157.951015 183.600026 
L 158.134446 183.343026 
L 158.329247 183.006949 
L 158.532223 182.71041 
L 158.720216 182.275486 
L 159.181079 181.38587 
L 159.30153 181.188178 
L 159.430986 180.931177 
L 159.569114 180.713716 
L 159.766317 180.476485 
L 160.023206 179.863638 
L 161.086171 177.689021 
L 161.205531 177.333174 
L 161.31359 177.076174 
L 161.889376 175.85048 
L 162.070889 175.435326 
L 163.67967 172.331554 
L 168.034536 162.881853 
L 168.099283 162.703929 
L 168.234524 162.348083 
L 168.485026 161.834082 
L 168.586618 161.675928 
L 168.674952 161.517774 
L 168.925291 161.043312 
L 169.060829 160.647927 
L 169.354274 159.956004 
L 169.525552 159.718773 
L 169.956085 158.690772 
L 170.068367 158.374464 
L 170.18063 158.21631 
L 170.32194 157.979079 
L 170.445786 157.643001 
L 170.583083 157.247616 
L 170.805357 156.713847 
L 170.917976 156.496385 
L 171.058052 156.180077 
L 171.200441 155.942846 
L 171.314632 155.685846 
L 171.605936 155.05323 
L 171.702821 154.895076 
L 171.990267 154.24269 
L 172.051621 154.084536 
L 172.180462 153.708921 
L 172.332067 153.412382 
L 172.689569 152.483227 
L 172.802727 152.206458 
L 172.900806 152.028534 
L 173.306461 150.980764 
L 173.381652 150.82261 
L 190.259711 111.402726 
L 190.373453 111.205034 
L 190.490824 111.027111 
L 190.635988 110.651495 
L 190.741184 110.335187 
L 190.823486 110.177033 
L 191.137827 109.386263 
L 191.239672 109.20834 
L 191.359229 108.832724 
L 191.634014 108.338493 
L 191.912701 107.765185 
L 192.035474 107.488415 
L 192.23712 106.974415 
L 192.431068 106.499953 
L 192.59061 106.163875 
L 193.030752 105.155644 
L 193.170276 104.839336 
L 193.607034 103.692719 
L 193.729398 103.317103 
L 193.825206 103.099642 
L 194.077978 102.506564 
L 194.227429 102.190256 
L 195.140073 100.015639 
L 195.403565 99.244638 
L 195.521479 98.948099 
L 195.881123 98.196868 
L 196.027735 97.979406 
L 197.480636 94.658172 
L 197.760594 94.065095 
L 197.842611 93.847633 
L 197.94733 93.590633 
L 198.064126 93.39294 
L 202.329645 83.567623 
L 202.438245 83.330392 
L 202.533417 83.014084 
L 202.662036 82.836161 
L 203.096718 81.748852 
L 203.891518 80.108004 
L 203.974948 79.930081 
L 204.180266 79.495158 
L 204.253762 79.337004 
L 204.356579 79.040465 
L 204.532551 78.724157 
L 204.732586 78.289233 
L 204.807597 78.071772 
L 205.006092 77.656617 
L 205.609688 76.035539 
L 205.72224 75.798308 
L 206.045941 75.086615 
L 206.188825 74.770307 
L 206.507846 74.058614 
L 206.607158 73.880691 
L 206.704659 73.64346 
L 206.996712 72.813151 
L 207.099311 72.635228 
L 207.194937 72.397997 
L 207.268218 72.220074 
L 207.553552 71.567688 
L 207.700402 71.330457 
L 207.877325 70.954842 
L 207.982019 70.697841 
L 208.390398 69.808225 
L 208.719933 69.096532 
L 208.880144 68.819763 
L 209.054617 68.444147 
L 209.16305 68.246454 
L 209.559829 67.218453 
L 209.771345 66.743991 
L 209.851309 66.546299 
L 210.050345 66.111376 
L 210.214877 65.834606 
L 210.392045 65.47876 
L 210.507232 65.320606 
L 210.849103 64.569374 
L 210.98012 64.114681 
L 211.305854 63.383219 
L 211.447586 63.047142 
L 211.545318 62.790142 
L 211.660987 62.493603 
L 211.90383 61.959833 
L 212.291139 61.287679 
L 212.435692 60.971371 
L 212.546268 60.575986 
L 214.743388 56.167443 
L 214.886971 55.870904 
L 215.490245 54.902211 
L 215.658276 54.506826 
L 215.87217 54.190518 
L 216.016617 53.775364 
L 216.27659 53.34044 
L 216.382545 53.182286 
L 217.825212 50.157591 
L 217.897641 49.999437 
L 218.361111 49.109821 
L 218.947079 48.062051 
L 219.071967 47.725973 
L 219.420072 47.211973 
L 219.78269 46.421203 
L 219.972166 46.124664 
L 220.513922 45.037355 
L 220.634641 44.898971 
L 220.733694 44.701278 
L 220.897739 44.523355 
L 221.026368 44.226816 
L 221.140222 44.029124 
L 221.266813 43.673277 
L 221.471472 43.416277 
L 223.388561 39.679889 
L 223.479723 39.501965 
L 223.753032 39.205427 
L 223.853012 38.948426 
L 224.011667 38.770503 
L 224.174281 38.375118 
L 224.357056 38.078579 
L 224.677381 37.386656 
L 224.847767 37.188963 
L 224.965262 36.951732 
L 225.264824 36.516809 
L 225.677365 35.805116 
L 225.970874 35.370192 
L 226.361832 34.63873 
L 226.492855 34.480576 
L 226.693368 34.164268 
L 226.924173 33.907268 
L 227.0374 33.808422 
L 227.581953 32.721113 
L 227.810219 32.167574 
L 228.178958 31.75242 
L 228.341664 31.47565 
L 228.584723 31.100034 
L 228.880277 30.744188 
L 230.463283 28.332339 
L 230.665444 28.075339 
L 230.783417 27.956724 
L 232.9093 25.011105 
L 233.013483 24.872721 
L 233.072117 24.754105 
L 233.262947 24.576182 
L 233.700611 24.10172 
L 233.722831 24.042412 
L 233.931386 23.904027 
L 234.060345 23.785412 
L 234.207978 23.607489 
L 234.295716 23.469104 
L 234.612898 23.133027 
L 234.781898 22.816719 
L 235.080873 22.559719 
L 235.225962 22.362026 
L 235.482791 22.00618 
L 235.827448 21.630564 
L 235.986393 21.432871 
L 236.152958 21.274717 
L 238.071052 19.416408 
L 238.184572 19.297792 
L 238.28699 19.218715 
L 238.522743 19.080331 
L 238.730358 18.922177 
L 239.175028 18.665176 
L 239.858972 18.190714 
L 240.048751 18.072099 
L 240.397209 17.894176 
L 241.687944 17.320867 
L 244.988308 17.083636 
L 244.988308 17.083636 
" clip-path="url(#p9ed382247f)" style="fill: none; stroke: #9467bd; stroke-width: 1.5; stroke-linecap: square"/>
   </g>
   <g id="patch_3">
    <path d="M 30.103125 224.64 
L 30.103125 7.2 
" style="fill: none; stroke: #000000; stroke-width: 0.8; stroke-linejoin: miter; stroke-linecap: square"/>
   </g>
   <g id="patch_4">
    <path d="M 364.903125 224.64 
L 364.903125 7.2 
" style="fill: none; stroke: #000000; stroke-width: 0.8; stroke-linejoin: miter; stroke-linecap: square"/>
   </g>
   <g id="patch_5">
    <path d="M 30.103125 224.64 
L 364.903125 224.64 
" style="fill: none; stroke: #000000; stroke-width: 0.8; stroke-linejoin: miter; stroke-linecap: square"/>
   </g>
   <g id="patch_6">
    <path d="M 30.103125 7.2 
L 364.903125 7.2 
" style="fill: none; stroke: #000000; stroke-width: 0.8; stroke-linejoin: miter; stroke-linecap: square"/>
   </g>
   <g id="legend_1">
    <g id="patch_7">
     <path d="M 37.103125 88.590625 
L 109.264063 88.590625 
Q 111.264063 88.590625 111.264063 86.590625 
L 111.264063 14.2 
Q 111.264063 12.2 109.264063 12.2 
L 37.103125 12.2 
Q 35.103125 12.2 35.103125 14.2 
L 35.103125 86.590625 
Q 35.103125 88.590625 37.103125 88.590625 
z
" style="fill: #ffffff; opacity: 0.8; stroke: #cccccc; stroke-linejoin: miter"/>
    </g>
    <g id="line2d_19">
     <path d="M 39.103125 20.298437 
L 49.103125 20.298437 
L 59.103125 20.298437 
" style="fill: none; stroke: #1f77b4; stroke-width: 1.5; stroke-linecap: square"/>
    </g>
    <g id="text_14">
     <!-- n = 20 -->
     <g transform="translate(67.103125 23.798437)scale(0.1 -0.1)">
      <defs>
       <path id="DejaVuSans-6e" d="M 3513 2113 
L 3513 0 
L 2938 0 
L 2938 2094 
Q 2938 2591 2744 2837 
Q 2550 3084 2163 3084 
Q 1697 3084 1428 2787 
Q 1159 2491 1159 1978 
L 1159 0 
L 581 0 
L 581 3500 
L 1159 3500 
L 1159 2956 
Q 1366 3272 1645 3428 
Q 1925 3584 2291 3584 
Q 2894 3584 3203 3211 
Q 3513 2838 3513 2113 
z
" transform="scale(0.015625)"/>
       <path id="DejaVuSans-20" transform="scale(0.015625)"/>
       <path id="DejaVuSans-3d" d="M 678 2906 
L 4684 2906 
L 4684 2381 
L 678 2381 
L 678 2906 
z
M 678 1631 
L 4684 1631 
L 4684 1100 
L 678 1100 
L 678 1631 
z
" transform="scale(0.015625)"/>
      </defs>
      <use xlink:href="#DejaVuSans-6e"/>
      <use xlink:href="#DejaVuSans-20" x="63.378906"/>
      <use xlink:href="#DejaVuSans-3d" x="95.166016"/>
      <use xlink:href="#DejaVuSans-20" x="178.955078"/>
      <use xlink:href="#DejaVuSans-32" x="210.742188"/>
      <use xlink:href="#DejaVuSans-30" x="274.365234"/>
     </g>
    </g>
    <g id="line2d_20">
     <path d="M 39.103125 34.976562 
L 49.103125 34.976562 
L 59.103125 34.976562 
" style="fill: none; stroke: #ff7f0e; stroke-width: 1.5; stroke-linecap: square"/>
    </g>
    <g id="text_15">
     <!-- n = 40 -->
     <g transform="translate(67.103125 38.476562)scale(0.1 -0.1)">
      <use xlink:href="#DejaVuSans-6e"/>
      <use xlink:href="#DejaVuSans-20" x="63.378906"/>
      <use xlink:href="#DejaVuSans-3d" x="95.166016"/>
      <use xlink:href="#DejaVuSans-20" x="178.955078"/>
      <use xlink:href="#DejaVuSans-34" x="210.742188"/>
      <use xlink:href="#DejaVuSans-30" x="274.365234"/>
     </g>
    </g>
    <g id="line2d_21">
     <path d="M 39.103125 49.654687 
L 49.103125 49.654687 
L 59.103125 49.654687 
" style="fill: none; stroke: #2ca02c; stroke-width: 1.5; stroke-linecap: square"/>
    </g>
    <g id="text_16">
     <!-- n = 60 -->
     <g transform="translate(67.103125 53.154687)scale(0.1 -0.1)">
      <use xlink:href="#DejaVuSans-6e"/>
      <use xlink:href="#DejaVuSans-20" x="63.378906"/>
      <use xlink:href="#DejaVuSans-3d" x="95.166016"/>
      <use xlink:href="#DejaVuSans-20" x="178.955078"/>
      <use xlink:href="#DejaVuSans-36" x="210.742188"/>
      <use xlink:href="#DejaVuSans-30" x="274.365234"/>
     </g>
    </g>
    <g id="line2d_22">
     <path d="M 39.103125 64.332812 
L 49.103125 64.332812 
L 59.103125 64.332812 
" style="fill: none; stroke: #d62728; stroke-width: 1.5; stroke-linecap: square"/>
    </g>
    <g id="text_17">
     <!-- n = 80 -->
     <g transform="translate(67.103125 67.832812)scale(0.1 -0.1)">
      <use xlink:href="#DejaVuSans-6e"/>
      <use xlink:href="#DejaVuSans-20" x="63.378906"/>
      <use xlink:href="#DejaVuSans-3d" x="95.166016"/>
      <use xlink:href="#DejaVuSans-20" x="178.955078"/>
      <use xlink:href="#DejaVuSans-38" x="210.742188"/>
      <use xlink:href="#DejaVuSans-30" x="274.365234"/>
     </g>
    </g>
    <g id="line2d_23">
     <path d="M 39.103125 79.010937 
L 49.103125 79.010937 
L 59.103125 79.010937 
" style="fill: none; stroke: #9467bd; stroke-width: 1.5; stroke-linecap: square"/>
    </g>
    <g id="text_18">
     <!-- n = 100 -->
     <g transform="translate(67.103125 82.510937)scale(0.1 -0.1)">
      <use xlink:href="#DejaVuSans-6e"/>
      <use xlink:href="#DejaVuSans-20" x="63.378906"/>
      <use xlink:href="#DejaVuSans-3d" x="95.166016"/>
      <use xlink:href="#DejaVuSans-20" x="178.955078"/>
      <use xlink:href="#DejaVuSans-31" x="210.742188"/>
      <use xlink:href="#DejaVuSans-30" x="274.365234"/>
      <use xlink:href="#DejaVuSans-30" x="337.988281"/>
     </g>
    </g>
   </g>
  </g>
 </g>
 <defs>
  <clipPath id="p9ed382247f">
   <rect x="30.103125" y="7.2" width="334.8" height="217.44"/>
  </clipPath>
 </defs>
</svg>
