<?xml version="1.0" encoding="utf-8" standalone="no"?>
<!DOCTYPE svg PUBLIC "-//W3C//DTD SVG 1.1//EN"
  "http://www.w3.org/Graphics/SVG/1.1/DTD/svg11.dtd">
<svg xmlns:xlink="http://www.w3.org/1999/xlink" width="372.103125pt" height="248.518125pt" viewBox="0 0 372.103125 248.518125" xmlns="http://www.w3.org/2000/svg" version="1.1">
 <metadata>
  <rdf:RDF xmlns:dc="http://purl.org/dc/elements/1.1/" xmlns:cc="http://creativecommons.org/ns#" xmlns:rdf="http://www.w3.org/1999/02/22-rdf-syntax-ns#">
   <cc:Work>
    <dc:type rdf:resource="http://purl.org/dc/dcmitype/StillImage"/>
    <dc:date>2022-03-18T14:12:21.131810</dc:date>
    <dc:format>image/svg+xml</dc:format>
    <dc:creator>
     <cc:Agent>
      <dc:title>Matplotlib v3.5.1, https://matplotlib.org/</dc:title>
     </cc:Agent>
    </dc:creator>
   </cc:Work>
  </rdf:RDF>
 </metadata>
 <defs>
  <style type="text/css">*{stroke-linejoin: round; stroke-linecap: butt}</style>
 </defs>
 <g id="figure_1">
  <g id="patch_1">
   <path d="M 0 248.518125 
L 372.103125 248.518125 
L 372.103125 0 
L 0 0 
L 0 248.518125 
z
" style="fill: none"/>
  </g>
  <g id="axes_1">
   <g id="patch_2">
    <path d="M 30.103125 224.64 
L 364.903125 224.64 
L 364.903125 7.2 
L 30.103125 7.2 
z
" style="fill: #ffffff"/>
   </g>
   <g id="matplotlib.axis_1">
    <g id="xtick_1">
     <g id="line2d_1">
      <defs>
       <path id="m8b990cc818" d="M 0 0 
L 0 3.5 
" style="stroke: #000000; stroke-width: 0.8"/>
      </defs>
      <g>
       <use xlink:href="#m8b990cc818" x="77.103806" y="224.64" style="stroke: #000000; stroke-width: 0.8"/>
      </g>
     </g>
     <g id="text_1">
      <!-- −0.4 -->
      <g transform="translate(64.9624 239.238437)scale(0.1 -0.1)">
       <defs>
        <path id="DejaVuSans-2212" d="M 678 2272 
L 4684 2272 
L 4684 1741 
L 678 1741 
L 678 2272 
z
" transform="scale(0.015625)"/>
        <path id="DejaVuSans-30" d="M 2034 4250 
Q 1547 4250 1301 3770 
Q 1056 3291 1056 2328 
Q 1056 1369 1301 889 
Q 1547 409 2034 409 
Q 2525 409 2770 889 
Q 3016 1369 3016 2328 
Q 3016 3291 2770 3770 
Q 2525 4250 2034 4250 
z
M 2034 4750 
Q 2819 4750 3233 4129 
Q 3647 3509 3647 2328 
Q 3647 1150 3233 529 
Q 2819 -91 2034 -91 
Q 1250 -91 836 529 
Q 422 1150 422 2328 
Q 422 3509 836 4129 
Q 1250 4750 2034 4750 
z
" transform="scale(0.015625)"/>
        <path id="DejaVuSans-2e" d="M 684 794 
L 1344 794 
L 1344 0 
L 684 0 
L 684 794 
z
" transform="scale(0.015625)"/>
        <path id="DejaVuSans-34" d="M 2419 4116 
L 825 1625 
L 2419 1625 
L 2419 4116 
z
M 2253 4666 
L 3047 4666 
L 3047 1625 
L 3713 1625 
L 3713 1100 
L 3047 1100 
L 3047 0 
L 2419 0 
L 2419 1100 
L 313 1100 
L 313 1709 
L 2253 4666 
z
" transform="scale(0.015625)"/>
       </defs>
       <use xlink:href="#DejaVuSans-2212"/>
       <use xlink:href="#DejaVuSans-30" x="83.789062"/>
       <use xlink:href="#DejaVuSans-2e" x="147.412109"/>
       <use xlink:href="#DejaVuSans-34" x="179.199219"/>
      </g>
     </g>
    </g>
    <g id="xtick_2">
     <g id="line2d_2">
      <g>
       <use xlink:href="#m8b990cc818" x="135.070404" y="224.64" style="stroke: #000000; stroke-width: 0.8"/>
      </g>
     </g>
     <g id="text_2">
      <!-- −0.2 -->
      <g transform="translate(122.928998 239.238437)scale(0.1 -0.1)">
       <defs>
        <path id="DejaVuSans-32" d="M 1228 531 
L 3431 531 
L 3431 0 
L 469 0 
L 469 531 
Q 828 903 1448 1529 
Q 2069 2156 2228 2338 
Q 2531 2678 2651 2914 
Q 2772 3150 2772 3378 
Q 2772 3750 2511 3984 
Q 2250 4219 1831 4219 
Q 1534 4219 1204 4116 
Q 875 4013 500 3803 
L 500 4441 
Q 881 4594 1212 4672 
Q 1544 4750 1819 4750 
Q 2544 4750 2975 4387 
Q 3406 4025 3406 3419 
Q 3406 3131 3298 2873 
Q 3191 2616 2906 2266 
Q 2828 2175 2409 1742 
Q 1991 1309 1228 531 
z
" transform="scale(0.015625)"/>
       </defs>
       <use xlink:href="#DejaVuSans-2212"/>
       <use xlink:href="#DejaVuSans-30" x="83.789062"/>
       <use xlink:href="#DejaVuSans-2e" x="147.412109"/>
       <use xlink:href="#DejaVuSans-32" x="179.199219"/>
      </g>
     </g>
    </g>
    <g id="xtick_3">
     <g id="line2d_3">
      <g>
       <use xlink:href="#m8b990cc818" x="193.037002" y="224.64" style="stroke: #000000; stroke-width: 0.8"/>
      </g>
     </g>
     <g id="text_3">
      <!-- 0.0 -->
      <g transform="translate(185.08544 239.238437)scale(0.1 -0.1)">
       <use xlink:href="#DejaVuSans-30"/>
       <use xlink:href="#DejaVuSans-2e" x="63.623047"/>
       <use xlink:href="#DejaVuSans-30" x="95.410156"/>
      </g>
     </g>
    </g>
    <g id="xtick_4">
     <g id="line2d_4">
      <g>
       <use xlink:href="#m8b990cc818" x="251.0036" y="224.64" style="stroke: #000000; stroke-width: 0.8"/>
      </g>
     </g>
     <g id="text_4">
      <!-- 0.2 -->
      <g transform="translate(243.052038 239.238437)scale(0.1 -0.1)">
       <use xlink:href="#DejaVuSans-30"/>
       <use xlink:href="#DejaVuSans-2e" x="63.623047"/>
       <use xlink:href="#DejaVuSans-32" x="95.410156"/>
      </g>
     </g>
    </g>
    <g id="xtick_5">
     <g id="line2d_5">
      <g>
       <use xlink:href="#m8b990cc818" x="308.970198" y="224.64" style="stroke: #000000; stroke-width: 0.8"/>
      </g>
     </g>
     <g id="text_5">
      <!-- 0.4 -->
      <g transform="translate(301.018636 239.238437)scale(0.1 -0.1)">
       <use xlink:href="#DejaVuSans-30"/>
       <use xlink:href="#DejaVuSans-2e" x="63.623047"/>
       <use xlink:href="#DejaVuSans-34" x="95.410156"/>
      </g>
     </g>
    </g>
   </g>
   <g id="matplotlib.axis_2">
    <g id="ytick_1">
     <g id="line2d_6">
      <defs>
       <path id="ma136f63106" d="M 0 0 
L -3.5 0 
" style="stroke: #000000; stroke-width: 0.8"/>
      </defs>
      <g>
       <use xlink:href="#ma136f63106" x="30.103125" y="214.756364" style="stroke: #000000; stroke-width: 0.8"/>
      </g>
     </g>
     <g id="text_6">
      <!-- 0.0 -->
      <g transform="translate(7.2 218.555582)scale(0.1 -0.1)">
       <use xlink:href="#DejaVuSans-30"/>
       <use xlink:href="#DejaVuSans-2e" x="63.623047"/>
       <use xlink:href="#DejaVuSans-30" x="95.410156"/>
      </g>
     </g>
    </g>
    <g id="ytick_2">
     <g id="line2d_7">
      <g>
       <use xlink:href="#ma136f63106" x="30.103125" y="175.217864" style="stroke: #000000; stroke-width: 0.8"/>
      </g>
     </g>
     <g id="text_7">
      <!-- 0.2 -->
      <g transform="translate(7.2 179.017083)scale(0.1 -0.1)">
       <use xlink:href="#DejaVuSans-30"/>
       <use xlink:href="#DejaVuSans-2e" x="63.623047"/>
       <use xlink:href="#DejaVuSans-32" x="95.410156"/>
      </g>
     </g>
    </g>
    <g id="ytick_3">
     <g id="line2d_8">
      <g>
       <use xlink:href="#ma136f63106" x="30.103125" y="135.679365" style="stroke: #000000; stroke-width: 0.8"/>
      </g>
     </g>
     <g id="text_8">
      <!-- 0.4 -->
      <g transform="translate(7.2 139.478584)scale(0.1 -0.1)">
       <use xlink:href="#DejaVuSans-30"/>
       <use xlink:href="#DejaVuSans-2e" x="63.623047"/>
       <use xlink:href="#DejaVuSans-34" x="95.410156"/>
      </g>
     </g>
    </g>
    <g id="ytick_4">
     <g id="line2d_9">
      <g>
       <use xlink:href="#ma136f63106" x="30.103125" y="96.140866" style="stroke: #000000; stroke-width: 0.8"/>
      </g>
     </g>
     <g id="text_9">
      <!-- 0.6 -->
      <g transform="translate(7.2 99.940084)scale(0.1 -0.1)">
       <defs>
        <path id="DejaVuSans-36" d="M 2113 2584 
Q 1688 2584 1439 2293 
Q 1191 2003 1191 1497 
Q 1191 994 1439 701 
Q 1688 409 2113 409 
Q 2538 409 2786 701 
Q 3034 994 3034 1497 
Q 3034 2003 2786 2293 
Q 2538 2584 2113 2584 
z
M 3366 4563 
L 3366 3988 
Q 3128 4100 2886 4159 
Q 2644 4219 2406 4219 
Q 1781 4219 1451 3797 
Q 1122 3375 1075 2522 
Q 1259 2794 1537 2939 
Q 1816 3084 2150 3084 
Q 2853 3084 3261 2657 
Q 3669 2231 3669 1497 
Q 3669 778 3244 343 
Q 2819 -91 2113 -91 
Q 1303 -91 875 529 
Q 447 1150 447 2328 
Q 447 3434 972 4092 
Q 1497 4750 2381 4750 
Q 2619 4750 2861 4703 
Q 3103 4656 3366 4563 
z
" transform="scale(0.015625)"/>
       </defs>
       <use xlink:href="#DejaVuSans-30"/>
       <use xlink:href="#DejaVuSans-2e" x="63.623047"/>
       <use xlink:href="#DejaVuSans-36" x="95.410156"/>
      </g>
     </g>
    </g>
    <g id="ytick_5">
     <g id="line2d_10">
      <g>
       <use xlink:href="#ma136f63106" x="30.103125" y="56.602366" style="stroke: #000000; stroke-width: 0.8"/>
      </g>
     </g>
     <g id="text_10">
      <!-- 0.8 -->
      <g transform="translate(7.2 60.401585)scale(0.1 -0.1)">
       <defs>
        <path id="DejaVuSans-38" d="M 2034 2216 
Q 1584 2216 1326 1975 
Q 1069 1734 1069 1313 
Q 1069 891 1326 650 
Q 1584 409 2034 409 
Q 2484 409 2743 651 
Q 3003 894 3003 1313 
Q 3003 1734 2745 1975 
Q 2488 2216 2034 2216 
z
M 1403 2484 
Q 997 2584 770 2862 
Q 544 3141 544 3541 
Q 544 4100 942 4425 
Q 1341 4750 2034 4750 
Q 2731 4750 3128 4425 
Q 3525 4100 3525 3541 
Q 3525 3141 3298 2862 
Q 3072 2584 2669 2484 
Q 3125 2378 3379 2068 
Q 3634 1759 3634 1313 
Q 3634 634 3220 271 
Q 2806 -91 2034 -91 
Q 1263 -91 848 271 
Q 434 634 434 1313 
Q 434 1759 690 2068 
Q 947 2378 1403 2484 
z
M 1172 3481 
Q 1172 3119 1398 2916 
Q 1625 2713 2034 2713 
Q 2441 2713 2670 2916 
Q 2900 3119 2900 3481 
Q 2900 3844 2670 4047 
Q 2441 4250 2034 4250 
Q 1625 4250 1398 4047 
Q 1172 3844 1172 3481 
z
" transform="scale(0.015625)"/>
       </defs>
       <use xlink:href="#DejaVuSans-30"/>
       <use xlink:href="#DejaVuSans-2e" x="63.623047"/>
       <use xlink:href="#DejaVuSans-38" x="95.410156"/>
      </g>
     </g>
    </g>
    <g id="ytick_6">
     <g id="line2d_11">
      <g>
       <use xlink:href="#ma136f63106" x="30.103125" y="17.063867" style="stroke: #000000; stroke-width: 0.8"/>
      </g>
     </g>
     <g id="text_11">
      <!-- 1.0 -->
      <g transform="translate(7.2 20.863086)scale(0.1 -0.1)">
       <defs>
        <path id="DejaVuSans-31" d="M 794 531 
L 1825 531 
L 1825 4091 
L 703 3866 
L 703 4441 
L 1819 4666 
L 2450 4666 
L 2450 531 
L 3481 531 
L 3481 0 
L 794 0 
L 794 531 
z
" transform="scale(0.015625)"/>
       </defs>
       <use xlink:href="#DejaVuSans-31"/>
       <use xlink:href="#DejaVuSans-2e" x="63.623047"/>
       <use xlink:href="#DejaVuSans-30" x="95.410156"/>
      </g>
     </g>
    </g>
   </g>
   <g id="line2d_12">
    <path d="M 45.321307 214.756364 
L 47.120345 214.558671 
L 51.125758 214.360979 
L 51.671201 214.262132 
L 53.922295 214.06444 
L 54.283769 213.767901 
L 57.80917 213.471362 
L 58.294519 213.174824 
L 61.157652 212.779439 
L 61.246279 212.680592 
L 63.045829 212.4829 
L 63.293897 212.285207 
L 63.470004 212.087515 
L 64.03975 211.889822 
L 64.106691 211.790976 
L 65.934715 211.395591 
L 66.037783 211.099052 
L 66.75098 210.90136 
L 66.761945 210.802514 
L 67.569238 210.505975 
L 67.840993 210.308282 
L 67.954643 210.209436 
L 68.90909 209.912897 
L 69.064054 209.517512 
L 71.816738 209.122127 
L 71.973304 208.825589 
L 72.567659 208.52905 
L 72.657304 208.430204 
L 74.80047 207.935973 
L 74.963552 207.73828 
L 75.272388 207.639434 
L 76.569031 207.441741 
L 76.569638 207.342895 
L 77.59625 206.749818 
L 77.656275 206.552125 
L 78.091087 206.15674 
L 79.210306 205.662509 
L 79.604425 205.464816 
L 80.166435 205.267124 
L 80.616349 204.970585 
L 80.892833 204.772893 
L 81.579703 204.476354 
L 81.78882 204.278661 
L 82.17238 204.080969 
L 82.202402 203.982123 
L 83.132029 203.586738 
L 83.258835 203.290199 
L 83.89686 202.99366 
L 83.915944 202.894814 
L 85.884078 202.20289 
L 85.900024 202.104044 
L 86.766837 201.609813 
L 87.192334 201.115581 
L 88.63222 200.62135 
L 89.020578 200.423658 
L 89.274198 200.127119 
L 89.425359 199.929426 
L 89.701496 199.83058 
L 90.662925 199.632888 
L 91.294714 199.237503 
L 91.447185 199.03981 
L 91.645254 198.842118 
L 92.192055 198.446733 
L 93.314421 198.051348 
L 93.837107 197.655963 
L 94.063814 197.359424 
L 94.5755 197.161731 
L 95.055126 196.6675 
L 95.273602 196.272115 
L 96.12006 195.777884 
L 96.683716 195.580191 
L 97.421752 195.382499 
L 97.533055 195.184806 
L 98.148941 194.591729 
L 98.18792 194.492883 
L 98.736269 194.196344 
L 99.030075 193.899805 
L 99.764061 193.603267 
L 101.436361 192.71365 
L 101.589851 192.515958 
L 101.689384 192.417112 
L 102.497183 192.120573 
L 102.527859 192.021727 
L 103.070916 191.725188 
L 103.295413 191.428649 
L 103.85978 191.13211 
L 103.896604 191.033264 
L 105.458218 190.143648 
L 105.526425 189.748263 
L 105.720147 189.451724 
L 106.146831 189.254032 
L 108.093128 187.573645 
L 108.100799 187.474799 
L 108.677377 187.079414 
L 108.764316 186.980568 
L 109.175455 186.782875 
L 109.865117 186.38749 
L 110.26035 186.189798 
L 110.731891 185.992105 
L 110.981196 185.695567 
L 111.071404 185.59672 
L 111.315171 185.497874 
L 112.501233 185.201335 
L 112.887533 185.003643 
L 112.888735 184.904797 
L 113.166626 184.608258 
L 113.320664 184.311719 
L 114.08463 183.916334 
L 114.158964 183.817488 
L 114.474546 183.619795 
L 114.880759 183.323257 
L 114.965747 183.125564 
L 115.333872 182.927872 
L 116.542506 182.038255 
L 117.387907 181.840563 
L 117.553536 181.64287 
L 117.967227 181.247485 
L 118.160795 180.950947 
L 118.692589 180.753254 
L 118.964488 180.357869 
L 119.415524 180.160177 
L 119.702664 179.863638 
L 120.0041 179.665946 
L 120.172775 179.468253 
L 120.647264 178.974022 
L 120.784002 178.677483 
L 121.429827 178.479791 
L 122.102256 177.886713 
L 122.762158 177.689021 
L 122.946905 177.491328 
L 124.005175 176.305173 
L 124.598056 176.107481 
L 124.651449 175.909788 
L 125.203909 175.712096 
L 125.298584 175.613249 
L 126.130681 175.217864 
L 126.266471 175.020172 
L 126.621335 174.822479 
L 126.877646 174.328248 
L 127.288112 173.932863 
L 127.958842 173.537478 
L 128.640399 172.647862 
L 128.940111 172.351323 
L 128.948137 172.252477 
L 129.223255 172.054784 
L 129.693944 171.857092 
L 129.881242 171.659399 
L 130.418703 171.165168 
L 131.256818 170.077859 
L 131.713056 169.880167 
L 131.973527 169.188243 
L 132.574221 168.792858 
L 133.093307 168.298627 
L 134.504686 167.903242 
L 134.531532 167.804396 
L 135.729089 167.211318 
L 135.775834 167.112472 
L 135.955883 166.914779 
L 136.408924 165.926317 
L 136.594912 165.530932 
L 137.259402 165.234393 
L 137.445555 165.036701 
L 137.96565 164.54247 
L 138.471197 164.344777 
L 138.618506 163.949392 
L 138.962436 163.7517 
L 139.260339 163.554007 
L 139.563521 163.059776 
L 139.683696 162.664391 
L 140.744178 161.675928 
L 140.770235 161.577082 
L 141.176178 161.37939 
L 141.277245 161.181697 
L 141.431807 160.687466 
L 141.896492 160.489773 
L 142.085898 160.292081 
L 142.165038 160.094388 
L 142.549748 159.896696 
L 142.918507 159.600157 
L 143.563523 159.402465 
L 143.827406 159.105926 
L 144.309274 158.710541 
L 144.377586 158.512848 
L 144.676373 158.315156 
L 144.906796 158.117463 
L 145.31417 157.919771 
L 145.494966 157.722078 
L 145.711887 157.524386 
L 146.541435 156.832462 
L 146.961463 156.63477 
L 147.201426 156.239385 
L 147.492223 156.041692 
L 148.057882 155.152076 
L 148.292995 154.954383 
L 148.322453 154.855537 
L 148.509103 154.756691 
L 149.20042 154.558998 
L 149.463651 154.064767 
L 150.022326 153.570536 
L 150.700691 153.372843 
L 151.484949 152.68092 
L 151.496008 152.582073 
L 151.826647 152.384381 
L 152.281778 151.791303 
L 152.453759 151.692457 
L 153.059651 151.494765 
L 153.122206 151.297072 
L 153.617163 151.000534 
L 153.652942 150.901687 
L 153.966663 150.605149 
L 154.344167 150.30861 
L 154.632776 150.110917 
L 154.772776 149.814379 
L 155.203722 149.616686 
L 155.265017 149.418994 
L 155.44377 149.221301 
L 155.471205 149.122455 
L 155.893575 148.825916 
L 156.160905 148.035146 
L 156.755912 147.639761 
L 157.037398 147.442069 
L 157.041715 147.343222 
L 157.734192 146.848991 
L 157.783228 146.651299 
L 158.056545 146.453606 
L 158.058699 146.35476 
L 159.33573 145.465144 
L 159.479832 145.267451 
L 159.891118 144.872066 
L 159.933346 144.77322 
L 160.298987 144.575527 
L 160.64435 144.180142 
L 160.783111 143.98245 
L 160.892168 143.685911 
L 161.484381 143.389372 
L 161.625279 143.19168 
L 162.375834 142.993987 
L 163.051529 142.796295 
L 163.0647 142.697449 
L 163.475166 142.499756 
L 163.752742 142.005525 
L 163.779171 141.906679 
L 164.713016 141.412447 
L 165.249179 141.017062 
L 165.384753 140.720524 
L 166.23213 140.226292 
L 166.3761 139.830907 
L 166.739329 139.633215 
L 166.940642 139.435522 
L 167.318853 139.23783 
L 167.46488 139.040137 
L 167.549979 138.842445 
L 167.839616 138.644752 
L 168.053157 138.150521 
L 169.617363 137.359751 
L 169.623649 137.260905 
L 170.422151 136.86552 
L 170.562984 136.568981 
L 170.601094 136.470135 
L 170.815887 136.272443 
L 170.871736 136.173596 
L 171.882686 135.877058 
L 172.167614 135.481673 
L 172.55998 135.28398 
L 173.129129 134.394364 
L 173.363587 134.196671 
L 173.682215 133.801286 
L 174.115119 133.603594 
L 175.294147 132.713978 
L 176.911047 131.132438 
L 176.939974 130.934745 
L 177.19886 130.638206 
L 177.353558 130.341668 
L 177.800759 130.143975 
L 177.976738 129.74859 
L 178.439792 129.550898 
L 179.075998 129.155513 
L 179.10282 128.95782 
L 179.34604 128.760128 
L 179.511694 128.463589 
L 180.112902 128.068204 
L 180.182468 127.870511 
L 180.39176 127.475126 
L 181.027976 127.277434 
L 181.114998 126.980895 
L 181.76029 126.58551 
L 181.879268 126.387818 
L 182.350511 126.091279 
L 182.43786 125.992433 
L 183.042963 125.79474 
L 183.084617 125.695894 
L 183.29669 125.498201 
L 183.504025 125.102816 
L 183.648368 124.905124 
L 183.693165 124.806278 
L 184.147995 124.608585 
L 184.212833 124.410893 
L 184.444852 124.2132 
L 185.007631 123.42243 
L 185.212429 123.224738 
L 185.477161 123.027045 
L 185.55076 122.928199 
L 186.013241 122.63166 
L 186.208325 122.335122 
L 186.209617 122.236275 
L 186.485262 121.939737 
L 186.559409 121.643198 
L 186.681775 121.346659 
L 186.852214 121.148967 
L 187.693504 120.25935 
L 188.426799 119.567427 
L 188.442078 119.46858 
L 188.721267 119.270888 
L 189.466994 119.073195 
L 189.472426 118.974349 
L 189.72769 118.776657 
L 189.944356 118.381272 
L 190.219255 117.590502 
L 190.615915 117.392809 
L 190.830787 116.997424 
L 192.138734 116.404347 
L 192.225981 116.206654 
L 192.51258 115.910115 
L 192.575245 115.712423 
L 192.966325 115.51473 
L 193.116603 115.218192 
L 193.353473 114.921653 
L 193.406602 114.72396 
L 193.649681 114.526268 
L 193.768989 114.328575 
L 194.051129 114.130883 
L 194.055779 114.032037 
L 194.41724 113.834344 
L 194.441349 113.735498 
L 194.733179 113.537805 
L 194.97243 113.14242 
L 195.303289 112.944728 
L 195.680321 112.648189 
L 197.184293 111.165495 
L 197.958251 110.177033 
L 198.223513 109.97934 
L 198.281018 109.781648 
L 198.634791 109.583955 
L 198.696814 109.485109 
L 199.008903 109.287417 
L 199.444701 108.694339 
L 200.021751 108.397801 
L 200.02188 108.298954 
L 200.665624 108.101262 
L 200.698691 108.002416 
L 201.080442 107.705877 
L 201.190114 107.310492 
L 201.488703 106.717414 
L 201.785529 106.519722 
L 202.033598 105.926644 
L 202.149978 105.728952 
L 202.533671 105.531259 
L 202.546328 105.432413 
L 203.584964 105.037028 
L 203.806768 104.839336 
L 203.922379 104.641643 
L 204.181739 104.345104 
L 204.19143 104.246258 
L 204.556237 103.949719 
L 204.665855 103.752027 
L 205.41242 102.862411 
L 206.153388 102.664718 
L 206.553709 101.873948 
L 206.557681 101.775102 
L 206.812517 101.577409 
L 207.204591 101.379717 
L 207.670984 101.182024 
L 207.674846 101.083178 
L 207.846688 100.885486 
L 208.253908 100.292408 
L 208.355345 100.094716 
L 208.755559 99.798177 
L 208.860541 99.600484 
L 208.928298 99.501638 
L 209.170899 99.303946 
L 209.303035 99.007407 
L 209.303123 98.908561 
L 209.907062 98.612022 
L 210.700257 98.414329 
L 211.258417 97.524713 
L 211.387435 97.228174 
L 211.723224 96.733943 
L 211.860305 96.536251 
L 211.92447 96.437404 
L 212.845411 95.943173 
L 212.888439 95.745481 
L 213.371093 95.547788 
L 213.485232 95.350096 
L 213.829632 94.954711 
L 213.843 94.855864 
L 214.493318 94.361633 
L 215.26735 93.768556 
L 215.768669 93.570863 
L 216.70484 92.483555 
L 217.155766 92.285862 
L 217.156425 92.187016 
L 217.684116 91.791631 
L 218.031746 91.2974 
L 218.414265 91.000861 
L 218.605492 90.803168 
L 218.61154 90.704322 
L 219.040265 90.407783 
L 219.129674 90.210091 
L 219.419209 90.012398 
L 219.436568 89.814706 
L 219.557431 89.71586 
L 220.263933 89.419321 
L 220.405982 89.221628 
L 222.042117 88.13432 
L 222.593894 87.34355 
L 223.066799 87.145857 
L 223.452002 86.651626 
L 223.855062 86.453933 
L 224.291896 86.157395 
L 224.432817 85.959702 
L 224.787249 85.564317 
L 224.814997 85.366625 
L 225.591697 84.872393 
L 225.957229 84.279316 
L 226.613807 83.982777 
L 227.06263 83.785085 
L 227.090553 83.587392 
L 229.907259 82.401237 
L 230.766697 81.215082 
L 231.110173 81.01739 
L 231.256629 80.819697 
L 231.889991 80.22662 
L 231.977617 79.930081 
L 232.162221 79.732389 
L 232.180528 79.633542 
L 232.586258 79.43585 
L 232.825501 78.546234 
L 233.00137 78.348541 
L 233.394713 77.953156 
L 233.688413 77.755464 
L 233.715268 77.656617 
L 234.083233 77.360079 
L 234.244116 77.162386 
L 234.649774 76.964694 
L 235.430483 76.173924 
L 235.658844 76.075077 
L 236.573844 75.877385 
L 236.776817 75.679692 
L 236.802058 75.580846 
L 236.957597 75.482 
L 237.730066 75.185461 
L 237.999606 74.987769 
L 238.152992 74.493537 
L 238.464236 74.295845 
L 238.771004 73.90046 
L 239.204585 73.406229 
L 239.205802 73.307382 
L 239.7702 73.10969 
L 240.01827 72.516612 
L 240.317783 72.31892 
L 240.485206 71.824689 
L 241.516702 71.132765 
L 241.602339 70.935072 
L 241.691463 70.440841 
L 241.944805 70.144302 
L 242.327169 69.94661 
L 242.576629 69.748917 
L 242.600479 69.650071 
L 242.830774 69.452379 
L 242.989737 69.254686 
L 243.732722 69.056994 
L 243.875255 68.859301 
L 244.926355 67.969685 
L 244.978765 67.673146 
L 245.134956 67.475454 
L 246.058748 67.277761 
L 246.799114 66.981222 
L 247.491276 66.388145 
L 247.988059 66.190452 
L 248.232937 65.893914 
L 248.332199 65.795068 
L 248.615544 65.597375 
L 248.925728 65.300836 
L 249.954181 64.312374 
L 250.602247 64.015835 
L 250.681919 63.818143 
L 250.775829 63.62045 
L 251.100335 63.323911 
L 251.288685 63.126219 
L 251.308857 63.027373 
L 251.584018 62.730834 
L 251.786309 62.137756 
L 252.177988 61.940064 
L 252.931627 61.149294 
L 253.082 60.951601 
L 253.127766 60.852755 
L 253.395854 60.753909 
L 254.123268 60.556216 
L 254.24141 60.259678 
L 254.519034 60.061985 
L 256.172514 58.381599 
L 256.387416 57.689675 
L 256.680542 57.491983 
L 256.738661 57.29429 
L 257.722766 56.800059 
L 258.291866 56.404674 
L 259.131149 55.811596 
L 259.592711 55.613904 
L 259.796223 55.515058 
L 260.409865 55.317365 
L 261.135397 54.92198 
L 261.924617 54.625441 
L 261.933041 54.526595 
L 263.550929 53.636979 
L 264.792804 52.747363 
L 265.59478 52.54967 
L 265.668105 52.154285 
L 266.178881 51.857747 
L 266.806458 51.165823 
L 267.410657 50.770438 
L 267.487289 50.572745 
L 268.089697 50.375053 
L 268.146705 50.276207 
L 268.984422 49.781975 
L 268.991951 49.683129 
L 270.429544 48.793513 
L 270.531531 48.59582 
L 271.107471 48.200435 
L 271.222295 47.80505 
L 271.331949 47.706204 
L 272.773252 47.113127 
L 272.811417 47.01428 
L 273.645646 46.618895 
L 273.896004 46.322357 
L 274.329011 46.124664 
L 274.641996 45.828125 
L 275.084558 45.531587 
L 275.273883 45.136202 
L 275.301207 45.037355 
L 275.992642 44.839663 
L 276.338258 44.147739 
L 276.754014 43.8512 
L 278.275464 42.763892 
L 278.628046 42.566199 
L 279.236974 42.368507 
L 279.726983 41.874275 
L 281.663653 40.68812 
L 281.748387 40.490428 
L 282.000562 40.193889 
L 282.110961 39.89735 
L 282.470284 39.699658 
L 282.60272 39.304273 
L 283.190789 39.007734 
L 283.671128 38.810042 
L 283.746483 38.711195 
L 284.28147 38.414657 
L 284.30321 38.31581 
L 284.969591 38.118118 
L 285.233609 37.821579 
L 285.471724 37.623887 
L 285.922402 37.426194 
L 285.933226 37.327348 
L 286.605361 37.129656 
L 287.121612 36.635424 
L 287.290069 36.437732 
L 287.498044 35.943501 
L 288.69016 35.548116 
L 289.611098 35.350423 
L 289.62836 35.251577 
L 290.95486 34.955038 
L 291.076518 34.757346 
L 291.882838 34.065422 
L 292.555164 33.670037 
L 292.567821 33.571191 
L 292.875644 33.373498 
L 293.237134 33.076959 
L 293.766426 32.879267 
L 294.273407 32.483882 
L 294.8272 32.088497 
L 294.893413 31.890804 
L 295.171865 31.693112 
L 296.189113 31.495419 
L 296.199289 31.396573 
L 296.434702 31.297727 
L 297.097758 31.100034 
L 297.207613 30.902342 
L 297.608023 30.704649 
L 297.713416 30.605803 
L 298.199126 30.408111 
L 298.57062 30.012726 
L 299.299547 29.815033 
L 299.379412 29.518494 
L 300.612533 28.727724 
L 300.630118 28.628878 
L 301.079911 28.431186 
L 302.35419 28.134647 
L 302.549969 27.936954 
L 303.040859 27.739262 
L 303.173789 27.541569 
L 303.219999 27.442723 
L 303.768427 27.245031 
L 304.366733 26.454261 
L 304.987109 26.256568 
L 305.025913 26.157722 
L 305.34798 25.960029 
L 305.45044 25.861183 
L 306.289195 25.663491 
L 306.364874 25.465798 
L 307.774715 25.268106 
L 308.084587 25.070413 
L 309.009588 24.872721 
L 312.372671 23.686566 
L 313.084662 23.488873 
L 313.154688 23.390027 
L 313.937542 23.192335 
L 314.049442 22.895796 
L 314.216509 22.698103 
L 315.155437 22.401565 
L 316.063621 22.105026 
L 317.234361 21.709641 
L 317.463751 21.610795 
L 318.343749 21.413102 
L 319.052298 21.116563 
L 319.628856 20.820025 
L 321.117863 20.523486 
L 321.14876 20.42464 
L 322.650386 19.930408 
L 323.021067 19.732716 
L 324.258722 19.535023 
L 324.490889 19.436177 
L 326.003906 19.238485 
L 327.976555 19.040792 
L 328.077893 18.941946 
L 328.7009 18.744253 
L 331.761311 18.348868 
L 332.022533 18.151176 
L 333.694512 17.953483 
L 333.92117 17.854637 
L 336.942504 17.656945 
L 340.420077 17.26156 
L 349.684943 17.162713 
L 349.684943 17.162713 
" clip-path="url(#p49c4d95551)" style="fill: none; stroke: #1f77b4; stroke-width: 1.5; stroke-linecap: square"/>
   </g>
   <g id="line2d_13">
    <path d="M 86.596081 214.756364 
L 94.52983 214.608094 
L 98.8819 214.113863 
L 98.941354 214.06444 
L 100.70849 213.669055 
L 101.058421 213.520786 
L 102.048226 213.372516 
L 103.091765 212.977131 
L 103.532392 212.779439 
L 103.54224 212.730016 
L 103.810217 212.581746 
L 104.154517 212.433477 
L 106.118512 211.543861 
L 106.124223 211.494437 
L 106.834788 211.296745 
L 106.84709 211.247322 
L 107.127191 211.099052 
L 107.394737 210.90136 
L 108.01012 210.703667 
L 108.896417 210.209436 
L 109.563532 210.011744 
L 110.111202 209.665782 
L 110.172065 209.566936 
L 110.677782 209.418666 
L 111.18651 208.973858 
L 111.986907 208.776166 
L 112.353475 208.578473 
L 112.511635 208.331357 
L 113.304304 207.73828 
L 113.438289 207.392318 
L 114.115558 206.996933 
L 114.65275 206.354433 
L 115.2252 206.057894 
L 115.266227 206.008471 
L 116.018755 205.761355 
L 116.291031 205.563663 
L 117.257322 205.168278 
L 117.277496 205.118854 
L 117.500883 204.970585 
L 117.633208 204.674046 
L 117.964904 204.476354 
L 118.272369 203.932699 
L 118.715016 203.487891 
L 118.984462 203.290199 
L 121.043046 201.659236 
L 121.390468 201.461543 
L 122.662791 200.176542 
L 123.328602 199.880003 
L 123.460599 199.682311 
L 124.159703 198.891541 
L 124.341103 198.693848 
L 124.466564 198.545579 
L 124.740852 198.39731 
L 124.830378 198.24904 
L 125.07921 198.051348 
L 125.212763 197.804232 
L 125.50196 197.60654 
L 125.759204 197.408847 
L 126.162993 197.260578 
L 126.267014 197.062885 
L 127.854091 195.827307 
L 127.962693 195.629615 
L 128.264735 195.431922 
L 128.394254 195.23423 
L 129.143318 194.44346 
L 129.151104 194.344613 
L 129.390675 194.146921 
L 129.402753 194.097498 
L 129.577307 193.949228 
L 130.105721 193.405574 
L 130.548208 192.960766 
L 130.655733 192.71365 
L 131.817229 191.824034 
L 131.903292 191.675765 
L 132.359165 191.428649 
L 132.779862 191.082687 
L 132.90006 190.835572 
L 133.662469 190.044802 
L 133.860127 189.797686 
L 134.089547 189.599993 
L 134.36381 189.402301 
L 134.595056 189.204608 
L 134.720277 189.056339 
L 136.509202 187.227683 
L 136.539 187.128837 
L 136.682964 186.980568 
L 136.687117 186.931145 
L 137.111797 186.684029 
L 137.288659 186.486337 
L 137.613224 185.794413 
L 137.919461 185.399028 
L 137.995296 185.201335 
L 138.519323 184.80595 
L 138.699794 184.608258 
L 138.770017 184.459989 
L 139.264716 183.866911 
L 139.341982 183.718642 
L 139.593105 183.520949 
L 139.678932 183.37268 
L 140.097455 183.026718 
L 140.56425 182.384217 
L 140.692528 182.186525 
L 141.055785 181.840563 
L 141.408086 181.64287 
L 141.537385 181.395755 
L 142.220121 180.802677 
L 142.670214 180.555562 
L 143.019244 180.357869 
L 143.193547 180.160177 
L 143.448244 179.764792 
L 143.63645 179.616522 
L 143.816255 179.41883 
L 144.026785 179.072868 
L 144.186788 178.776329 
L 144.624078 178.183252 
L 144.760801 177.936136 
L 145.277976 177.095943 
L 145.418817 176.947674 
L 146.142123 176.453442 
L 146.236501 176.107481 
L 146.320575 176.008634 
L 146.671264 175.860365 
L 146.808297 175.712096 
L 147.423255 174.822479 
L 147.520672 174.67421 
L 147.676979 174.476517 
L 147.793347 174.377671 
L 147.951341 174.229402 
L 148.233862 173.834017 
L 148.311356 173.636324 
L 148.772876 173.09267 
L 149.185245 172.845554 
L 149.581795 172.351323 
L 149.736877 172.153631 
L 149.880574 171.758246 
L 150.055982 171.609976 
L 150.085813 171.51113 
L 150.233664 171.362861 
L 150.333685 171.214591 
L 150.618287 171.016899 
L 150.735587 170.868629 
L 150.866228 170.670937 
L 151.621871 170.028436 
L 151.718359 169.731898 
L 151.835121 169.484782 
L 152.000083 169.237666 
L 152.237696 168.941128 
L 152.702555 168.446896 
L 152.860533 168.150358 
L 153.115812 167.903242 
L 153.223937 167.656126 
L 153.441472 167.359588 
L 153.663671 167.161895 
L 153.674869 167.063049 
L 154.047643 166.815933 
L 154.152937 166.618241 
L 154.991982 165.530932 
L 155.182836 165.382663 
L 155.315546 165.135547 
L 155.496073 164.937855 
L 155.654322 164.54247 
L 155.974094 164.344777 
L 155.991967 164.295354 
L 156.243663 164.097661 
L 156.323005 163.949392 
L 156.479257 163.801123 
L 156.58845 163.405738 
L 157.144595 162.96093 
L 157.561937 162.565545 
L 157.74327 162.367852 
L 157.825179 162.17016 
L 157.993446 161.972467 
L 158.051747 161.824198 
L 158.26234 161.577082 
L 159.237644 160.094388 
L 159.578851 159.896696 
L 159.917386 159.303618 
L 160.115733 159.105926 
L 160.628027 158.562271 
L 160.747727 158.364579 
L 160.869818 158.21631 
L 161.133602 158.018617 
L 161.353707 157.474963 
L 161.578605 157.178424 
L 161.884369 156.832462 
L 162.226855 156.585347 
L 162.316515 156.189962 
L 162.735722 155.992269 
L 162.950943 155.646307 
L 163.076778 155.448615 
L 163.796032 154.954383 
L 163.91119 154.756691 
L 164.12337 154.558998 
L 165.257713 153.125728 
L 165.359651 152.779766 
L 165.559514 152.582073 
L 166.254859 151.643034 
L 166.523809 151.148803 
L 166.736058 150.901687 
L 166.863581 150.753418 
L 167.025192 150.506302 
L 167.86388 149.715532 
L 169.363459 147.343222 
L 169.528651 147.096107 
L 170.093872 146.503029 
L 170.693658 146.107644 
L 172.160728 144.130719 
L 172.494028 143.636488 
L 172.761491 143.438796 
L 172.905758 143.19168 
L 173.132098 142.845718 
L 173.254051 142.598602 
L 173.414693 142.252641 
L 174.013439 141.708986 
L 174.158297 141.511294 
L 174.751116 140.522831 
L 175.092864 140.325139 
L 175.72731 139.386099 
L 175.87446 139.188407 
L 176.135804 138.793022 
L 176.383123 138.545906 
L 176.561286 138.249367 
L 176.82492 138.002252 
L 176.903818 137.804559 
L 177.173966 137.557444 
L 178.151882 136.124173 
L 178.236413 136.025327 
L 179.620706 134.246094 
L 179.75839 134.048402 
L 180.774939 132.516285 
L 180.885649 132.170323 
L 181.078555 131.923208 
L 181.322559 131.577246 
L 181.409616 131.428976 
L 181.673167 131.231284 
L 181.712485 131.132438 
L 181.920311 130.934745 
L 182.243513 130.53936 
L 182.323313 130.391091 
L 182.497003 130.193398 
L 182.625218 129.995706 
L 182.814179 129.847436 
L 183.500885 129.007243 
L 183.697513 128.858974 
L 183.76257 128.710705 
L 184.227484 128.216473 
L 184.338897 128.018781 
L 184.676093 127.623396 
L 185.003671 127.37628 
L 185.283495 126.684356 
L 185.413156 126.486664 
L 185.538389 126.239548 
L 185.761763 125.94301 
L 186.03912 125.448778 
L 186.365432 125.102816 
L 186.861063 124.2132 
L 187.199741 123.966085 
L 187.322814 123.718969 
L 187.492533 123.521276 
L 187.547687 123.42243 
L 187.709103 123.224738 
L 188.123583 122.63166 
L 188.179876 122.433968 
L 188.473665 122.285698 
L 188.613273 122.038583 
L 189.664123 120.25935 
L 189.858667 120.111081 
L 189.915684 119.962812 
L 190.1952 119.715696 
L 190.370303 119.518003 
L 190.640006 119.320311 
L 190.801089 119.073195 
L 190.953197 118.727233 
L 191.108987 118.578964 
L 191.426697 118.430695 
L 191.548855 118.084733 
L 191.847591 117.689348 
L 192.425168 116.948001 
L 192.541959 116.700885 
L 192.613493 116.552616 
L 192.886059 116.354923 
L 193.061623 115.860692 
L 193.289696 115.663 
L 193.614683 115.168769 
L 193.985263 114.87223 
L 194.114063 114.625114 
L 194.268422 114.377999 
L 194.310507 114.279152 
L 194.699764 114.130883 
L 194.954435 113.735498 
L 195.357764 113.043574 
L 195.599026 112.796459 
L 195.851886 112.302227 
L 195.870005 112.203381 
L 196.268986 112.005689 
L 196.829708 111.313765 
L 196.915533 110.91838 
L 196.980526 110.77011 
L 197.10394 110.572418 
L 197.365142 110.374725 
L 197.679466 109.831071 
L 197.803671 109.682802 
L 197.969994 109.435686 
L 198.24165 109.18857 
L 198.269728 109.089724 
L 198.396932 108.941455 
L 198.398256 108.892032 
L 198.604303 108.743762 
L 198.615296 108.644916 
L 198.772586 108.496647 
L 198.920625 108.298954 
L 199.558233 107.607031 
L 200.009586 107.162222 
L 200.148452 106.915107 
L 200.394869 106.569145 
L 200.591237 106.124337 
L 200.890251 105.877221 
L 201.197144 105.531259 
L 201.348204 105.38299 
L 201.619817 104.987605 
L 201.74565 104.789912 
L 201.887522 104.59222 
L 202.021787 104.394527 
L 202.198123 104.147412 
L 202.376674 103.900296 
L 202.500092 103.653181 
L 202.662956 103.406065 
L 202.787113 103.257796 
L 203.524663 102.269333 
L 203.866167 101.923371 
L 203.87321 101.873948 
L 204.119727 101.676256 
L 204.501066 101.280871 
L 204.578556 100.934909 
L 204.852166 100.588947 
L 204.984042 100.242985 
L 205.173198 99.946446 
L 205.283912 99.8476 
L 205.38444 99.649908 
L 205.40208 99.551061 
L 205.715142 99.353369 
L 205.993177 98.809714 
L 206.162429 98.612022 
L 206.451133 98.167214 
L 206.741795 97.969521 
L 207.035765 97.672983 
L 207.373963 97.47529 
L 207.472462 97.277598 
L 207.614672 97.079905 
L 207.8302 96.832789 
L 208.078574 96.585674 
L 208.156738 96.437404 
L 208.338054 96.239712 
L 208.40036 95.992596 
L 208.507249 95.844327 
L 208.611332 95.696058 
L 208.774981 95.547788 
L 208.910944 95.201826 
L 209.515289 94.361633 
L 209.641636 94.163941 
L 209.737583 93.966248 
L 209.908216 93.66971 
L 210.292927 93.175478 
L 210.502566 92.928363 
L 210.95147 92.187016 
L 211.285513 91.742208 
L 211.389543 91.544515 
L 211.651287 91.2974 
L 211.779275 91.14913 
L 212.01078 90.902015 
L 212.224139 90.704322 
L 212.320083 90.457206 
L 212.604916 90.259514 
L 212.81148 89.864129 
L 213.189054 89.56759 
L 213.264001 89.468744 
L 213.419149 89.271051 
L 213.662656 88.974513 
L 213.904672 88.727397 
L 213.996096 88.381435 
L 214.215025 88.035473 
L 215.079948 86.898742 
L 215.188971 86.651626 
L 215.892084 85.959702 
L 216.255902 85.564317 
L 216.574474 85.070086 
L 216.90393 84.872393 
L 218.049064 83.537969 
L 218.194276 83.340277 
L 218.594119 82.697776 
L 219.121021 82.351814 
L 219.367727 81.80816 
L 219.496049 81.65989 
L 220.629078 80.177197 
L 220.818845 80.028927 
L 220.899346 79.831235 
L 221.025813 79.584119 
L 221.36402 79.28758 
L 221.476922 78.991042 
L 221.649885 78.743926 
L 221.910505 78.447387 
L 222.655978 77.458925 
L 222.85362 77.211809 
L 222.92439 77.014117 
L 223.143846 76.816424 
L 223.335165 76.668155 
L 223.837791 76.025654 
L 224.434786 75.827962 
L 224.542777 75.679692 
L 224.945411 75.185461 
L 225.049097 74.987769 
L 225.3189 74.740653 
L 225.460365 74.444114 
L 225.800017 74.048729 
L 225.923704 73.801614 
L 226.250416 73.603921 
L 226.268564 73.455652 
L 226.483215 73.307382 
L 226.721345 72.911997 
L 227.026067 72.664882 
L 227.425877 71.775266 
L 228.241732 70.836226 
L 228.396942 70.687957 
L 229.284522 69.650071 
L 229.54897 69.353532 
L 229.646936 69.15584 
L 229.87059 68.760455 
L 230.406882 68.513339 
L 230.527774 68.266224 
L 230.660492 68.068531 
L 230.811217 67.722569 
L 231.058858 67.475454 
L 231.285415 67.129492 
L 231.5707 66.931799 
L 231.65307 66.78353 
L 231.980149 66.486991 
L 232.737363 65.399683 
L 233.001687 65.152567 
L 234.148297 63.867566 
L 234.152634 63.768719 
L 234.374604 63.62045 
L 234.508278 63.373334 
L 235.164554 62.533141 
L 235.42266 62.384872 
L 235.791819 61.692948 
L 236.394243 61.050448 
L 236.396728 61.001024 
L 236.577627 60.852755 
L 236.684422 60.704486 
L 237.541192 59.567754 
L 237.748489 59.320638 
L 237.880264 59.073523 
L 238.169489 58.925253 
L 238.349944 58.678138 
L 238.849626 57.936791 
L 239.209763 57.788521 
L 239.344047 57.491983 
L 239.679786 57.244867 
L 240.452765 56.058712 
L 240.619939 55.910443 
L 240.702145 55.762173 
L 241.020984 55.515058 
L 241.443235 54.971403 
L 241.73425 54.823134 
L 241.85946 54.674865 
L 242.427808 54.328903 
L 242.54116 54.180633 
L 243.102131 53.48871 
L 243.257426 53.192171 
L 243.651499 52.69794 
L 243.977006 52.351978 
L 244.090524 52.104862 
L 244.439503 51.412938 
L 244.510913 51.264669 
L 244.850958 50.918707 
L 244.88216 50.869284 
L 245.058754 50.721015 
L 245.159833 50.473899 
L 245.521662 50.127937 
L 245.548887 50.029091 
L 245.856468 49.781975 
L 246.263293 49.238321 
L 246.818116 49.040628 
L 246.99986 48.892359 
L 247.107183 48.59582 
L 247.879248 47.95332 
L 248.032903 47.656781 
L 248.248744 47.508512 
L 248.385766 47.113127 
L 248.594141 46.767165 
L 248.948333 46.421203 
L 249.244172 46.075241 
L 249.300936 45.976395 
L 249.532648 45.828125 
L 249.647364 45.531587 
L 250.094919 45.235048 
L 250.468273 45.086778 
L 250.838689 44.246585 
L 251.268822 43.900624 
L 251.297614 43.752354 
L 251.521629 43.554662 
L 251.681447 43.356969 
L 252.069134 43.109854 
L 252.192908 42.912161 
L 252.5758 42.714469 
L 253.07507 42.41793 
L 253.166278 42.26966 
L 253.540989 42.071968 
L 253.598632 41.923699 
L 254.044332 41.528314 
L 254.087406 41.429467 
L 254.39482 41.231775 
L 255.185507 40.490428 
L 255.352431 40.144466 
L 255.623801 39.89735 
L 255.875829 39.600812 
L 256.062499 39.304273 
L 256.292015 39.156004 
L 256.401299 39.007734 
L 256.584179 38.810042 
L 256.653505 38.612349 
L 256.775489 38.46408 
L 257.523259 37.574464 
L 257.774341 37.277925 
L 257.999063 36.981386 
L 258.192005 36.833117 
L 258.250894 36.684847 
L 258.461287 36.437732 
L 258.873026 35.992924 
L 259.244807 35.795231 
L 260.675795 34.460807 
L 261.137649 34.312537 
L 261.234246 34.065422 
L 261.388098 33.768883 
L 261.592543 33.620614 
L 261.859177 33.324075 
L 261.977371 33.225229 
L 262.421413 33.076959 
L 263.109588 32.434459 
L 263.593982 31.693112 
L 264.179956 31.34715 
L 264.439485 31.149457 
L 264.768045 30.803496 
L 264.831872 30.655226 
L 265.752968 30.111572 
L 266.0778 29.913879 
L 266.138366 29.815033 
L 266.603258 29.617341 
L 267.276334 28.925417 
L 267.69352 28.777148 
L 268.401197 28.282916 
L 268.405537 28.233493 
L 268.827088 27.986378 
L 268.905585 27.838108 
L 269.286862 27.640416 
L 269.772972 27.294454 
L 269.950832 27.047338 
L 270.360436 26.750799 
L 270.669827 26.454261 
L 271.029851 26.256568 
L 271.565443 25.861183 
L 272.054692 25.663491 
L 272.296718 25.366952 
L 272.567818 25.218683 
L 272.653162 25.119836 
L 272.868598 24.922144 
L 275.91642 22.994642 
L 276.329004 22.79695 
L 276.578402 22.599257 
L 277.120639 22.105026 
L 277.22497 21.956756 
L 278.360847 21.363679 
L 278.519862 21.165986 
L 278.999783 21.017717 
L 279.497683 20.671755 
L 280.073715 20.42464 
L 280.896567 20.27637 
L 281.171221 20.128101 
L 282.780711 19.287908 
L 282.834128 19.189061 
L 283.24907 18.991369 
L 283.272673 18.941946 
L 283.932563 18.744253 
L 283.933373 18.69483 
L 284.465517 18.497138 
L 284.596377 18.398291 
L 286.957754 18.101753 
L 287.143884 17.854637 
L 288.873682 17.508675 
L 288.984065 17.409829 
L 290.856907 17.26156 
L 291.9746 17.11329 
L 291.9746 17.11329 
" clip-path="url(#p49c4d95551)" style="fill: none; stroke: #ff7f0e; stroke-width: 1.5; stroke-linecap: square"/>
   </g>
   <g id="line2d_14">
    <path d="M 110.284678 214.756364 
L 116.578434 214.459825 
L 116.595705 214.426876 
L 117.453899 214.229184 
L 118.867031 213.702004 
L 119.041757 213.603157 
L 119.363782 213.372516 
L 120.224722 213.075977 
L 120.344921 212.878285 
L 120.761556 212.680592 
L 120.926978 212.515849 
L 121.727429 212.087515 
L 121.796259 212.021617 
L 122.392089 211.593284 
L 122.429634 211.560335 
L 122.839775 211.395591 
L 123.083933 211.230847 
L 123.130336 211.16495 
L 123.387138 211.033155 
L 123.559428 210.90136 
L 123.810213 210.736616 
L 123.935709 210.63777 
L 124.262892 210.473026 
L 124.460271 210.341231 
L 124.559926 210.275334 
L 125.035636 209.847 
L 125.195514 209.682256 
L 126.131363 208.825589 
L 126.671615 208.660845 
L 127.427777 207.903024 
L 127.821699 207.606485 
L 128.032712 207.47469 
L 128.488111 207.309946 
L 128.818969 206.980459 
L 129.133525 206.782766 
L 129.961067 205.761355 
L 130.136902 205.563663 
L 130.195852 205.497765 
L 130.482929 205.300073 
L 130.754152 204.970585 
L 131.477415 204.212764 
L 131.58205 204.113918 
L 132.101054 203.487891 
L 132.391031 203.224301 
L 132.471881 203.125455 
L 132.628031 202.927763 
L 132.695298 202.861865 
L 133.580346 202.301736 
L 134.072725 201.807505 
L 134.392915 201.576864 
L 134.737901 201.181479 
L 135.060053 200.983786 
L 136.266134 199.797631 
L 136.823179 199.435195 
L 137.006556 199.03981 
L 137.272121 198.875066 
L 139.011219 196.6675 
L 139.248942 196.502756 
L 139.545877 196.107371 
L 140.185218 195.514294 
L 140.504937 195.08596 
L 140.667333 194.789421 
L 140.749121 194.525831 
L 140.822215 194.459934 
L 141.003409 194.229293 
L 141.325706 193.866857 
L 141.644231 193.636215 
L 141.808712 193.372625 
L 142.584418 192.483009 
L 142.896345 192.219419 
L 142.98113 192.054675 
L 143.855602 191.000315 
L 144.058169 190.769674 
L 144.142094 190.571982 
L 144.753565 189.81416 
L 145.093509 189.451724 
L 145.249735 189.254032 
L 146.536391 187.837235 
L 146.666226 187.672492 
L 146.807562 187.474799 
L 146.908081 187.310055 
L 147.088272 187.013517 
L 147.401102 186.815824 
L 147.648017 186.453388 
L 148.027832 185.794413 
L 148.599203 184.970694 
L 148.910089 184.80595 
L 149.105564 184.54236 
L 149.240939 184.344668 
L 149.37165 184.114027 
L 149.61522 183.916334 
L 149.764609 183.685693 
L 150.052781 183.22441 
L 150.306506 182.927872 
L 150.438075 182.631333 
L 150.59776 182.466589 
L 150.836901 182.17005 
L 151.010445 181.972358 
L 151.163821 181.64287 
L 151.340841 181.412229 
L 152.216015 180.160177 
L 152.347795 180.028382 
L 152.723341 179.534151 
L 152.834544 179.336458 
L 153.47749 178.578637 
L 154.39685 177.062994 
L 154.487679 176.865302 
L 154.85061 176.469917 
L 154.967454 176.206327 
L 155.298677 175.876839 
L 155.439794 175.646198 
L 156.428866 174.196453 
L 156.7349 173.899914 
L 156.914026 173.768119 
L 157.091189 173.504529 
L 157.201215 173.240939 
L 159.55512 169.715423 
L 159.788096 169.287089 
L 160.381073 168.298627 
L 160.59952 168.133883 
L 161.034233 167.606703 
L 161.09929 167.441959 
L 161.272083 167.244267 
L 161.391949 167.046574 
L 161.551377 166.651189 
L 161.702133 166.420548 
L 161.8027 166.156958 
L 162.746969 164.871957 
L 162.903303 164.641316 
L 163.075497 164.443623 
L 164.224254 162.730288 
L 164.349074 162.499647 
L 164.449966 162.367852 
L 164.586547 162.005416 
L 165.530016 160.654517 
L 165.675931 160.456825 
L 165.787936 160.226183 
L 166.149466 159.53426 
L 166.299094 159.27067 
L 166.475474 159.00708 
L 166.616206 158.776438 
L 166.747305 158.578746 
L 166.857464 158.414002 
L 167.866067 156.997206 
L 167.953023 156.865411 
L 168.03873 156.700667 
L 168.111496 156.535923 
L 168.324157 156.37118 
L 168.435391 156.074641 
L 168.519896 155.876948 
L 168.604219 155.712205 
L 168.844285 155.250922 
L 168.994006 154.954383 
L 169.404091 154.295408 
L 169.57666 154.097716 
L 169.738078 153.801177 
L 169.875193 153.603485 
L 170.151365 152.977458 
L 170.387165 152.68092 
L 170.491231 152.450278 
L 172.213521 149.847327 
L 172.374346 149.583737 
L 172.613062 149.122455 
L 172.696303 148.924762 
L 172.868735 148.72707 
L 173.121546 148.364634 
L 175.312565 144.937964 
L 175.562199 144.707322 
L 175.757527 144.213091 
L 175.910136 144.015399 
L 176.05495 143.652962 
L 178.573675 139.830907 
L 178.722616 139.50142 
L 178.897508 139.336676 
L 179.192828 138.809496 
L 179.300135 138.545906 
L 179.593726 138.018726 
L 179.747167 137.853982 
L 180.055634 137.326802 
L 180.419345 136.733725 
L 180.506099 136.60193 
L 180.664459 136.404238 
L 180.906333 135.778211 
L 181.552602 135.185134 
L 181.65241 134.954493 
L 181.776523 134.657954 
L 181.948495 134.295518 
L 182.05712 134.130774 
L 182.162547 133.867184 
L 182.700066 132.91167 
L 182.840945 132.779875 
L 182.969372 132.582183 
L 183.191775 132.1209 
L 183.318615 131.923208 
L 183.818865 131.494874 
L 184.104942 131.033591 
L 184.27059 130.737053 
L 184.491552 130.473463 
L 184.495587 130.440514 
L 184.69281 130.27577 
L 185.368871 128.891923 
L 185.510401 128.727179 
L 186.324824 127.11269 
L 186.375646 127.013844 
L 186.500312 126.8491 
L 186.724009 126.519613 
L 187.184607 126.025381 
L 187.949934 124.641534 
L 188.116902 124.47679 
L 188.256512 124.312046 
L 188.730453 123.587174 
L 188.842502 123.356533 
L 188.98278 123.191789 
L 189.494364 121.972685 
L 189.647113 121.511403 
L 189.84139 121.181915 
L 190.921394 119.172042 
L 191.062727 119.007298 
L 191.211399 118.842554 
L 191.405646 118.644862 
L 191.488727 118.480118 
L 191.869902 117.952938 
L 192.003302 117.821143 
L 192.204618 117.590502 
L 193.206628 115.77832 
L 193.310408 115.51473 
L 194.383406 113.603703 
L 194.488955 113.40601 
L 194.751428 112.944728 
L 194.870404 112.714087 
L 195.711143 111.593829 
L 195.811661 111.330239 
L 196.042076 111.099598 
L 196.126674 110.901905 
L 196.222962 110.704213 
L 196.32968 110.539469 
L 196.467411 110.177033 
L 196.560763 109.97934 
L 196.889129 109.583955 
L 197.054405 109.18857 
L 197.594977 108.463698 
L 198.749727 106.849209 
L 199.644446 105.135874 
L 200.144114 104.411002 
L 201.627208 101.873948 
L 201.735469 101.610358 
L 201.891896 101.346768 
L 202.039672 101.116127 
L 202.618815 100.259459 
L 202.712954 100.094716 
L 202.843117 99.929972 
L 203.032821 99.402792 
L 203.338781 99.007407 
L 203.523211 98.677919 
L 203.802092 98.447278 
L 203.956276 98.249586 
L 204.125381 98.018944 
L 204.619005 97.096379 
L 205.151609 96.338558 
L 205.272858 96.009071 
L 205.356802 95.844327 
L 205.537008 95.679583 
L 205.796102 95.448942 
L 206.613484 93.999197 
L 206.784925 93.834453 
L 206.904668 93.66971 
L 207.058875 93.472017 
L 207.54592 92.516503 
L 207.638154 92.384708 
L 207.810029 92.187016 
L 207.879631 91.890477 
L 208.035348 91.725733 
L 208.389899 91.099707 
L 208.479216 90.803168 
L 208.734044 90.605476 
L 208.908485 90.111245 
L 209.243956 89.518167 
L 209.354112 89.320475 
L 209.506081 89.155731 
L 210.123384 88.200217 
L 210.218885 88.002525 
L 210.421325 87.837781 
L 210.639098 87.508293 
L 210.798982 87.34355 
L 211.118627 86.651626 
L 211.692469 85.76201 
L 211.868625 85.366625 
L 212.109735 85.037137 
L 212.210785 84.806496 
L 213.413416 82.928417 
L 213.658221 82.697776 
L 214.096367 81.775211 
L 214.410191 81.248031 
L 214.546587 81.050338 
L 214.754849 80.7538 
L 215.027966 80.22662 
L 215.307671 79.995979 
L 215.403959 79.831235 
L 215.570308 79.633542 
L 215.709454 79.43585 
L 215.787436 79.271106 
L 216.223171 78.546234 
L 216.51518 78.249695 
L 218.754029 74.592384 
L 218.874118 74.361742 
L 220.446978 72.253022 
L 220.827464 71.561099 
L 221.09404 71.26456 
L 221.295598 70.836226 
L 221.410597 70.671482 
L 221.517351 70.572636 
L 221.844758 70.309046 
L 221.967221 70.012507 
L 222.067447 69.880712 
L 222.294425 69.287635 
L 222.470246 68.991096 
L 222.909835 68.299172 
L 223.111167 68.10148 
L 223.622051 67.277761 
L 223.993718 66.51994 
L 224.33732 66.124555 
L 225.626646 63.982886 
L 225.793604 63.752245 
L 225.979131 63.389809 
L 226.10087 63.258014 
L 226.157539 63.09327 
L 226.265629 62.928526 
L 229.56363 58.183906 
L 229.703209 57.986214 
L 229.915733 57.82147 
L 230.180428 57.491983 
L 230.287709 57.29429 
L 230.419176 57.096598 
L 230.568561 56.635315 
L 230.775261 56.437623 
L 230.920836 56.206981 
L 231.27566 55.71275 
L 231.519539 55.515058 
L 231.660068 55.284416 
L 231.851032 54.954929 
L 231.951649 54.790185 
L 232.092464 54.592493 
L 232.222741 54.427749 
L 232.328101 54.197108 
L 232.416953 54.098261 
L 232.621381 53.900569 
L 232.833866 53.571081 
L 233.016361 53.406338 
L 233.63561 52.450824 
L 233.760859 52.28608 
L 233.999944 52.02249 
L 234.140161 51.791849 
L 234.679676 51.099925 
L 234.887806 50.902233 
L 235.082592 50.638643 
L 235.303872 50.309155 
L 235.685684 49.683129 
L 235.78817 49.419539 
L 235.979535 49.254795 
L 236.516314 48.59582 
L 236.886508 48.33223 
L 237.623831 47.146075 
L 237.891442 46.981332 
L 238.08742 46.651844 
L 238.344734 46.454152 
L 238.473072 46.190562 
L 238.681228 45.95992 
L 238.904707 45.531587 
L 239.372811 44.839663 
L 239.75757 44.147739 
L 239.958333 43.950047 
L 239.994841 43.818252 
L 240.259453 43.653508 
L 240.622688 43.291072 
L 240.737961 43.093379 
L 243.113966 40.358633 
L 243.450115 40.095043 
L 244.044748 39.238375 
L 244.15696 39.040683 
L 244.631846 38.447605 
L 244.839153 38.118118 
L 244.997618 37.953374 
L 245.151075 37.755682 
L 245.681449 37.063758 
L 245.826356 36.734271 
L 245.930408 36.635424 
L 246.158888 36.470681 
L 246.334498 36.141193 
L 246.570617 35.943501 
L 246.571988 35.910552 
L 246.792438 35.745808 
L 246.973959 35.416321 
L 247.058549 35.251577 
L 247.226516 34.987987 
L 247.491209 34.757346 
L 248.23696 33.900678 
L 249.353501 32.648626 
L 249.526109 32.450933 
L 249.641139 32.187343 
L 249.872917 32.022599 
L 250.047873 31.791958 
L 250.185214 31.627214 
L 250.446202 31.429522 
L 250.668357 31.231829 
L 250.914235 30.935291 
L 251.01549 30.770547 
L 251.240283 30.638752 
L 251.293955 30.539906 
L 251.701977 30.375162 
L 251.825309 30.078623 
L 252.388935 29.617341 
L 252.670646 29.419648 
L 252.806032 29.221956 
L 253.163903 28.925417 
L 253.514319 28.595929 
L 253.73602 28.431186 
L 253.931224 28.101698 
L 254.239597 27.574518 
L 254.559899 27.310928 
L 254.723986 27.113236 
L 255.090872 26.816697 
L 255.108162 26.783748 
L 255.438815 26.619004 
L 256.538685 25.301054 
L 256.891546 25.004516 
L 257.156585 24.675028 
L 257.754035 24.510284 
L 257.873263 24.279643 
L 258.180318 23.950156 
L 258.416056 23.686566 
L 258.926935 23.357078 
L 259.058423 23.225283 
L 259.220797 23.06054 
L 259.291938 22.994642 
L 259.860457 22.698103 
L 262.17268 20.984768 
L 262.808345 20.787076 
L 262.900249 20.655281 
L 263.383249 20.292845 
L 263.383294 20.259896 
L 263.724768 20.062203 
L 263.810197 19.89746 
L 264.12408 19.732716 
L 264.189778 19.63387 
L 264.812398 19.37028 
L 264.949905 19.271433 
L 265.091044 19.172587 
L 266.071963 18.744253 
L 266.166777 18.645407 
L 266.621185 18.414766 
L 266.877685 18.31592 
L 267.460469 18.151176 
L 269.027419 17.623996 
L 269.033978 17.591047 
L 271.422634 17.195662 
L 272.597863 17.096816 
L 272.597863 17.096816 
" clip-path="url(#p49c4d95551)" style="fill: none; stroke: #2ca02c; stroke-width: 1.5; stroke-linecap: square"/>
   </g>
   <g id="line2d_15">
    <path d="M 124.417424 214.756364 
L 125.844253 214.608094 
L 125.928172 214.558671 
L 127.40653 214.410402 
L 127.430023 214.38569 
L 128.386268 214.212709 
L 129.065143 214.015017 
L 129.782014 213.644343 
L 129.919138 213.496074 
L 130.173445 213.248958 
L 130.307936 213.051266 
L 131.724262 212.087515 
L 132.030586 211.865111 
L 134.036076 210.530687 
L 134.120036 210.43184 
L 134.729327 209.962321 
L 135.002753 209.690493 
L 136.000732 208.652608 
L 136.566755 208.158377 
L 136.855775 208.010107 
L 137.533992 207.392318 
L 137.711994 207.219337 
L 137.876641 207.046356 
L 138.080087 206.725106 
L 138.318219 206.527413 
L 138.408882 206.403856 
L 138.618721 206.132028 
L 139.105784 205.390682 
L 139.49514 205.094143 
L 140.279138 204.080969 
L 140.519488 203.932699 
L 140.882513 203.46318 
L 140.990867 203.31491 
L 141.446002 202.845391 
L 141.587985 202.697121 
L 141.780511 202.425294 
L 141.882417 202.227602 
L 142.086337 201.980486 
L 142.359807 201.659236 
L 142.459038 201.510966 
L 142.560416 201.362697 
L 142.971807 200.9426 
L 144.03291 199.707022 
L 144.158743 199.336349 
L 144.691439 198.71856 
L 144.921038 198.545579 
L 145.189107 198.174905 
L 145.334015 198.001925 
L 145.69087 197.482982 
L 145.790727 197.260578 
L 146.817112 196.123846 
L 146.947342 195.926153 
L 147.103632 195.728461 
L 147.20506 195.530768 
L 147.317807 195.382499 
L 147.465 195.258941 
L 147.560484 195.061249 
L 147.769928 194.863556 
L 147.961512 194.517594 
L 148.035422 194.344613 
L 148.186869 194.196344 
L 148.303635 194.023363 
L 148.406427 193.875094 
L 148.744515 193.282016 
L 149.15885 192.71365 
L 149.471286 192.417112 
L 149.648404 192.169996 
L 149.922211 191.749899 
L 150.586771 190.563744 
L 150.839461 190.094225 
L 151.043812 189.945955 
L 151.583391 189.254032 
L 151.841165 188.784512 
L 151.937242 188.611531 
L 152.05555 188.389127 
L 152.263327 188.240858 
L 152.395082 188.067877 
L 152.633507 187.672492 
L 153.051295 187.029991 
L 153.148331 186.758164 
L 153.273626 186.609894 
L 153.37493 186.461625 
L 153.564453 186.313356 
L 153.740085 185.868548 
L 153.85373 185.670855 
L 154.051427 185.349605 
L 154.281939 185.102489 
L 155.060178 184.064604 
L 155.145585 183.916334 
L 155.333808 183.570372 
L 155.975889 182.631333 
L 156.07271 182.408929 
L 156.319347 182.038255 
L 156.611702 181.544024 
L 156.72056 181.346332 
L 157.060934 180.777966 
L 157.379791 180.160177 
L 157.586644 179.863638 
L 158.003675 179.344695 
L 158.192046 178.974022 
L 161.602905 173.586901 
L 161.712419 173.315074 
L 161.866774 173.067958 
L 161.999808 172.77142 
L 162.176154 172.598439 
L 162.329606 172.227765 
L 162.438594 172.030073 
L 162.56053 171.881803 
L 162.69604 171.659399 
L 162.839896 171.387572 
L 163.012625 171.18988 
L 163.170666 170.843918 
L 163.664312 170.102571 
L 163.777222 169.806032 
L 163.889518 169.657763 
L 163.979478 169.534205 
L 164.375011 168.965839 
L 164.511866 168.595166 
L 164.758202 168.175069 
L 164.977264 167.952665 
L 165.124626 167.705549 
L 165.269585 167.507857 
L 165.376418 167.211318 
L 165.639999 166.76651 
L 165.958881 166.049875 
L 166.123734 165.703913 
L 166.31599 165.357951 
L 166.425235 165.209682 
L 166.544322 165.061412 
L 166.668947 164.839008 
L 167.306668 163.776411 
L 167.411821 163.479872 
L 167.751421 162.713814 
L 169.270708 160.242658 
L 169.378916 160.1191 
L 169.506022 159.921407 
L 169.73654 159.501311 
L 169.949176 159.155349 
L 172.222374 155.05323 
L 172.320694 154.855537 
L 172.424986 154.633133 
L 172.511169 154.460152 
L 172.796565 153.916498 
L 173.306307 153.076305 
L 174.175825 151.321784 
L 174.326639 151.124091 
L 174.895227 150.110917 
L 175.046641 149.888513 
L 175.233392 149.468417 
L 175.343449 149.196589 
L 175.646568 148.628224 
L 175.763311 148.356396 
L 176.046779 147.9363 
L 176.166452 147.78803 
L 176.290011 147.61505 
L 176.356826 147.392645 
L 176.486878 146.972549 
L 176.774244 146.700722 
L 177.076897 145.934663 
L 177.350435 145.465144 
L 177.491277 145.193316 
L 177.703178 144.995624 
L 177.80554 144.699085 
L 177.921108 144.501393 
L 178.073078 144.180142 
L 178.202699 143.908315 
L 178.40333 143.611776 
L 178.512314 143.339949 
L 178.627529 143.166968 
L 179.009892 142.376198 
L 179.145616 142.178506 
L 179.561349 141.412447 
L 179.694983 141.239466 
L 179.817561 141.017062 
L 180.506098 139.410811 
L 180.638996 139.23783 
L 180.897807 138.842445 
L 181.007401 138.570618 
L 181.445307 137.681002 
L 181.639088 137.236193 
L 181.71859 137.087924 
L 182.410514 136.124173 
L 182.514156 135.951192 
L 185.414903 130.316956 
L 185.513671 130.21811 
L 185.658232 130.045129 
L 185.785318 129.847436 
L 186.126666 129.056666 
L 186.351033 128.784839 
L 186.495666 128.4883 
L 186.706565 127.8458 
L 187.045167 127.153876 
L 187.258076 126.783203 
L 187.382294 126.437241 
L 187.632231 126.115991 
L 190.150243 121.148967 
L 190.351328 120.926562 
L 190.490793 120.753582 
L 190.620389 120.481754 
L 190.820544 120.036946 
L 190.871362 119.814542 
L 190.980396 119.567427 
L 191.263135 118.949638 
L 191.372052 118.751945 
L 191.48207 118.529541 
L 191.661309 118.282425 
L 191.791549 117.812906 
L 191.879701 117.664636 
L 192.011912 117.343386 
L 193.763817 114.130883 
L 194.046415 113.636652 
L 194.133239 113.488382 
L 194.235729 113.265978 
L 194.968359 111.882131 
L 195.322941 111.214919 
L 195.487318 110.992515 
L 195.61715 110.695976 
L 195.722587 110.522995 
L 196.006179 110.102898 
L 196.139423 109.831071 
L 196.86786 108.150685 
L 196.987241 107.952992 
L 197.039961 107.903569 
L 197.167052 107.7553 
L 197.345734 107.384626 
L 197.660164 106.915107 
L 197.860752 106.470299 
L 198.147743 105.827798 
L 198.354102 105.38299 
L 198.442725 105.210009 
L 198.611326 104.864047 
L 199.025462 104.221547 
L 199.172006 103.999142 
L 199.497796 103.4802 
L 199.812613 102.812987 
L 200.211199 101.873948 
L 200.316141 101.626833 
L 200.458833 101.355005 
L 200.634813 101.033755 
L 201.529976 99.279234 
L 201.62183 99.081542 
L 201.844859 98.710868 
L 202.018732 98.364906 
L 202.875342 96.68452 
L 202.972853 96.437404 
L 203.033657 96.215 
L 203.141437 95.992596 
L 203.292768 95.770192 
L 204.443204 93.867402 
L 204.556289 93.644998 
L 204.723496 93.397882 
L 204.927967 93.101344 
L 205.136506 92.854228 
L 205.275718 92.582401 
L 206.686084 89.864129 
L 206.819808 89.691148 
L 206.942715 89.444032 
L 207.45575 88.529705 
L 207.560114 88.356724 
L 207.713657 87.98605 
L 207.845293 87.813069 
L 207.968326 87.565954 
L 208.079318 87.417684 
L 208.298525 86.972876 
L 208.793133 85.959702 
L 209.128128 85.416048 
L 209.229818 85.193644 
L 209.572601 84.600566 
L 209.685618 84.328739 
L 209.867911 84.007489 
L 209.985893 83.809796 
L 210.52593 82.771911 
L 211.275216 81.412775 
L 211.558368 81.01739 
L 211.845089 80.473735 
L 212.373042 79.732389 
L 212.4764 79.534696 
L 212.607208 79.213446 
L 212.782544 78.768638 
L 212.877555 78.620368 
L 212.998919 78.299118 
L 213.196686 78.101425 
L 213.66282 77.236521 
L 213.993364 76.692866 
L 214.244013 76.198635 
L 214.43983 76.000943 
L 214.626669 75.729115 
L 214.960524 75.01248 
L 215.112553 74.641807 
L 215.2837 74.468826 
L 215.407456 74.271133 
L 215.673502 73.653344 
L 215.880831 73.356805 
L 215.970082 73.208536 
L 216.181089 72.763728 
L 216.481837 72.294208 
L 216.599339 72.022381 
L 216.808891 71.52815 
L 216.943454 71.305746 
L 217.133923 71.108053 
L 217.259182 70.836226 
L 217.690041 70.193726 
L 217.954749 69.551225 
L 218.281717 69.15584 
L 218.881718 68.068531 
L 219.045157 67.648435 
L 219.177652 67.500165 
L 219.2993 67.302473 
L 219.555513 66.857665 
L 219.749364 66.486991 
L 219.895976 66.289299 
L 221.435879 63.669873 
L 221.684526 63.15093 
L 222.273943 62.211891 
L 222.479864 61.742371 
L 222.584038 61.594102 
L 222.689759 61.371698 
L 222.817488 61.099871 
L 222.949787 60.951601 
L 223.078691 60.77862 
L 223.680487 59.864293 
L 224.012476 59.295927 
L 224.478572 58.529868 
L 224.610246 58.332176 
L 224.842351 57.961502 
L 224.97776 57.61554 
L 225.161037 57.368425 
L 225.263595 57.220155 
L 226.325487 55.465635 
L 226.475498 55.317365 
L 226.624622 54.946692 
L 226.897187 54.625441 
L 227.071543 54.180633 
L 227.191767 53.908806 
L 227.298055 53.735825 
L 228.05037 52.623805 
L 228.193489 52.376689 
L 228.522892 51.956593 
L 228.652219 51.709477 
L 228.854389 51.511785 
L 229.216365 50.893996 
L 229.381066 50.548034 
L 229.591174 50.251495 
L 229.843231 49.757264 
L 230.085718 49.53486 
L 230.222682 49.263032 
L 231.792735 46.791876 
L 231.940317 46.618895 
L 232.053057 46.347068 
L 232.861663 45.062067 
L 233.037783 44.889086 
L 233.43185 44.123028 
L 233.51775 43.950047 
L 233.787862 43.604085 
L 234.028095 43.307546 
L 234.168179 43.06043 
L 234.317291 42.838026 
L 234.443757 42.665045 
L 234.589644 42.368507 
L 234.732925 42.071968 
L 234.965997 41.800141 
L 235.76532 40.663409 
L 235.915975 40.342159 
L 236.032211 40.144466 
L 236.236065 39.749081 
L 236.419047 39.600812 
L 236.531827 39.452542 
L 236.787105 39.10658 
L 236.885845 38.884176 
L 237.036542 38.711195 
L 237.184043 38.488791 
L 237.370589 38.31581 
L 237.489094 38.093406 
L 238.007118 37.327348 
L 238.191063 37.104944 
L 238.198715 36.981386 
L 238.414636 36.857828 
L 238.546823 36.586001 
L 239.100716 35.77052 
L 239.179586 35.646962 
L 239.332221 35.473981 
L 239.467521 35.128019 
L 239.858133 34.707922 
L 240.160587 34.361961 
L 240.502905 34.139557 
L 240.588813 33.966576 
L 240.799097 33.768883 
L 240.960077 33.472344 
L 241.07112 33.324075 
L 242.161731 31.866093 
L 242.329052 31.742535 
L 242.525527 31.495419 
L 242.625428 31.322438 
L 242.724899 31.124746 
L 242.838699 30.951765 
L 242.994345 30.729361 
L 243.298156 30.457534 
L 243.408002 30.309264 
L 243.688835 29.988014 
L 243.793391 29.815033 
L 244.157079 29.370225 
L 244.314992 29.172533 
L 244.425809 28.97484 
L 245.242933 27.86282 
L 245.583549 27.615704 
L 245.868965 27.245031 
L 248.259345 24.848009 
L 248.542724 24.650317 
L 249.936619 22.945219 
L 250.110366 22.79695 
L 250.182306 22.673392 
L 250.466894 22.475699 
L 251.177103 22.00618 
L 251.29288 21.808487 
L 252.542528 20.721178 
L 252.689425 20.523486 
L 252.94417 20.350505 
L 253.271325 20.177524 
L 253.395498 20.029255 
L 253.697549 19.831562 
L 253.816579 19.658581 
L 254.137219 19.535023 
L 254.260728 19.411466 
L 254.481196 19.238485 
L 254.7342 19.065504 
L 255.311779 18.793676 
L 255.450421 18.645407 
L 255.793596 18.472426 
L 257.27198 17.780502 
L 259.423231 17.360406 
L 262.883783 17.088579 
L 262.883783 17.088579 
" clip-path="url(#p49c4d95551)" style="fill: none; stroke: #d62728; stroke-width: 1.5; stroke-linecap: square"/>
   </g>
   <g id="line2d_16">
    <path d="M 132.138935 214.756364 
L 134.7828 214.499363 
L 135.652117 214.163286 
L 135.685977 214.123748 
L 136.20211 213.906286 
L 136.463097 213.688824 
L 136.583854 213.609747 
L 136.963591 213.392285 
L 137.05891 213.313208 
L 137.384127 213.095747 
L 137.497406 213.01667 
L 137.997085 212.700362 
L 138.138222 212.601515 
L 139.367383 211.771207 
L 139.751674 211.41536 
L 139.86208 211.237437 
L 139.987919 211.118822 
L 140.249793 210.90136 
L 141.483209 209.873359 
L 141.616488 209.754743 
L 141.81035 209.57682 
L 141.968617 209.359358 
L 142.31562 208.983743 
L 142.449954 208.825589 
L 142.632424 208.627896 
L 142.871733 208.311588 
L 143.245625 207.935973 
L 143.380988 207.837126 
L 144.038706 207.184741 
L 144.247938 207.026587 
L 144.619103 206.473048 
L 144.76556 206.295125 
L 144.927538 206.018355 
L 145.203605 205.702047 
L 145.38255 205.524124 
L 145.507529 205.306662 
L 147.510676 202.637814 
L 147.820622 202.222659 
L 147.997018 202.084275 
L 148.117099 201.94589 
L 148.377611 201.748197 
L 148.605204 201.41212 
L 148.896631 201.016735 
L 149.116834 200.601581 
L 149.402598 200.285273 
L 149.639904 199.968965 
L 149.816754 199.711965 
L 150.020795 199.415426 
L 150.28977 198.921195 
L 150.469476 198.743271 
L 150.604061 198.52581 
L 150.789427 198.209502 
L 151.292755 197.260578 
L 151.527601 196.94427 
L 151.63786 196.726808 
L 151.971703 196.113961 
L 152.122749 195.975576 
L 152.800992 195.006883 
L 152.942008 194.868498 
L 155.770457 190.104109 
L 155.902022 189.945955 
L 156.107641 189.590109 
L 156.335071 189.174955 
L 156.459153 189.016801 
L 156.55238 188.858647 
L 156.64793 188.601646 
L 157.020409 188.127184 
L 157.136986 187.830646 
L 157.305359 187.553876 
L 157.523931 187.257337 
L 157.832341 186.782875 
L 158.284888 185.893259 
L 158.446088 185.695567 
L 158.551026 185.497874 
L 158.64115 185.319951 
L 158.7519 185.161797 
L 158.894043 184.786181 
L 159.077715 184.410565 
L 159.246668 184.133796 
L 159.466848 183.718642 
L 161.524154 180.259023 
L 161.674464 179.962484 
L 162.181518 179.092637 
L 162.410187 178.717022 
L 162.531361 178.479791 
L 162.742466 177.96579 
L 162.82861 177.748328 
L 162.950032 177.45179 
L 163.105768 177.273866 
L 163.249609 177.076174 
L 163.364373 176.858712 
L 164.68855 174.308479 
L 164.826645 173.932863 
L 164.924848 173.715401 
L 165.343476 172.96417 
L 166.412486 171.10586 
L 166.534743 170.868629 
L 166.685637 170.631398 
L 166.797411 170.33486 
L 167.973626 168.140473 
L 168.0981 167.923011 
L 168.30902 167.567165 
L 168.427408 167.310164 
L 168.567985 167.092703 
L 168.817169 166.460087 
L 169.069875 166.084471 
L 169.291298 165.669317 
L 169.471298 165.471624 
L 169.672295 164.997162 
L 169.787002 164.79947 
L 170.006443 164.305239 
L 170.342381 163.73193 
L 170.462999 163.395853 
L 171.027756 162.466698 
L 171.262353 161.873621 
L 171.350224 161.695698 
L 171.597421 161.161928 
L 171.72293 160.984005 
L 171.957204 160.390927 
L 172.122989 160.05485 
L 172.421519 159.422234 
L 178.936512 146.07799 
L 179.069285 145.939606 
L 179.171268 145.682605 
L 179.270661 145.465144 
L 179.39165 145.148836 
L 179.577671 144.812758 
L 182.264657 138.901753 
L 182.420515 138.565675 
L 182.76395 137.834213 
L 183.106859 137.201597 
L 183.341101 136.628289 
L 183.70417 135.936365 
L 183.807854 135.718904 
L 183.961801 135.323519 
L 184.113025 135.066518 
L 184.307438 134.592056 
L 184.539065 134.117594 
L 185.456691 132.298823 
L 185.636486 131.942977 
L 185.891606 131.290592 
L 186.590202 129.926513 
L 186.739337 129.511359 
L 186.923076 129.135743 
L 192.725733 116.819501 
L 192.816276 116.602039 
L 193.281659 115.574038 
L 193.465039 115.178653 
L 193.597589 115.00073 
L 193.936916 114.328575 
L 194.330002 113.359882 
L 194.393033 113.181959 
L 195.519685 110.710803 
L 195.649824 110.414264 
L 199.444099 102.467026 
L 199.692643 101.953025 
L 199.791066 101.755333 
L 200.598998 99.9761 
L 200.711786 99.778408 
L 201.044742 99.106253 
L 201.687422 97.801483 
L 201.776224 97.623559 
L 202.004373 97.030482 
L 202.292561 96.457174 
L 202.391095 96.338558 
L 202.538094 96.002481 
L 202.727318 95.646634 
L 203.21205 94.519787 
L 203.301505 94.322095 
L 203.629991 93.590633 
L 203.692527 93.452248 
L 204.090339 92.681247 
L 204.196259 92.483555 
L 204.466803 92.08817 
L 206.608248 87.383088 
L 206.779198 86.908626 
L 206.935372 86.691164 
L 210.029487 80.345235 
L 210.117265 80.187081 
L 210.539389 79.317234 
L 210.64281 79.119542 
L 210.755104 78.862542 
L 211.471022 77.142617 
L 211.601912 76.944924 
L 211.81726 76.510001 
L 211.912204 76.332078 
L 212.083389 76.173924 
L 212.341749 75.620385 
L 212.567337 75.106384 
L 212.680858 74.829615 
L 212.789942 74.592384 
L 213.018685 74.196999 
L 213.379226 73.544613 
L 213.5678 73.129459 
L 213.699688 72.911997 
L 213.827101 72.694536 
L 214.056505 72.338689 
L 214.169071 72.160766 
L 214.443186 71.449073 
L 214.648028 71.172303 
L 214.793451 70.796688 
L 214.923179 70.46061 
L 215.060365 70.243149 
L 216.713161 66.684684 
L 216.813812 66.546299 
L 216.945104 66.348606 
L 217.933571 64.450759 
L 218.034357 64.272835 
L 218.196291 63.739066 
L 218.743836 62.513372 
L 218.853631 62.355218 
L 218.9712 62.177295 
L 219.368275 61.544679 
L 219.503994 61.346986 
L 219.724091 60.99114 
L 219.856843 60.73414 
L 219.943305 60.378293 
L 220.053043 60.239908 
L 220.19263 59.884062 
L 220.506498 59.310754 
L 220.705211 59.093292 
L 220.857795 58.658368 
L 221.014295 58.34206 
L 221.219495 57.966445 
L 221.451326 57.55129 
L 221.576322 57.333829 
L 221.677789 57.136136 
L 221.812684 56.958213 
L 221.936694 56.740751 
L 222.047009 56.582597 
L 222.825127 55.080134 
L 222.964058 54.803365 
L 224.016005 52.767132 
L 224.428887 52.114747 
L 224.941126 51.205361 
L 225.098755 50.829746 
L 225.349296 50.434361 
L 225.559414 50.058745 
L 225.698017 49.900591 
L 226.222708 48.793513 
L 226.371686 48.655128 
L 226.541473 48.160897 
L 226.713752 47.963204 
L 226.933094 47.627127 
L 227.151432 47.231742 
L 227.419067 46.856126 
L 227.575136 46.539818 
L 227.713738 46.342126 
L 227.838393 46.006049 
L 228.917052 44.38497 
L 229.053671 44.108201 
L 229.13622 43.890739 
L 229.27127 43.653508 
L 229.36708 43.495354 
L 229.727958 42.922046 
L 230.123393 42.309199 
L 230.548054 41.538198 
L 230.648943 41.300967 
L 231.031764 40.569505 
L 231.143503 40.43112 
L 231.257341 40.233428 
L 231.483651 40.015966 
L 231.62945 39.818273 
L 231.881318 39.422888 
L 231.992342 39.284504 
L 232.123282 39.027503 
L 232.374064 38.632118 
L 232.494647 38.414657 
L 232.633871 38.197195 
L 233.886002 36.279578 
L 234.161544 35.923731 
L 234.277276 35.745808 
L 234.502293 35.310885 
L 234.609822 35.132961 
L 234.813099 34.9155 
L 234.962371 34.698038 
L 235.082779 34.520115 
L 235.835866 33.235113 
L 236.10955 32.958344 
L 237.33529 31.297727 
L 237.441446 31.020957 
L 237.614035 30.763957 
L 237.75211 30.586034 
L 239.395402 28.213724 
L 239.551655 27.877647 
L 240.221006 27.324108 
L 240.451622 27.146184 
L 240.782101 26.889184 
L 240.998381 26.711261 
L 241.356978 26.019337 
L 241.546014 25.861183 
L 241.799362 25.544875 
L 241.949385 25.40649 
L 242.085614 25.268106 
L 242.37314 25.070413 
L 242.511993 24.89249 
L 242.797577 24.378489 
L 242.899553 24.220335 
L 243.153029 23.923797 
L 243.268483 23.84472 
L 243.533878 23.56795 
L 243.767825 23.31095 
L 244.29223 22.698103 
L 244.467093 22.362026 
L 244.914892 21.966641 
L 245.124664 21.749179 
L 245.44919 21.47241 
L 245.542021 21.413102 
L 245.761612 21.235179 
L 247.127021 20.049024 
L 247.472827 19.792024 
L 247.582588 19.673408 
L 248.170933 19.3571 
L 248.329726 19.119869 
L 248.543314 18.981484 
L 248.573048 18.941946 
L 248.896382 18.783792 
L 249.009165 18.546561 
L 249.538478 18.289561 
L 249.956821 18.03256 
L 250.688766 17.815099 
L 252.843988 17.182483 
L 254.967666 17.083636 
L 254.967666 17.083636 
" clip-path="url(#p49c4d95551)" style="fill: none; stroke: #9467bd; stroke-width: 1.5; stroke-linecap: square"/>
   </g>
   <g id="patch_3">
    <path d="M 30.103125 224.64 
L 30.103125 7.2 
" style="fill: none; stroke: #000000; stroke-width: 0.8; stroke-linejoin: miter; stroke-linecap: square"/>
   </g>
   <g id="patch_4">
    <path d="M 364.903125 224.64 
L 364.903125 7.2 
" style="fill: none; stroke: #000000; stroke-width: 0.8; stroke-linejoin: miter; stroke-linecap: square"/>
   </g>
   <g id="patch_5">
    <path d="M 30.103125 224.64 
L 364.903125 224.64 
" style="fill: none; stroke: #000000; stroke-width: 0.8; stroke-linejoin: miter; stroke-linecap: square"/>
   </g>
   <g id="patch_6">
    <path d="M 30.103125 7.2 
L 364.903125 7.2 
" style="fill: none; stroke: #000000; stroke-width: 0.8; stroke-linejoin: miter; stroke-linecap: square"/>
   </g>
   <g id="legend_1">
    <g id="patch_7">
     <path d="M 37.103125 88.590625 
L 109.264063 88.590625 
Q 111.264063 88.590625 111.264063 86.590625 
L 111.264063 14.2 
Q 111.264063 12.2 109.264063 12.2 
L 37.103125 12.2 
Q 35.103125 12.2 35.103125 14.2 
L 35.103125 86.590625 
Q 35.103125 88.590625 37.103125 88.590625 
z
" style="fill: #ffffff; opacity: 0.8; stroke: #cccccc; stroke-linejoin: miter"/>
    </g>
    <g id="line2d_17">
     <path d="M 39.103125 20.298437 
L 49.103125 20.298437 
L 59.103125 20.298437 
" style="fill: none; stroke: #1f77b4; stroke-width: 1.5; stroke-linecap: square"/>
    </g>
    <g id="text_12">
     <!-- n = 20 -->
     <g transform="translate(67.103125 23.798437)scale(0.1 -0.1)">
      <defs>
       <path id="DejaVuSans-6e" d="M 3513 2113 
L 3513 0 
L 2938 0 
L 2938 2094 
Q 2938 2591 2744 2837 
Q 2550 3084 2163 3084 
Q 1697 3084 1428 2787 
Q 1159 2491 1159 1978 
L 1159 0 
L 581 0 
L 581 3500 
L 1159 3500 
L 1159 2956 
Q 1366 3272 1645 3428 
Q 1925 3584 2291 3584 
Q 2894 3584 3203 3211 
Q 3513 2838 3513 2113 
z
" transform="scale(0.015625)"/>
       <path id="DejaVuSans-20" transform="scale(0.015625)"/>
       <path id="DejaVuSans-3d" d="M 678 2906 
L 4684 2906 
L 4684 2381 
L 678 2381 
L 678 2906 
z
M 678 1631 
L 4684 1631 
L 4684 1100 
L 678 1100 
L 678 1631 
z
" transform="scale(0.015625)"/>
      </defs>
      <use xlink:href="#DejaVuSans-6e"/>
      <use xlink:href="#DejaVuSans-20" x="63.378906"/>
      <use xlink:href="#DejaVuSans-3d" x="95.166016"/>
      <use xlink:href="#DejaVuSans-20" x="178.955078"/>
      <use xlink:href="#DejaVuSans-32" x="210.742188"/>
      <use xlink:href="#DejaVuSans-30" x="274.365234"/>
     </g>
    </g>
    <g id="line2d_18">
     <path d="M 39.103125 34.976562 
L 49.103125 34.976562 
L 59.103125 34.976562 
" style="fill: none; stroke: #ff7f0e; stroke-width: 1.5; stroke-linecap: square"/>
    </g>
    <g id="text_13">
     <!-- n = 40 -->
     <g transform="translate(67.103125 38.476562)scale(0.1 -0.1)">
      <use xlink:href="#DejaVuSans-6e"/>
      <use xlink:href="#DejaVuSans-20" x="63.378906"/>
      <use xlink:href="#DejaVuSans-3d" x="95.166016"/>
      <use xlink:href="#DejaVuSans-20" x="178.955078"/>
      <use xlink:href="#DejaVuSans-34" x="210.742188"/>
      <use xlink:href="#DejaVuSans-30" x="274.365234"/>
     </g>
    </g>
    <g id="line2d_19">
     <path d="M 39.103125 49.654687 
L 49.103125 49.654687 
L 59.103125 49.654687 
" style="fill: none; stroke: #2ca02c; stroke-width: 1.5; stroke-linecap: square"/>
    </g>
    <g id="text_14">
     <!-- n = 60 -->
     <g transform="translate(67.103125 53.154687)scale(0.1 -0.1)">
      <use xlink:href="#DejaVuSans-6e"/>
      <use xlink:href="#DejaVuSans-20" x="63.378906"/>
      <use xlink:href="#DejaVuSans-3d" x="95.166016"/>
      <use xlink:href="#DejaVuSans-20" x="178.955078"/>
      <use xlink:href="#DejaVuSans-36" x="210.742188"/>
      <use xlink:href="#DejaVuSans-30" x="274.365234"/>
     </g>
    </g>
    <g id="line2d_20">
     <path d="M 39.103125 64.332812 
L 49.103125 64.332812 
L 59.103125 64.332812 
" style="fill: none; stroke: #d62728; stroke-width: 1.5; stroke-linecap: square"/>
    </g>
    <g id="text_15">
     <!-- n = 80 -->
     <g transform="translate(67.103125 67.832812)scale(0.1 -0.1)">
      <use xlink:href="#DejaVuSans-6e"/>
      <use xlink:href="#DejaVuSans-20" x="63.378906"/>
      <use xlink:href="#DejaVuSans-3d" x="95.166016"/>
      <use xlink:href="#DejaVuSans-20" x="178.955078"/>
      <use xlink:href="#DejaVuSans-38" x="210.742188"/>
      <use xlink:href="#DejaVuSans-30" x="274.365234"/>
     </g>
    </g>
    <g id="line2d_21">
     <path d="M 39.103125 79.010937 
L 49.103125 79.010937 
L 59.103125 79.010937 
" style="fill: none; stroke: #9467bd; stroke-width: 1.5; stroke-linecap: square"/>
    </g>
    <g id="text_16">
     <!-- n = 100 -->
     <g transform="translate(67.103125 82.510937)scale(0.1 -0.1)">
      <use xlink:href="#DejaVuSans-6e"/>
      <use xlink:href="#DejaVuSans-20" x="63.378906"/>
      <use xlink:href="#DejaVuSans-3d" x="95.166016"/>
      <use xlink:href="#DejaVuSans-20" x="178.955078"/>
      <use xlink:href="#DejaVuSans-31" x="210.742188"/>
      <use xlink:href="#DejaVuSans-30" x="274.365234"/>
      <use xlink:href="#DejaVuSans-30" x="337.988281"/>
     </g>
    </g>
   </g>
  </g>
 </g>
 <defs>
  <clipPath id="p49c4d95551">
   <rect x="30.103125" y="7.2" width="334.8" height="217.44"/>
  </clipPath>
 </defs>
</svg>
